<ttFont>
<head>
    <!-- Most of this table will be recalculated by the compiler -->
    <tableVersion value="1.0"/>
    <fontRevision value="1.0"/>
    <checkSumAdjustment value="0x6fd75a69"/>
    <magicNumber value="0x5f0f3cf5"/>
    <flags value="00000000 00001011"/>
    <unitsPerEm value="1000"/>
    <created value="Mon Apr  8 19:23:52 2019"/>
    <modified value="Mon Apr  8 19:23:53 2019"/>
    <xMin value="-110"/>
    <yMin value="-305"/>
    <xMax value="1145"/>
    <yMax value="1018"/>
    <macStyle value="00000000 00000001"/>
    <lowestRecPPEM value="6"/>
    <fontDirectionHint value="2"/>
    <indexToLocFormat value="0"/>
    <glyphDataFormat value="0"/>
  </head>
    <TTGlyph name=".notdef" xMin="60" yMin="-100" xMax="454" yMax="750">
      <contour>
        <pt x="60" y="-100" on="1"/>
        <pt x="60" y="750" on="1"/>
        <pt x="454" y="750" on="1"/>
        <pt x="454" y="-100" on="1"/>
      </contour>
    </TTGlyph>
    <TTGlyph name="A" xMin="2" yMin="0" xMax="740" yMax="700">
      <contour>
        <pt x="2" y="0" on="1"/>
        <pt x="275" y="700" on="1"/>
        <pt x="471" y="700" on="1"/>
        <pt x="740" y="0" on="1"/>
        <pt x="554" y="0" on="1"/>
        <pt x="496" y="167" on="1"/>
        <pt x="240" y="167" on="1"/>
        <pt x="181" y="0" on="1"/>
      </contour>
      <contour>
        <pt x="287" y="300" on="1"/>
        <pt x="450" y="300" on="1"/>
        <pt x="369" y="532" on="1"/>
      </contour>
    </TTGlyph>
    <TTGlyph name="AE" xMin="2" yMin="0" xMax="929" yMax="700">
      <contour>
        <pt x="2" y="0" on="1"/>
        <pt x="275" y="700" on="1"/>
        <pt x="929" y="700" on="1"/>
        <pt x="929" y="551" on="1"/>
        <pt x="536" y="551" on="1"/>
        <pt x="581" y="425" on="1"/>
        <pt x="812" y="425" on="1"/>
        <pt x="812" y="281" on="1"/>
        <pt x="633" y="281" on="1"/>
        <pt x="680" y="149" on="1"/>
        <pt x="929" y="149" on="1"/>
        <pt x="929" y="0" on="1"/>
        <pt x="554" y="0" on="1"/>
        <pt x="496" y="167" on="1"/>
        <pt x="240" y="167" on="1"/>
        <pt x="181" y="0" on="1"/>
      </contour>
      <contour>
        <pt x="287" y="300" on="1"/>
        <pt x="450" y="300" on="1"/>
        <pt x="369" y="532" on="1"/>
      </contour>
    </TTGlyph>
    <TTGlyph name="Aacute" xMin="2" yMin="0" xMax="740" yMax="931">
      <component glyphName="A" x="0" y="0" flags="0x204"/>
      <component glyphName="acute" x="143" y="184" flags="0x4"/>
    </TTGlyph>
    <TTGlyph name="Abreve" xMin="2" yMin="0" xMax="740" yMax="952">
      <component glyphName="A" x="0" y="0" flags="0x204"/>
      <component glyphName="breve" x="112" y="184" flags="0x4"/>
    </TTGlyph>
    <TTGlyph name="Acircumflex" xMin="2" yMin="0" xMax="740" yMax="934">
      <component glyphName="A" x="0" y="0" flags="0x204"/>
      <component glyphName="circumflex" x="112" y="184" flags="0x4"/>
    </TTGlyph>
    <TTGlyph name="Adieresis" xMin="2" yMin="0" xMax="740" yMax="950">
      <component glyphName="A" x="0" y="0" flags="0x204"/>
      <component glyphName="dieresis" x="68" y="184" flags="0x4"/>
    </TTGlyph>
    <TTGlyph name="Agrave" xMin="2" yMin="0" xMax="740" yMax="931">
      <component glyphName="A" x="0" y="0" flags="0x204"/>
      <component glyphName="grave" x="72" y="184" flags="0x4"/>
    </TTGlyph>
    <TTGlyph name="Amacron" xMin="2" yMin="0" xMax="740" yMax="910">
      <component glyphName="A" x="0" y="0" flags="0x204"/>
      <component glyphName="macron" x="112" y="184" flags="0x4"/>
    </TTGlyph>
    <TTGlyph name="Aogonek" xMin="2" yMin="-231" xMax="769" yMax="700">
      <contour>
        <pt x="2" y="0" on="1"/>
        <pt x="275" y="700" on="1"/>
        <pt x="471" y="700" on="1"/>
        <pt x="740" y="0" on="1"/>
        <pt x="697" y="-26" on="0"/>
        <pt x="655" y="-76" on="0"/>
        <pt x="655" y="-103" on="1"/>
        <pt x="655" y="-125" on="0"/>
        <pt x="682" y="-149" on="0"/>
        <pt x="704" y="-149" on="1"/>
        <pt x="717" y="-149" on="0"/>
        <pt x="742" y="-143" on="0"/>
        <pt x="749" y="-138" on="1"/>
        <pt x="769" y="-208" on="1"/>
        <pt x="753" y="-218" on="0"/>
        <pt x="703" y="-231" on="0"/>
        <pt x="676" y="-231" on="1"/>
        <pt x="627" y="-231" on="0"/>
        <pt x="568" y="-176" on="0"/>
        <pt x="568" y="-132" on="1"/>
        <pt x="568" y="-95" on="0"/>
        <pt x="610" y="-31" on="0"/>
        <pt x="656" y="0" on="1"/>
        <pt x="554" y="0" on="1"/>
        <pt x="496" y="167" on="1"/>
        <pt x="240" y="167" on="1"/>
        <pt x="181" y="0" on="1"/>
      </contour>
      <contour>
        <pt x="287" y="300" on="1"/>
        <pt x="450" y="300" on="1"/>
        <pt x="369" y="532" on="1"/>
      </contour>
    </TTGlyph>
    <TTGlyph name="Aring" xMin="2" yMin="0" xMax="740" yMax="1018">
      <component glyphName="A" x="0" y="0" flags="0x204"/>
      <component glyphName="ring" x="112" y="184" flags="0x4"/>
    </TTGlyph>
    <TTGlyph name="Atilde" xMin="2" yMin="0" xMax="740" yMax="944">
      <component glyphName="A" x="0" y="0" flags="0x204"/>
      <component glyphName="tilde" x="112" y="184" flags="0x4"/>
    </TTGlyph>
    <TTGlyph name="B" xMin="78" yMin="0" xMax="677" yMax="700">
      <contour>
        <pt x="78" y="700" on="1"/>
        <pt x="424" y="700" on="1"/>
        <pt x="475" y="700" on="0"/>
        <pt x="561" y="671" on="0"/>
        <pt x="622" y="621" on="0"/>
        <pt x="657" y="550" on="0"/>
        <pt x="657" y="509" on="1"/>
        <pt x="657" y="460" on="0"/>
        <pt x="601" y="381" on="0"/>
        <pt x="555" y="357" on="1"/>
        <pt x="609" y="335" on="0"/>
        <pt x="677" y="250" on="0"/>
        <pt x="677" y="196" on="1"/>
        <pt x="677" y="153" on="0"/>
        <pt x="642" y="81" on="0"/>
        <pt x="579" y="29" on="0"/>
        <pt x="492" y="0" on="0"/>
        <pt x="440" y="0" on="1"/>
        <pt x="78" y="0" on="1"/>
      </contour>
      <contour>
        <pt x="404" y="563" on="1"/>
        <pt x="250" y="563" on="1"/>
        <pt x="250" y="419" on="1"/>
        <pt x="404" y="419" on="1"/>
        <pt x="440" y="419" on="0"/>
        <pt x="484" y="459" on="0"/>
        <pt x="484" y="491" on="1"/>
        <pt x="484" y="524" on="0"/>
        <pt x="441" y="563" on="0"/>
      </contour>
      <contour>
        <pt x="418" y="137" on="1"/>
        <pt x="457" y="137" on="0"/>
        <pt x="503" y="179" on="0"/>
        <pt x="503" y="214" on="1"/>
        <pt x="503" y="249" on="0"/>
        <pt x="457" y="291" on="0"/>
        <pt x="418" y="291" on="1"/>
        <pt x="250" y="291" on="1"/>
        <pt x="250" y="137" on="1"/>
      </contour>
    </TTGlyph>
    <TTGlyph name="C" xMin="45" yMin="-10" xMax="698" yMax="711">
      <contour>
        <pt x="420" y="144" on="1"/>
        <pt x="467" y="144" on="0"/>
        <pt x="547" y="188" on="0"/>
        <pt x="580" y="231" on="1"/>
        <pt x="693" y="124" on="1"/>
        <pt x="647" y="64" on="0"/>
        <pt x="495" y="-10" on="0"/>
        <pt x="414" y="-10" on="1"/>
        <pt x="336" y="-10" on="0"/>
        <pt x="200" y="46" on="0"/>
        <pt x="102" y="142" on="0"/>
        <pt x="45" y="274" on="0"/>
        <pt x="45" y="350" on="1"/>
        <pt x="45" y="426" on="0"/>
        <pt x="102" y="559" on="0"/>
        <pt x="201" y="655" on="0"/>
        <pt x="336" y="711" on="0"/>
        <pt x="414" y="711" on="1"/>
        <pt x="498" y="711" on="0"/>
        <pt x="652" y="637" on="0"/>
        <pt x="698" y="575" on="1"/>
        <pt x="582" y="465" on="1"/>
        <pt x="548" y="511" on="0"/>
        <pt x="463" y="558" on="0"/>
        <pt x="414" y="558" on="1"/>
        <pt x="373" y="558" on="0"/>
        <pt x="303" y="526" on="0"/>
        <pt x="252" y="471" on="0"/>
        <pt x="223" y="394" on="0"/>
        <pt x="223" y="350" on="1"/>
        <pt x="223" y="306" on="0"/>
        <pt x="253" y="230" on="0"/>
        <pt x="306" y="175" on="0"/>
        <pt x="378" y="144" on="0"/>
      </contour>
    </TTGlyph>
    <TTGlyph name="Cacute" xMin="45" yMin="-10" xMax="698" yMax="931">
      <component glyphName="C" x="0" y="0" flags="0x204"/>
      <component glyphName="acute" x="174" y="184" flags="0x4"/>
    </TTGlyph>
    <TTGlyph name="Ccaron" xMin="45" yMin="-10" xMax="698" yMax="939">
      <component glyphName="C" x="0" y="0" flags="0x204"/>
      <component glyphName="caron" x="143" y="184" flags="0x4"/>
    </TTGlyph>
    <TTGlyph name="Ccedilla" xMin="45" yMin="-254" xMax="698" yMax="711">
      <contour>
        <pt x="420" y="144" on="1"/>
        <pt x="467" y="144" on="0"/>
        <pt x="547" y="188" on="0"/>
        <pt x="580" y="231" on="1"/>
        <pt x="693" y="124" on="1"/>
        <pt x="650" y="68" on="0"/>
        <pt x="512" y="-4" on="0"/>
        <pt x="437" y="-9" on="1"/>
        <pt x="425" y="-58" on="1"/>
        <pt x="472" y="-62" on="0"/>
        <pt x="527" y="-107" on="0"/>
        <pt x="527" y="-144" on="1"/>
        <pt x="527" y="-190" on="0"/>
        <pt x="451" y="-254" on="0"/>
        <pt x="395" y="-254" on="1"/>
        <pt x="351" y="-254" on="0"/>
        <pt x="284" y="-233" on="0"/>
        <pt x="260" y="-212" on="1"/>
        <pt x="309" y="-155" on="1"/>
        <pt x="326" y="-168" on="0"/>
        <pt x="367" y="-183" on="0"/>
        <pt x="386" y="-183" on="1"/>
        <pt x="412" y="-183" on="0"/>
        <pt x="440" y="-164" on="0"/>
        <pt x="440" y="-146" on="1"/>
        <pt x="440" y="-130" on="0"/>
        <pt x="410" y="-111" on="0"/>
        <pt x="384" y="-111" on="1"/>
        <pt x="339" y="-111" on="1"/>
        <pt x="364" y="-7" on="1"/>
        <pt x="295" y="2" on="0"/>
        <pt x="178" y="63" on="0"/>
        <pt x="93" y="157" on="0"/>
        <pt x="45" y="280" on="0"/>
        <pt x="45" y="350" on="1"/>
        <pt x="45" y="426" on="0"/>
        <pt x="102" y="559" on="0"/>
        <pt x="201" y="655" on="0"/>
        <pt x="336" y="711" on="0"/>
        <pt x="414" y="711" on="1"/>
        <pt x="498" y="711" on="0"/>
        <pt x="652" y="637" on="0"/>
        <pt x="698" y="575" on="1"/>
        <pt x="582" y="465" on="1"/>
        <pt x="548" y="511" on="0"/>
        <pt x="463" y="558" on="0"/>
        <pt x="414" y="558" on="1"/>
        <pt x="373" y="558" on="0"/>
        <pt x="303" y="526" on="0"/>
        <pt x="252" y="471" on="0"/>
        <pt x="223" y="394" on="0"/>
        <pt x="223" y="350" on="1"/>
        <pt x="223" y="306" on="0"/>
        <pt x="253" y="230" on="0"/>
        <pt x="306" y="175" on="0"/>
        <pt x="378" y="144" on="0"/>
      </contour>
    </TTGlyph>
    <TTGlyph name="Ccircumflex" xMin="45" yMin="-10" xMax="698" yMax="934">
      <component glyphName="C" x="0" y="0" flags="0x204"/>
      <component glyphName="circumflex" x="143" y="184" flags="0x4"/>
    </TTGlyph>
    <TTGlyph name="Cdotaccent" xMin="45" yMin="-10" xMax="698" yMax="950">
      <component glyphName="C" x="0" y="0" flags="0x204"/>
      <component glyphName="dotaccent" x="246" y="184" flags="0x4"/>
    </TTGlyph>
    <TTGlyph name="D" xMin="78" yMin="0" xMax="715" yMax="700">
      <contour>
        <pt x="78" y="0" on="1"/>
        <pt x="78" y="700" on="1"/>
        <pt x="363" y="700" on="1"/>
        <pt x="436" y="700" on="0"/>
        <pt x="565" y="645" on="0"/>
        <pt x="660" y="551" on="0"/>
        <pt x="715" y="422" on="0"/>
        <pt x="715" y="348" on="1"/>
        <pt x="715" y="276" on="0"/>
        <pt x="660" y="148" on="0"/>
        <pt x="565" y="54" on="0"/>
        <pt x="436" y="0" on="0"/>
        <pt x="363" y="0" on="1"/>
      </contour>
      <contour>
        <pt x="363" y="553" on="1"/>
        <pt x="250" y="553" on="1"/>
        <pt x="250" y="147" on="1"/>
        <pt x="363" y="147" on="1"/>
        <pt x="399" y="147" on="0"/>
        <pt x="463" y="178" on="0"/>
        <pt x="510" y="232" on="0"/>
        <pt x="537" y="306" on="0"/>
        <pt x="537" y="348" on="1"/>
        <pt x="537" y="391" on="0"/>
        <pt x="510" y="466" on="0"/>
        <pt x="463" y="521" on="0"/>
        <pt x="399" y="553" on="0"/>
      </contour>
    </TTGlyph>
    <TTGlyph name="Dcaron" xMin="78" yMin="0" xMax="715" yMax="939">
      <component glyphName="D" x="0" y="0" flags="0x204"/>
      <component glyphName="caron" x="121" y="184" flags="0x4"/>
    </TTGlyph>
    <TTGlyph name="Dcroat" xMin="23" yMin="0" xMax="740" yMax="700">
      <contour>
        <pt x="103" y="0" on="1"/>
        <pt x="103" y="283" on="1"/>
        <pt x="23" y="283" on="1"/>
        <pt x="23" y="418" on="1"/>
        <pt x="103" y="418" on="1"/>
        <pt x="103" y="700" on="1"/>
        <pt x="388" y="700" on="1"/>
        <pt x="461" y="700" on="0"/>
        <pt x="590" y="645" on="0"/>
        <pt x="685" y="551" on="0"/>
        <pt x="740" y="422" on="0"/>
        <pt x="740" y="348" on="1"/>
        <pt x="740" y="276" on="0"/>
        <pt x="685" y="148" on="0"/>
        <pt x="590" y="54" on="0"/>
        <pt x="461" y="0" on="0"/>
        <pt x="388" y="0" on="1"/>
      </contour>
      <contour>
        <pt x="388" y="553" on="1"/>
        <pt x="275" y="553" on="1"/>
        <pt x="275" y="418" on="1"/>
        <pt x="416" y="418" on="1"/>
        <pt x="416" y="283" on="1"/>
        <pt x="275" y="283" on="1"/>
        <pt x="275" y="147" on="1"/>
        <pt x="388" y="147" on="1"/>
        <pt x="424" y="147" on="0"/>
        <pt x="488" y="178" on="0"/>
        <pt x="535" y="232" on="0"/>
        <pt x="562" y="306" on="0"/>
        <pt x="562" y="348" on="1"/>
        <pt x="562" y="391" on="0"/>
        <pt x="535" y="466" on="0"/>
        <pt x="488" y="521" on="0"/>
        <pt x="424" y="553" on="0"/>
      </contour>
    </TTGlyph>
    <TTGlyph name="E" xMin="78" yMin="0" xMax="611" yMax="700">
      <contour>
        <pt x="78" y="0" on="1"/>
        <pt x="78" y="700" on="1"/>
        <pt x="607" y="700" on="1"/>
        <pt x="607" y="556" on="1"/>
        <pt x="250" y="556" on="1"/>
        <pt x="250" y="423" on="1"/>
        <pt x="502" y="423" on="1"/>
        <pt x="502" y="283" on="1"/>
        <pt x="250" y="283" on="1"/>
        <pt x="250" y="144" on="1"/>
        <pt x="611" y="144" on="1"/>
        <pt x="611" y="0" on="1"/>
      </contour>
    </TTGlyph>
    <TTGlyph name="Eacute" xMin="78" yMin="0" xMax="611" yMax="931">
      <component glyphName="E" x="0" y="0" flags="0x204"/>
      <component glyphName="acute" x="125" y="184" flags="0x4"/>
    </TTGlyph>
    <TTGlyph name="Ebreve" xMin="78" yMin="0" xMax="611" yMax="952">
      <component glyphName="E" x="0" y="0" flags="0x204"/>
      <component glyphName="breve" x="94" y="184" flags="0x4"/>
    </TTGlyph>
    <TTGlyph name="Ecaron" xMin="78" yMin="0" xMax="611" yMax="939">
      <component glyphName="E" x="0" y="0" flags="0x204"/>
      <component glyphName="caron" x="94" y="184" flags="0x4"/>
    </TTGlyph>
    <TTGlyph name="Ecircumflex" xMin="78" yMin="0" xMax="611" yMax="934">
      <component glyphName="E" x="0" y="0" flags="0x204"/>
      <component glyphName="circumflex" x="94" y="184" flags="0x4"/>
    </TTGlyph>
    <TTGlyph name="Edieresis" xMin="78" yMin="0" xMax="611" yMax="950">
      <component glyphName="E" x="0" y="0" flags="0x204"/>
      <component glyphName="dieresis" x="50" y="184" flags="0x4"/>
    </TTGlyph>
    <TTGlyph name="Edotaccent" xMin="78" yMin="0" xMax="611" yMax="950">
      <component glyphName="E" x="0" y="0" flags="0x204"/>
      <component glyphName="dotaccent" x="197" y="184" flags="0x4"/>
    </TTGlyph>
    <TTGlyph name="Egrave" xMin="78" yMin="0" xMax="611" yMax="931">
      <component glyphName="E" x="0" y="0" flags="0x204"/>
      <component glyphName="grave" x="54" y="184" flags="0x4"/>
    </TTGlyph>
    <TTGlyph name="Emacron" xMin="78" yMin="0" xMax="611" yMax="910">
      <component glyphName="E" x="0" y="0" flags="0x204"/>
      <component glyphName="macron" x="94" y="184" flags="0x4"/>
    </TTGlyph>
    <TTGlyph name="Eng" xMin="78" yMin="-218" xMax="710" yMax="700">
      <contour>
        <pt x="556" y="3" on="1"/>
        <pt x="240" y="428" on="1"/>
        <pt x="240" y="0" on="1"/>
        <pt x="78" y="0" on="1"/>
        <pt x="78" y="700" on="1"/>
        <pt x="240" y="700" on="1"/>
        <pt x="548" y="286" on="1"/>
        <pt x="548" y="700" on="1"/>
        <pt x="710" y="700" on="1"/>
        <pt x="710" y="-52" on="1"/>
        <pt x="710" y="-131" on="0"/>
        <pt x="619" y="-218" on="0"/>
        <pt x="535" y="-218" on="1"/>
        <pt x="516" y="-218" on="0"/>
        <pt x="470" y="-212" on="0"/>
        <pt x="457" y="-208" on="1"/>
        <pt x="457" y="-86" on="1"/>
        <pt x="468" y="-88" on="0"/>
        <pt x="490" y="-90" on="0"/>
        <pt x="503" y="-90" on="1"/>
        <pt x="530" y="-90" on="0"/>
        <pt x="556" y="-67" on="0"/>
        <pt x="556" y="-42" on="1"/>
      </contour>
    </TTGlyph>
    <TTGlyph name="Eogonek" xMin="78" yMin="-231" xMax="640" yMax="700">
      <contour>
        <pt x="78" y="0" on="1"/>
        <pt x="78" y="700" on="1"/>
        <pt x="607" y="700" on="1"/>
        <pt x="607" y="556" on="1"/>
        <pt x="250" y="556" on="1"/>
        <pt x="250" y="423" on="1"/>
        <pt x="502" y="423" on="1"/>
        <pt x="502" y="283" on="1"/>
        <pt x="250" y="283" on="1"/>
        <pt x="250" y="144" on="1"/>
        <pt x="611" y="144" on="1"/>
        <pt x="611" y="0" on="1"/>
        <pt x="568" y="-26" on="0"/>
        <pt x="526" y="-76" on="0"/>
        <pt x="526" y="-103" on="1"/>
        <pt x="526" y="-125" on="0"/>
        <pt x="553" y="-149" on="0"/>
        <pt x="575" y="-149" on="1"/>
        <pt x="588" y="-149" on="0"/>
        <pt x="613" y="-143" on="0"/>
        <pt x="620" y="-138" on="1"/>
        <pt x="640" y="-208" on="1"/>
        <pt x="624" y="-218" on="0"/>
        <pt x="574" y="-231" on="0"/>
        <pt x="547" y="-231" on="1"/>
        <pt x="498" y="-231" on="0"/>
        <pt x="439" y="-176" on="0"/>
        <pt x="439" y="-132" on="1"/>
        <pt x="439" y="-95" on="0"/>
        <pt x="481" y="-31" on="0"/>
        <pt x="527" y="0" on="1"/>
      </contour>
    </TTGlyph>
    <TTGlyph name="Eth" xMin="23" yMin="0" xMax="740" yMax="700">
      <contour>
        <pt x="103" y="0" on="1"/>
        <pt x="103" y="283" on="1"/>
        <pt x="23" y="283" on="1"/>
        <pt x="23" y="418" on="1"/>
        <pt x="103" y="418" on="1"/>
        <pt x="103" y="700" on="1"/>
        <pt x="388" y="700" on="1"/>
        <pt x="461" y="700" on="0"/>
        <pt x="590" y="645" on="0"/>
        <pt x="685" y="551" on="0"/>
        <pt x="740" y="422" on="0"/>
        <pt x="740" y="348" on="1"/>
        <pt x="740" y="276" on="0"/>
        <pt x="685" y="148" on="0"/>
        <pt x="590" y="54" on="0"/>
        <pt x="461" y="0" on="0"/>
        <pt x="388" y="0" on="1"/>
      </contour>
      <contour>
        <pt x="388" y="553" on="1"/>
        <pt x="275" y="553" on="1"/>
        <pt x="275" y="418" on="1"/>
        <pt x="416" y="418" on="1"/>
        <pt x="416" y="283" on="1"/>
        <pt x="275" y="283" on="1"/>
        <pt x="275" y="147" on="1"/>
        <pt x="388" y="147" on="1"/>
        <pt x="424" y="147" on="0"/>
        <pt x="488" y="178" on="0"/>
        <pt x="535" y="232" on="0"/>
        <pt x="562" y="306" on="0"/>
        <pt x="562" y="348" on="1"/>
        <pt x="562" y="391" on="0"/>
        <pt x="535" y="466" on="0"/>
        <pt x="488" y="521" on="0"/>
        <pt x="424" y="553" on="0"/>
      </contour>
    </TTGlyph>
    <TTGlyph name="Euro" xMin="39" yMin="-11" xMax="705" yMax="711">
      <contour>
        <pt x="260" y="350" on="1"/>
        <pt x="260" y="343" on="0"/>
        <pt x="260" y="330" on="0"/>
        <pt x="261" y="323" on="1"/>
        <pt x="465" y="323" on="1"/>
        <pt x="435" y="245" on="1"/>
        <pt x="277" y="245" on="1"/>
        <pt x="298" y="187" on="0"/>
        <pt x="388" y="120" on="0"/>
        <pt x="448" y="120" on="1"/>
        <pt x="494" y="120" on="0"/>
        <pt x="578" y="163" on="0"/>
        <pt x="603" y="200" on="1"/>
        <pt x="705" y="119" on="1"/>
        <pt x="659" y="55" on="0"/>
        <pt x="528" y="-11" on="0"/>
        <pt x="447" y="-11" on="1"/>
        <pt x="328" y="-11" on="0"/>
        <pt x="157" y="129" on="0"/>
        <pt x="129" y="245" on="1"/>
        <pt x="39" y="245" on="1"/>
        <pt x="39" y="323" on="1"/>
        <pt x="118" y="323" on="1"/>
        <pt x="117" y="330" on="0"/>
        <pt x="117" y="343" on="0"/>
        <pt x="117" y="350" on="1"/>
        <pt x="117" y="357" on="0"/>
        <pt x="117" y="369" on="0"/>
        <pt x="118" y="376" on="1"/>
        <pt x="39" y="376" on="1"/>
        <pt x="39" y="455" on="1"/>
        <pt x="129" y="455" on="1"/>
        <pt x="157" y="571" on="0"/>
        <pt x="328" y="711" on="0"/>
        <pt x="447" y="711" on="1"/>
        <pt x="528" y="711" on="0"/>
        <pt x="660" y="645" on="0"/>
        <pt x="705" y="581" on="1"/>
        <pt x="602" y="499" on="1"/>
        <pt x="577" y="536" on="0"/>
        <pt x="494" y="580" on="0"/>
        <pt x="448" y="580" on="1"/>
        <pt x="388" y="580" on="0"/>
        <pt x="298" y="513" on="0"/>
        <pt x="277" y="455" on="1"/>
        <pt x="512" y="455" on="1"/>
        <pt x="483" y="376" on="1"/>
        <pt x="261" y="376" on="1"/>
        <pt x="260" y="370" on="0"/>
        <pt x="260" y="357" on="0"/>
      </contour>
    </TTGlyph>
    <TTGlyph name="F" xMin="78" yMin="0" xMax="611" yMax="700">
      <contour>
        <pt x="78" y="0" on="1"/>
        <pt x="78" y="700" on="1"/>
        <pt x="611" y="700" on="1"/>
        <pt x="611" y="556" on="1"/>
        <pt x="250" y="556" on="1"/>
        <pt x="250" y="418" on="1"/>
        <pt x="502" y="418" on="1"/>
        <pt x="502" y="278" on="1"/>
        <pt x="250" y="278" on="1"/>
        <pt x="250" y="0" on="1"/>
      </contour>
    </TTGlyph>
    <TTGlyph name="G" xMin="45" yMin="-11" xMax="761" yMax="711">
      <contour>
        <pt x="761" y="353" on="1"/>
        <pt x="761" y="275" on="0"/>
        <pt x="709" y="141" on="0"/>
        <pt x="617" y="44" on="0"/>
        <pt x="488" y="-11" on="0"/>
        <pt x="413" y="-11" on="1"/>
        <pt x="336" y="-11" on="0"/>
        <pt x="201" y="45" on="0"/>
        <pt x="102" y="142" on="0"/>
        <pt x="45" y="274" on="0"/>
        <pt x="45" y="350" on="1"/>
        <pt x="45" y="426" on="0"/>
        <pt x="102" y="558" on="0"/>
        <pt x="200" y="655" on="0"/>
        <pt x="334" y="711" on="0"/>
        <pt x="410" y="711" on="1"/>
        <pt x="497" y="711" on="0"/>
        <pt x="655" y="640" on="0"/>
        <pt x="704" y="575" on="1"/>
        <pt x="583" y="470" on="1"/>
        <pt x="550" y="514" on="0"/>
        <pt x="461" y="558" on="0"/>
        <pt x="410" y="558" on="1"/>
        <pt x="370" y="558" on="0"/>
        <pt x="301" y="526" on="0"/>
        <pt x="251" y="471" on="0"/>
        <pt x="223" y="394" on="0"/>
        <pt x="223" y="350" on="1"/>
        <pt x="223" y="305" on="0"/>
        <pt x="252" y="228" on="0"/>
        <pt x="304" y="172" on="0"/>
        <pt x="375" y="140" on="0"/>
        <pt x="416" y="140" on="1"/>
        <pt x="475" y="140" on="0"/>
        <pt x="562" y="206" on="0"/>
        <pt x="576" y="257" on="1"/>
        <pt x="401" y="257" on="1"/>
        <pt x="401" y="402" on="1"/>
        <pt x="761" y="402" on="1"/>
      </contour>
    </TTGlyph>
    <TTGlyph name="Gbreve" xMin="45" yMin="-11" xMax="761" yMax="952">
      <component glyphName="G" x="0" y="0" flags="0x204"/>
      <component glyphName="breve" x="141" y="184" flags="0x4"/>
    </TTGlyph>
    <TTGlyph name="Gcircumflex" xMin="45" yMin="-11" xMax="761" yMax="934">
      <component glyphName="G" x="0" y="0" flags="0x204"/>
      <component glyphName="circumflex" x="141" y="184" flags="0x4"/>
    </TTGlyph>
    <TTGlyph name="Gcommaaccent" xMin="45" yMin="-305" xMax="761" yMax="711">
      <component glyphName="G" x="0" y="0" flags="0x204"/>
      <component glyphName="commaaccent" x="258" y="0" flags="0x4"/>
    </TTGlyph>
    <TTGlyph name="Gdotaccent" xMin="45" yMin="-11" xMax="761" yMax="950">
      <component glyphName="G" x="0" y="0" flags="0x204"/>
      <component glyphName="dotaccent" x="244" y="184" flags="0x4"/>
    </TTGlyph>
    <TTGlyph name="H" xMin="68" yMin="0" xMax="695" yMax="700">
      <contour>
        <pt x="68" y="0" on="1"/>
        <pt x="68" y="700" on="1"/>
        <pt x="240" y="700" on="1"/>
        <pt x="240" y="428" on="1"/>
        <pt x="523" y="428" on="1"/>
        <pt x="523" y="700" on="1"/>
        <pt x="695" y="700" on="1"/>
        <pt x="695" y="0" on="1"/>
        <pt x="523" y="0" on="1"/>
        <pt x="523" y="277" on="1"/>
        <pt x="240" y="277" on="1"/>
        <pt x="240" y="0" on="1"/>
      </contour>
    </TTGlyph>
    <TTGlyph name="Hbar" xMin="13" yMin="0" xMax="800" yMax="700">
      <contour>
        <pt x="93" y="0" on="1"/>
        <pt x="93" y="499" on="1"/>
        <pt x="13" y="499" on="1"/>
        <pt x="13" y="614" on="1"/>
        <pt x="93" y="614" on="1"/>
        <pt x="93" y="700" on="1"/>
        <pt x="265" y="700" on="1"/>
        <pt x="265" y="614" on="1"/>
        <pt x="548" y="614" on="1"/>
        <pt x="548" y="700" on="1"/>
        <pt x="720" y="700" on="1"/>
        <pt x="720" y="614" on="1"/>
        <pt x="800" y="614" on="1"/>
        <pt x="800" y="499" on="1"/>
        <pt x="720" y="499" on="1"/>
        <pt x="720" y="0" on="1"/>
        <pt x="548" y="0" on="1"/>
        <pt x="548" y="282" on="1"/>
        <pt x="265" y="282" on="1"/>
        <pt x="265" y="0" on="1"/>
      </contour>
      <contour>
        <pt x="265" y="423" on="1"/>
        <pt x="548" y="423" on="1"/>
        <pt x="548" y="499" on="1"/>
        <pt x="265" y="499" on="1"/>
      </contour>
    </TTGlyph>
    <TTGlyph name="Hcircumflex" xMin="68" yMin="0" xMax="695" yMax="934">
      <component glyphName="H" x="0" y="0" flags="0x204"/>
      <component glyphName="circumflex" x="122" y="184" flags="0x4"/>
    </TTGlyph>
    <TTGlyph name="I" xMin="68" yMin="0" xMax="240" yMax="700">
      <contour>
        <pt x="68" y="0" on="1"/>
        <pt x="68" y="700" on="1"/>
        <pt x="240" y="700" on="1"/>
        <pt x="240" y="0" on="1"/>
      </contour>
    </TTGlyph>
    <TTGlyph name="IJ" xMin="68" yMin="-10" xMax="914" yMax="700">
      <component glyphName="I" x="0" y="0" flags="0x4"/>
      <component glyphName="J" x="308" y="0" flags="0x4"/>
    </TTGlyph>
    <TTGlyph name="Iacute" xMin="64" yMin="0" xMax="395" yMax="931">
      <component glyphName="I" x="0" y="0" flags="0x204"/>
      <component glyphName="acute" x="-75" y="184" flags="0x4"/>
    </TTGlyph>
    <TTGlyph name="Ibreve" xMin="-36" yMin="0" xMax="344" yMax="952">
      <component glyphName="I" x="0" y="0" flags="0x204"/>
      <component glyphName="breve" x="-106" y="184" flags="0x4"/>
    </TTGlyph>
    <TTGlyph name="Icircumflex" xMin="-51" yMin="0" xMax="361" yMax="934">
      <component glyphName="I" x="0" y="0" flags="0x204"/>
      <component glyphName="circumflex" x="-106" y="184" flags="0x4"/>
    </TTGlyph>
    <TTGlyph name="Idieresis" xMin="-43" yMin="0" xMax="351" yMax="950">
      <component glyphName="I" x="0" y="0" flags="0x204"/>
      <component glyphName="dieresis" x="-150" y="184" flags="0x4"/>
    </TTGlyph>
    <TTGlyph name="Idotaccent" xMin="68" yMin="0" xMax="240" yMax="950">
      <component glyphName="I" x="0" y="0" flags="0x204"/>
      <component glyphName="dotaccent" x="-3" y="184" flags="0x4"/>
    </TTGlyph>
    <TTGlyph name="Igrave" xMin="-100" yMin="0" xMax="240" yMax="931">
      <component glyphName="I" x="0" y="0" flags="0x204"/>
      <component glyphName="grave" x="-146" y="184" flags="0x4"/>
    </TTGlyph>
    <TTGlyph name="Imacron" xMin="-7" yMin="0" xMax="322" yMax="910">
      <component glyphName="I" x="0" y="0" flags="0x204"/>
      <component glyphName="macron" x="-106" y="184" flags="0x4"/>
    </TTGlyph>
    <TTGlyph name="Iogonek" xMin="68" yMin="-231" xMax="269" yMax="700">
      <contour>
        <pt x="68" y="0" on="1"/>
        <pt x="68" y="700" on="1"/>
        <pt x="240" y="700" on="1"/>
        <pt x="240" y="0" on="1"/>
        <pt x="197" y="-26" on="0"/>
        <pt x="155" y="-76" on="0"/>
        <pt x="155" y="-103" on="1"/>
        <pt x="155" y="-125" on="0"/>
        <pt x="182" y="-149" on="0"/>
        <pt x="204" y="-149" on="1"/>
        <pt x="217" y="-149" on="0"/>
        <pt x="242" y="-143" on="0"/>
        <pt x="249" y="-138" on="1"/>
        <pt x="269" y="-208" on="1"/>
        <pt x="253" y="-218" on="0"/>
        <pt x="203" y="-231" on="0"/>
        <pt x="176" y="-231" on="1"/>
        <pt x="127" y="-231" on="0"/>
        <pt x="68" y="-176" on="0"/>
        <pt x="68" y="-132" on="1"/>
        <pt x="68" y="-95" on="0"/>
        <pt x="110" y="-31" on="0"/>
        <pt x="156" y="0" on="1"/>
      </contour>
    </TTGlyph>
    <TTGlyph name="Itilde" xMin="-55" yMin="0" xMax="361" yMax="944">
      <component glyphName="I" x="0" y="0" flags="0x204"/>
      <component glyphName="tilde" x="-106" y="184" flags="0x4"/>
    </TTGlyph>
    <TTGlyph name="J" xMin="26" yMin="-10" xMax="606" yMax="700">
      <contour>
        <pt x="606" y="274" on="1"/>
        <pt x="606" y="211" on="0"/>
        <pt x="564" y="105" on="0"/>
        <pt x="487" y="31" on="0"/>
        <pt x="379" y="-10" on="0"/>
        <pt x="314" y="-10" on="1"/>
        <pt x="206" y="-10" on="0"/>
        <pt x="56" y="100" on="0"/>
        <pt x="26" y="204" on="1"/>
        <pt x="185" y="261" on="1"/>
        <pt x="203" y="200" on="0"/>
        <pt x="267" y="141" on="0"/>
        <pt x="315" y="141" on="1"/>
        <pt x="368" y="141" on="0"/>
        <pt x="434" y="218" on="0"/>
        <pt x="434" y="279" on="1"/>
        <pt x="434" y="700" on="1"/>
        <pt x="606" y="700" on="1"/>
      </contour>
    </TTGlyph>
    <TTGlyph name="Jcircumflex" xMin="26" yMin="-10" xMax="720" yMax="934">
      <component glyphName="J" x="0" y="0" flags="0x204"/>
      <component glyphName="circumflex" x="253" y="184" flags="0x4"/>
    </TTGlyph>
    <TTGlyph name="K" xMin="78" yMin="0" xMax="734" yMax="700">
      <contour>
        <pt x="78" y="0" on="1"/>
        <pt x="78" y="700" on="1"/>
        <pt x="250" y="700" on="1"/>
        <pt x="250" y="396" on="1"/>
        <pt x="511" y="700" on="1"/>
        <pt x="716" y="700" on="1"/>
        <pt x="410" y="371" on="1"/>
        <pt x="734" y="0" on="1"/>
        <pt x="509" y="0" on="1"/>
        <pt x="250" y="318" on="1"/>
        <pt x="250" y="0" on="1"/>
      </contour>
    </TTGlyph>
    <TTGlyph name="Kcommaaccent" xMin="78" yMin="-305" xMax="734" yMax="700">
      <component glyphName="K" x="0" y="0" flags="0x204"/>
      <component glyphName="commaaccent" x="243" y="0" flags="0x4"/>
    </TTGlyph>
    <TTGlyph name="L" xMin="78" yMin="0" xMax="597" yMax="700">
      <contour>
        <pt x="78" y="0" on="1"/>
        <pt x="78" y="700" on="1"/>
        <pt x="250" y="700" on="1"/>
        <pt x="250" y="147" on="1"/>
        <pt x="597" y="147" on="1"/>
        <pt x="597" y="0" on="1"/>
      </contour>
    </TTGlyph>
    <TTGlyph name="Lacute" xMin="73" yMin="0" xMax="597" yMax="931">
      <component glyphName="L" x="0" y="0" flags="0x204"/>
      <component glyphName="acute" x="-66" y="184" flags="0x4"/>
    </TTGlyph>
    <TTGlyph name="Lcaron" xMin="78" yMin="0" xMax="597" yMax="723">
      <component glyphName="L" x="0" y="0" flags="0x4"/>
      <component glyphName="caronSlovak" x="307" y="0" flags="0x4"/>
    </TTGlyph>
    <TTGlyph name="Lcommaaccent" xMin="78" yMin="-305" xMax="597" yMax="700">
      <component glyphName="L" x="0" y="0" flags="0x204"/>
      <component glyphName="commaaccent" x="213" y="0" flags="0x4"/>
    </TTGlyph>
    <TTGlyph name="Ldot" xMin="78" yMin="0" xMax="597" yMax="700">
      <component glyphName="L" x="0" y="0" flags="0x204"/>
      <component glyphName="dotaccent" x="307" y="-310" flags="0x4"/>
    </TTGlyph>
    <TTGlyph name="Lslash" xMin="10" yMin="0" xMax="626" yMax="700">
      <contour>
        <pt x="107" y="0" on="1"/>
        <pt x="107" y="211" on="1"/>
        <pt x="10" y="154" on="1"/>
        <pt x="10" y="296" on="1"/>
        <pt x="107" y="353" on="1"/>
        <pt x="107" y="700" on="1"/>
        <pt x="279" y="700" on="1"/>
        <pt x="279" y="453" on="1"/>
        <pt x="432" y="543" on="1"/>
        <pt x="432" y="401" on="1"/>
        <pt x="279" y="311" on="1"/>
        <pt x="279" y="147" on="1"/>
        <pt x="626" y="147" on="1"/>
        <pt x="626" y="0" on="1"/>
      </contour>
    </TTGlyph>
    <TTGlyph name="M" xMin="78" yMin="0" xMax="847" yMax="700">
      <contour>
        <pt x="461" y="50" on="1"/>
        <pt x="236" y="479" on="1"/>
        <pt x="236" y="0" on="1"/>
        <pt x="78" y="0" on="1"/>
        <pt x="78" y="700" on="1"/>
        <pt x="294" y="700" on="1"/>
        <pt x="463" y="364" on="1"/>
        <pt x="631" y="700" on="1"/>
        <pt x="847" y="700" on="1"/>
        <pt x="847" y="0" on="1"/>
        <pt x="685" y="0" on="1"/>
        <pt x="685" y="475" on="1"/>
      </contour>
    </TTGlyph>
    <TTGlyph name="N" xMin="78" yMin="0" xMax="710" yMax="700">
      <contour>
        <pt x="78" y="700" on="1"/>
        <pt x="240" y="700" on="1"/>
        <pt x="551" y="276" on="1"/>
        <pt x="548" y="700" on="1"/>
        <pt x="710" y="700" on="1"/>
        <pt x="710" y="0" on="1"/>
        <pt x="558" y="0" on="1"/>
        <pt x="237" y="438" on="1"/>
        <pt x="240" y="0" on="1"/>
        <pt x="78" y="0" on="1"/>
      </contour>
    </TTGlyph>
    <TTGlyph name="Nacute" xMin="78" yMin="0" xMax="710" yMax="931">
      <component glyphName="N" x="0" y="0" flags="0x204"/>
      <component glyphName="acute" x="158" y="184" flags="0x4"/>
    </TTGlyph>
    <TTGlyph name="Ncaron" xMin="78" yMin="0" xMax="710" yMax="939">
      <component glyphName="N" x="0" y="0" flags="0x204"/>
      <component glyphName="caron" x="127" y="184" flags="0x4"/>
    </TTGlyph>
    <TTGlyph name="Ncommaaccent" xMin="78" yMin="-305" xMax="710" yMax="700">
      <component glyphName="N" x="0" y="0" flags="0x204"/>
      <component glyphName="commaaccent" x="240" y="0" flags="0x4"/>
    </TTGlyph>
    <TTGlyph name="Ntilde" xMin="78" yMin="0" xMax="710" yMax="944">
      <component glyphName="N" x="0" y="0" flags="0x204"/>
      <component glyphName="tilde" x="127" y="184" flags="0x4"/>
    </TTGlyph>
    <TTGlyph name="O" xMin="45" yMin="-11" xMax="768" yMax="711">
      <contour>
        <pt x="768" y="350" on="1"/>
        <pt x="768" y="275" on="0"/>
        <pt x="712" y="142" on="0"/>
        <pt x="615" y="45" on="0"/>
        <pt x="483" y="-11" on="0"/>
        <pt x="407" y="-11" on="1"/>
        <pt x="331" y="-11" on="0"/>
        <pt x="198" y="45" on="0"/>
        <pt x="101" y="142" on="0"/>
        <pt x="45" y="275" on="0"/>
        <pt x="45" y="350" on="1"/>
        <pt x="45" y="425" on="0"/>
        <pt x="101" y="558" on="0"/>
        <pt x="198" y="655" on="0"/>
        <pt x="331" y="711" on="0"/>
        <pt x="407" y="711" on="1"/>
        <pt x="483" y="711" on="0"/>
        <pt x="615" y="655" on="0"/>
        <pt x="712" y="558" on="0"/>
        <pt x="768" y="425" on="0"/>
      </contour>
      <contour>
        <pt x="590" y="350" on="1"/>
        <pt x="590" y="394" on="0"/>
        <pt x="562" y="471" on="0"/>
        <pt x="513" y="526" on="0"/>
        <pt x="445" y="558" on="0"/>
        <pt x="406" y="558" on="1"/>
        <pt x="367" y="558" on="0"/>
        <pt x="299" y="526" on="0"/>
        <pt x="250" y="471" on="0"/>
        <pt x="222" y="394" on="0"/>
        <pt x="222" y="350" on="1"/>
        <pt x="222" y="306" on="0"/>
        <pt x="250" y="229" on="0"/>
        <pt x="299" y="174" on="0"/>
        <pt x="367" y="142" on="0"/>
        <pt x="406" y="142" on="1"/>
        <pt x="445" y="142" on="0"/>
        <pt x="513" y="174" on="0"/>
        <pt x="562" y="229" on="0"/>
        <pt x="590" y="306" on="0"/>
      </contour>
    </TTGlyph>
    <TTGlyph name="OE" xMin="45" yMin="0" xMax="1019" yMax="700">
      <contour>
        <pt x="401" y="0" on="1"/>
        <pt x="325" y="0" on="0"/>
        <pt x="193" y="53" on="0"/>
        <pt x="99" y="146" on="0"/>
        <pt x="45" y="275" on="0"/>
        <pt x="45" y="350" on="1"/>
        <pt x="45" y="425" on="0"/>
        <pt x="99" y="554" on="0"/>
        <pt x="193" y="647" on="0"/>
        <pt x="325" y="700" on="0"/>
        <pt x="401" y="700" on="1"/>
        <pt x="1019" y="700" on="1"/>
        <pt x="1019" y="551" on="1"/>
        <pt x="668" y="551" on="1"/>
        <pt x="687" y="523" on="0"/>
        <pt x="716" y="459" on="0"/>
        <pt x="723" y="425" on="1"/>
        <pt x="902" y="425" on="1"/>
        <pt x="902" y="281" on="1"/>
        <pt x="724" y="281" on="1"/>
        <pt x="717" y="245" on="0"/>
        <pt x="688" y="178" on="0"/>
        <pt x="667" y="149" on="1"/>
        <pt x="1019" y="149" on="1"/>
        <pt x="1019" y="0" on="1"/>
      </contour>
      <contour>
        <pt x="391" y="147" on="1"/>
        <pt x="428" y="147" on="0"/>
        <pt x="493" y="179" on="0"/>
        <pt x="541" y="233" on="0"/>
        <pt x="568" y="307" on="0"/>
        <pt x="568" y="350" on="1"/>
        <pt x="568" y="393" on="0"/>
        <pt x="541" y="467" on="0"/>
        <pt x="493" y="521" on="0"/>
        <pt x="428" y="553" on="0"/>
        <pt x="391" y="553" on="1"/>
        <pt x="354" y="553" on="0"/>
        <pt x="289" y="522" on="0"/>
        <pt x="241" y="467" on="0"/>
        <pt x="214" y="393" on="0"/>
        <pt x="214" y="350" on="1"/>
        <pt x="214" y="307" on="0"/>
        <pt x="241" y="233" on="0"/>
        <pt x="289" y="178" on="0"/>
        <pt x="354" y="147" on="0"/>
      </contour>
    </TTGlyph>
    <TTGlyph name="Oacute" xMin="45" yMin="-11" xMax="768" yMax="931">
      <component glyphName="O" x="0" y="0" flags="0x204"/>
      <component glyphName="acute" x="178" y="184" flags="0x4"/>
    </TTGlyph>
    <TTGlyph name="Obreve" xMin="45" yMin="-11" xMax="768" yMax="952">
      <component glyphName="O" x="0" y="0" flags="0x204"/>
      <component glyphName="breve" x="147" y="184" flags="0x4"/>
    </TTGlyph>
    <TTGlyph name="Ocircumflex" xMin="45" yMin="-11" xMax="768" yMax="934">
      <component glyphName="O" x="0" y="0" flags="0x204"/>
      <component glyphName="circumflex" x="147" y="184" flags="0x4"/>
    </TTGlyph>
    <TTGlyph name="Odieresis" xMin="45" yMin="-11" xMax="768" yMax="950">
      <component glyphName="O" x="0" y="0" flags="0x204"/>
      <component glyphName="dieresis" x="103" y="184" flags="0x4"/>
    </TTGlyph>
    <TTGlyph name="Ograve" xMin="45" yMin="-11" xMax="768" yMax="931">
      <component glyphName="O" x="0" y="0" flags="0x204"/>
      <component glyphName="grave" x="107" y="184" flags="0x4"/>
    </TTGlyph>
    <TTGlyph name="Ohungarumlaut" xMin="45" yMin="-11" xMax="768" yMax="930">
      <component glyphName="O" x="0" y="0" flags="0x204"/>
      <component glyphName="hungarumlaut" x="154" y="184" flags="0x4"/>
    </TTGlyph>
    <TTGlyph name="Omacron" xMin="45" yMin="-11" xMax="768" yMax="910">
      <component glyphName="O" x="0" y="0" flags="0x204"/>
      <component glyphName="macron" x="147" y="184" flags="0x4"/>
    </TTGlyph>
    <TTGlyph name="Oslash" xMin="37" yMin="-11" xMax="776" yMax="711">
      <contour>
        <pt x="177" y="-5" on="1"/>
        <pt x="37" y="-5" on="1"/>
        <pt x="134" y="110" on="1"/>
        <pt x="92" y="158" on="0"/>
        <pt x="45" y="281" on="0"/>
        <pt x="45" y="350" on="1"/>
        <pt x="45" y="425" on="0"/>
        <pt x="101" y="558" on="0"/>
        <pt x="198" y="655" on="0"/>
        <pt x="331" y="711" on="0"/>
        <pt x="407" y="711" on="1"/>
        <pt x="459" y="711" on="0"/>
        <pt x="556" y="684" on="0"/>
        <pt x="596" y="659" on="1"/>
        <pt x="635" y="705" on="1"/>
        <pt x="776" y="705" on="1"/>
        <pt x="679" y="590" on="1"/>
        <pt x="721" y="543" on="0"/>
        <pt x="768" y="419" on="0"/>
        <pt x="768" y="350" on="1"/>
        <pt x="768" y="275" on="0"/>
        <pt x="712" y="142" on="0"/>
        <pt x="615" y="45" on="0"/>
        <pt x="483" y="-11" on="0"/>
        <pt x="407" y="-11" on="1"/>
        <pt x="355" y="-11" on="0"/>
        <pt x="257" y="17" on="0"/>
        <pt x="216" y="42" on="1"/>
      </contour>
      <contour>
        <pt x="222" y="350" on="1"/>
        <pt x="222" y="320" on="0"/>
        <pt x="235" y="266" on="0"/>
        <pt x="246" y="243" on="1"/>
        <pt x="492" y="535" on="1"/>
        <pt x="473" y="546" on="0"/>
        <pt x="430" y="558" on="0"/>
        <pt x="406" y="558" on="1"/>
        <pt x="367" y="558" on="0"/>
        <pt x="299" y="526" on="0"/>
        <pt x="250" y="471" on="0"/>
        <pt x="222" y="394" on="0"/>
      </contour>
      <contour>
        <pt x="590" y="350" on="1"/>
        <pt x="590" y="379" on="0"/>
        <pt x="577" y="433" on="0"/>
        <pt x="566" y="456" on="1"/>
        <pt x="320" y="164" on="1"/>
        <pt x="339" y="154" on="0"/>
        <pt x="383" y="142" on="0"/>
        <pt x="406" y="142" on="1"/>
        <pt x="445" y="142" on="0"/>
        <pt x="513" y="174" on="0"/>
        <pt x="562" y="229" on="0"/>
        <pt x="590" y="306" on="0"/>
      </contour>
    </TTGlyph>
    <TTGlyph name="Otilde" xMin="45" yMin="-11" xMax="768" yMax="944">
      <component glyphName="O" x="0" y="0" flags="0x204"/>
      <component glyphName="tilde" x="147" y="184" flags="0x4"/>
    </TTGlyph>
    <TTGlyph name="P" xMin="78" yMin="0" xMax="667" yMax="700">
      <contour>
        <pt x="78" y="0" on="1"/>
        <pt x="78" y="700" on="1"/>
        <pt x="420" y="700" on="1"/>
        <pt x="476" y="700" on="0"/>
        <pt x="567" y="665" on="0"/>
        <pt x="632" y="604" on="0"/>
        <pt x="667" y="519" on="0"/>
        <pt x="667" y="469" on="1"/>
        <pt x="667" y="422" on="0"/>
        <pt x="632" y="339" on="0"/>
        <pt x="567" y="279" on="0"/>
        <pt x="476" y="244" on="0"/>
        <pt x="420" y="244" on="1"/>
        <pt x="250" y="244" on="1"/>
        <pt x="250" y="0" on="1"/>
      </contour>
      <contour>
        <pt x="390" y="558" on="1"/>
        <pt x="250" y="558" on="1"/>
        <pt x="250" y="381" on="1"/>
        <pt x="389" y="381" on="1"/>
        <pt x="441" y="381" on="0"/>
        <pt x="493" y="432" on="0"/>
        <pt x="493" y="470" on="1"/>
        <pt x="493" y="507" on="0"/>
        <pt x="441" y="558" on="0"/>
      </contour>
    </TTGlyph>
    <TTGlyph name="Q" xMin="45" yMin="-57" xMax="768" yMax="711">
      <contour>
        <pt x="768" y="350" on="1"/>
        <pt x="768" y="277" on="0"/>
        <pt x="715" y="148" on="0"/>
        <pt x="669" y="100" on="1"/>
        <pt x="730" y="27" on="1"/>
        <pt x="607" y="-57" on="1"/>
        <pt x="546" y="16" on="1"/>
        <pt x="515" y="3" on="0"/>
        <pt x="444" y="-11" on="0"/>
        <pt x="407" y="-11" on="1"/>
        <pt x="331" y="-11" on="0"/>
        <pt x="198" y="45" on="0"/>
        <pt x="101" y="142" on="0"/>
        <pt x="45" y="275" on="0"/>
        <pt x="45" y="350" on="1"/>
        <pt x="45" y="425" on="0"/>
        <pt x="101" y="558" on="0"/>
        <pt x="198" y="655" on="0"/>
        <pt x="331" y="711" on="0"/>
        <pt x="407" y="711" on="1"/>
        <pt x="483" y="711" on="0"/>
        <pt x="615" y="655" on="0"/>
        <pt x="712" y="558" on="0"/>
        <pt x="768" y="425" on="0"/>
      </contour>
      <contour>
        <pt x="502" y="301" on="1"/>
        <pt x="559" y="232" on="1"/>
        <pt x="574" y="257" on="0"/>
        <pt x="590" y="316" on="0"/>
        <pt x="590" y="350" on="1"/>
        <pt x="590" y="394" on="0"/>
        <pt x="562" y="471" on="0"/>
        <pt x="513" y="526" on="0"/>
        <pt x="445" y="558" on="0"/>
        <pt x="406" y="558" on="1"/>
        <pt x="367" y="558" on="0"/>
        <pt x="299" y="526" on="0"/>
        <pt x="250" y="471" on="0"/>
        <pt x="222" y="394" on="0"/>
        <pt x="222" y="350" on="1"/>
        <pt x="222" y="306" on="0"/>
        <pt x="250" y="229" on="0"/>
        <pt x="299" y="174" on="0"/>
        <pt x="367" y="142" on="0"/>
        <pt x="406" y="142" on="1"/>
        <pt x="414" y="142" on="0"/>
        <pt x="431" y="144" on="0"/>
        <pt x="439" y="145" on="1"/>
        <pt x="379" y="217" on="1"/>
      </contour>
    </TTGlyph>
    <TTGlyph name="R" xMin="78" yMin="0" xMax="682" yMax="700">
      <contour>
        <pt x="78" y="0" on="1"/>
        <pt x="78" y="700" on="1"/>
        <pt x="418" y="700" on="1"/>
        <pt x="472" y="700" on="0"/>
        <pt x="563" y="667" on="0"/>
        <pt x="628" y="608" on="0"/>
        <pt x="665" y="526" on="0"/>
        <pt x="665" y="477" on="1"/>
        <pt x="665" y="411" on="0"/>
        <pt x="594" y="307" on="0"/>
        <pt x="535" y="281" on="1"/>
        <pt x="682" y="0" on="1"/>
        <pt x="490" y="0" on="1"/>
        <pt x="363" y="257" on="1"/>
        <pt x="250" y="257" on="1"/>
        <pt x="250" y="0" on="1"/>
      </contour>
      <contour>
        <pt x="402" y="558" on="1"/>
        <pt x="250" y="558" on="1"/>
        <pt x="250" y="392" on="1"/>
        <pt x="402" y="392" on="1"/>
        <pt x="442" y="392" on="0"/>
        <pt x="491" y="438" on="0"/>
        <pt x="491" y="475" on="1"/>
        <pt x="491" y="512" on="0"/>
        <pt x="442" y="558" on="0"/>
      </contour>
    </TTGlyph>
    <TTGlyph name="Racute" xMin="78" yMin="0" xMax="682" yMax="931">
      <component glyphName="R" x="0" y="0" flags="0x204"/>
      <component glyphName="acute" x="120" y="184" flags="0x4"/>
    </TTGlyph>
    <TTGlyph name="Rcaron" xMin="78" yMin="0" xMax="682" yMax="939">
      <component glyphName="R" x="0" y="0" flags="0x204"/>
      <component glyphName="caron" x="89" y="184" flags="0x4"/>
    </TTGlyph>
    <TTGlyph name="Rcommaaccent" xMin="78" yMin="-305" xMax="682" yMax="700">
      <component glyphName="R" x="0" y="0" flags="0x204"/>
      <component glyphName="commaaccent" x="208" y="0" flags="0x4"/>
    </TTGlyph>
    <TTGlyph name="S" xMin="19" yMin="-10" xMax="621" yMax="710">
      <contour>
        <pt x="19" y="96" on="1"/>
        <pt x="107" y="223" on="1"/>
        <pt x="179" y="172" on="0"/>
        <pt x="283" y="130" on="0"/>
        <pt x="334" y="130" on="1"/>
        <pt x="389" y="130" on="0"/>
        <pt x="453" y="171" on="0"/>
        <pt x="453" y="203" on="1"/>
        <pt x="453" y="234" on="0"/>
        <pt x="412" y="266" on="0"/>
        <pt x="361" y="276" on="1"/>
        <pt x="212" y="302" on="1"/>
        <pt x="129" y="318" on="0"/>
        <pt x="40" y="416" on="0"/>
        <pt x="40" y="489" on="1"/>
        <pt x="40" y="590" on="0"/>
        <pt x="188" y="710" on="0"/>
        <pt x="318" y="710" on="1"/>
        <pt x="399" y="710" on="0"/>
        <pt x="551" y="661" on="0"/>
        <pt x="605" y="618" on="1"/>
        <pt x="518" y="493" on="1"/>
        <pt x="467" y="532" on="0"/>
        <pt x="364" y="570" on="0"/>
        <pt x="309" y="570" on="1"/>
        <pt x="258" y="570" on="0"/>
        <pt x="202" y="532" on="0"/>
        <pt x="202" y="504" on="1"/>
        <pt x="202" y="478" on="0"/>
        <pt x="239" y="448" on="0"/>
        <pt x="281" y="441" on="1"/>
        <pt x="421" y="417" on="1"/>
        <pt x="519" y="400" on="0"/>
        <pt x="621" y="299" on="0"/>
        <pt x="621" y="219" on="1"/>
        <pt x="621" y="118" on="0"/>
        <pt x="459" y="-10" on="0"/>
        <pt x="322" y="-10" on="1"/>
        <pt x="239" y="-10" on="0"/>
        <pt x="88" y="45" on="0"/>
      </contour>
    </TTGlyph>
    <TTGlyph name="Sacute" xMin="19" yMin="-10" xMax="621" yMax="931">
      <component glyphName="S" x="0" y="0" flags="0x204"/>
      <component glyphName="acute" x="80" y="184" flags="0x4"/>
    </TTGlyph>
    <TTGlyph name="Scaron" xMin="19" yMin="-10" xMax="621" yMax="939">
      <component glyphName="S" x="0" y="0" flags="0x204"/>
      <component glyphName="caron" x="49" y="184" flags="0x4"/>
    </TTGlyph>
    <TTGlyph name="Scedilla" xMin="19" yMin="-254" xMax="621" yMax="710">
      <contour>
        <pt x="19" y="96" on="1"/>
        <pt x="107" y="223" on="1"/>
        <pt x="179" y="172" on="0"/>
        <pt x="283" y="130" on="0"/>
        <pt x="334" y="130" on="1"/>
        <pt x="389" y="130" on="0"/>
        <pt x="453" y="171" on="0"/>
        <pt x="453" y="203" on="1"/>
        <pt x="453" y="234" on="0"/>
        <pt x="412" y="266" on="0"/>
        <pt x="361" y="276" on="1"/>
        <pt x="212" y="302" on="1"/>
        <pt x="129" y="318" on="0"/>
        <pt x="40" y="416" on="0"/>
        <pt x="40" y="489" on="1"/>
        <pt x="40" y="590" on="0"/>
        <pt x="188" y="710" on="0"/>
        <pt x="318" y="710" on="1"/>
        <pt x="399" y="710" on="0"/>
        <pt x="551" y="661" on="0"/>
        <pt x="605" y="618" on="1"/>
        <pt x="518" y="493" on="1"/>
        <pt x="467" y="532" on="0"/>
        <pt x="364" y="570" on="0"/>
        <pt x="309" y="570" on="1"/>
        <pt x="258" y="570" on="0"/>
        <pt x="202" y="532" on="0"/>
        <pt x="202" y="504" on="1"/>
        <pt x="202" y="478" on="0"/>
        <pt x="239" y="448" on="0"/>
        <pt x="281" y="441" on="1"/>
        <pt x="421" y="417" on="1"/>
        <pt x="519" y="400" on="0"/>
        <pt x="621" y="299" on="0"/>
        <pt x="621" y="219" on="1"/>
        <pt x="621" y="123" on="0"/>
        <pt x="475" y="-2" on="0"/>
        <pt x="351" y="-9" on="1"/>
        <pt x="339" y="-58" on="1"/>
        <pt x="386" y="-62" on="0"/>
        <pt x="441" y="-107" on="0"/>
        <pt x="441" y="-144" on="1"/>
        <pt x="441" y="-190" on="0"/>
        <pt x="365" y="-254" on="0"/>
        <pt x="309" y="-254" on="1"/>
        <pt x="265" y="-254" on="0"/>
        <pt x="198" y="-233" on="0"/>
        <pt x="174" y="-212" on="1"/>
        <pt x="223" y="-155" on="1"/>
        <pt x="240" y="-168" on="0"/>
        <pt x="281" y="-183" on="0"/>
        <pt x="300" y="-183" on="1"/>
        <pt x="326" y="-183" on="0"/>
        <pt x="354" y="-164" on="0"/>
        <pt x="354" y="-146" on="1"/>
        <pt x="354" y="-130" on="0"/>
        <pt x="324" y="-111" on="0"/>
        <pt x="298" y="-111" on="1"/>
        <pt x="253" y="-111" on="1"/>
        <pt x="278" y="-8" on="1"/>
        <pt x="209" y="-2" on="0"/>
        <pt x="79" y="51" on="0"/>
      </contour>
    </TTGlyph>
    <TTGlyph name="Scircumflex" xMin="19" yMin="-10" xMax="621" yMax="934">
      <component glyphName="S" x="0" y="0" flags="0x204"/>
      <component glyphName="circumflex" x="49" y="184" flags="0x4"/>
    </TTGlyph>
    <TTGlyph name="Scommaaccent" xMin="19" yMin="-305" xMax="621" yMax="710">
      <component glyphName="S" x="0" y="0" flags="0x204"/>
      <component glyphName="commaaccent" x="172" y="0" flags="0x4"/>
    </TTGlyph>
    <TTGlyph name="T" xMin="21" yMin="0" xMax="644" yMax="700">
      <contour>
        <pt x="21" y="553" on="1"/>
        <pt x="21" y="700" on="1"/>
        <pt x="644" y="700" on="1"/>
        <pt x="644" y="553" on="1"/>
        <pt x="419" y="553" on="1"/>
        <pt x="419" y="0" on="1"/>
        <pt x="247" y="0" on="1"/>
        <pt x="247" y="553" on="1"/>
      </contour>
    </TTGlyph>
    <TTGlyph name="Tbar" xMin="21" yMin="0" xMax="644" yMax="700">
      <contour>
        <pt x="125" y="399" on="1"/>
        <pt x="247" y="399" on="1"/>
        <pt x="247" y="553" on="1"/>
        <pt x="21" y="553" on="1"/>
        <pt x="21" y="700" on="1"/>
        <pt x="644" y="700" on="1"/>
        <pt x="644" y="553" on="1"/>
        <pt x="419" y="553" on="1"/>
        <pt x="419" y="399" on="1"/>
        <pt x="541" y="399" on="1"/>
        <pt x="541" y="274" on="1"/>
        <pt x="419" y="274" on="1"/>
        <pt x="419" y="0" on="1"/>
        <pt x="247" y="0" on="1"/>
        <pt x="247" y="274" on="1"/>
        <pt x="125" y="274" on="1"/>
      </contour>
    </TTGlyph>
    <TTGlyph name="Tcaron" xMin="21" yMin="0" xMax="644" yMax="939">
      <component glyphName="T" x="0" y="0" flags="0x204"/>
      <component glyphName="caron" x="73" y="184" flags="0x4"/>
    </TTGlyph>
    <TTGlyph name="Tcedilla" xMin="21" yMin="-254" xMax="644" yMax="700">
      <contour>
        <pt x="21" y="553" on="1"/>
        <pt x="21" y="700" on="1"/>
        <pt x="644" y="700" on="1"/>
        <pt x="644" y="553" on="1"/>
        <pt x="419" y="553" on="1"/>
        <pt x="419" y="0" on="1"/>
        <pt x="367" y="0" on="1"/>
        <pt x="353" y="-58" on="1"/>
        <pt x="400" y="-62" on="0"/>
        <pt x="455" y="-107" on="0"/>
        <pt x="455" y="-144" on="1"/>
        <pt x="455" y="-190" on="0"/>
        <pt x="379" y="-254" on="0"/>
        <pt x="323" y="-254" on="1"/>
        <pt x="279" y="-254" on="0"/>
        <pt x="212" y="-233" on="0"/>
        <pt x="188" y="-212" on="1"/>
        <pt x="237" y="-155" on="1"/>
        <pt x="254" y="-168" on="0"/>
        <pt x="295" y="-183" on="0"/>
        <pt x="314" y="-183" on="1"/>
        <pt x="340" y="-183" on="0"/>
        <pt x="368" y="-164" on="0"/>
        <pt x="368" y="-146" on="1"/>
        <pt x="368" y="-130" on="0"/>
        <pt x="338" y="-111" on="0"/>
        <pt x="312" y="-111" on="1"/>
        <pt x="267" y="-111" on="1"/>
        <pt x="294" y="0" on="1"/>
        <pt x="247" y="0" on="1"/>
        <pt x="247" y="553" on="1"/>
      </contour>
    </TTGlyph>
    <TTGlyph name="Thorn" xMin="78" yMin="0" xMax="667" yMax="700">
      <contour>
        <pt x="78" y="0" on="1"/>
        <pt x="78" y="700" on="1"/>
        <pt x="250" y="700" on="1"/>
        <pt x="250" y="578" on="1"/>
        <pt x="420" y="578" on="1"/>
        <pt x="476" y="578" on="0"/>
        <pt x="567" y="543" on="0"/>
        <pt x="632" y="482" on="0"/>
        <pt x="667" y="397" on="0"/>
        <pt x="667" y="347" on="1"/>
        <pt x="667" y="300" on="0"/>
        <pt x="632" y="217" on="0"/>
        <pt x="567" y="157" on="0"/>
        <pt x="476" y="122" on="0"/>
        <pt x="420" y="122" on="1"/>
        <pt x="250" y="122" on="1"/>
        <pt x="250" y="0" on="1"/>
      </contour>
      <contour>
        <pt x="390" y="436" on="1"/>
        <pt x="250" y="436" on="1"/>
        <pt x="250" y="259" on="1"/>
        <pt x="389" y="259" on="1"/>
        <pt x="441" y="259" on="0"/>
        <pt x="493" y="310" on="0"/>
        <pt x="493" y="348" on="1"/>
        <pt x="493" y="385" on="0"/>
        <pt x="441" y="436" on="0"/>
      </contour>
    </TTGlyph>
    <TTGlyph name="U" xMin="64" yMin="-10" xMax="685" yMax="700">
      <contour>
        <pt x="685" y="304" on="1"/>
        <pt x="685" y="233" on="0"/>
        <pt x="641" y="117" on="0"/>
        <pt x="560" y="35" on="0"/>
        <pt x="445" y="-10" on="0"/>
        <pt x="374" y="-10" on="1"/>
        <pt x="303" y="-10" on="0"/>
        <pt x="188" y="34" on="0"/>
        <pt x="108" y="116" on="0"/>
        <pt x="64" y="232" on="0"/>
        <pt x="64" y="304" on="1"/>
        <pt x="64" y="700" on="1"/>
        <pt x="236" y="700" on="1"/>
        <pt x="236" y="304" on="1"/>
        <pt x="236" y="232" on="0"/>
        <pt x="312" y="144" on="0"/>
        <pt x="375" y="144" on="1"/>
        <pt x="438" y="144" on="0"/>
        <pt x="513" y="232" on="0"/>
        <pt x="513" y="304" on="1"/>
        <pt x="513" y="700" on="1"/>
        <pt x="685" y="700" on="1"/>
      </contour>
    </TTGlyph>
    <TTGlyph name="Uacute" xMin="64" yMin="-10" xMax="685" yMax="931">
      <component glyphName="U" x="0" y="0" flags="0x204"/>
      <component glyphName="acute" x="141" y="184" flags="0x4"/>
    </TTGlyph>
    <TTGlyph name="Ubreve" xMin="64" yMin="-10" xMax="685" yMax="952">
      <component glyphName="U" x="0" y="0" flags="0x204"/>
      <component glyphName="breve" x="110" y="184" flags="0x4"/>
    </TTGlyph>
    <TTGlyph name="Ucircumflex" xMin="64" yMin="-10" xMax="685" yMax="934">
      <component glyphName="U" x="0" y="0" flags="0x204"/>
      <component glyphName="circumflex" x="110" y="184" flags="0x4"/>
    </TTGlyph>
    <TTGlyph name="Udieresis" xMin="64" yMin="-10" xMax="685" yMax="950">
      <component glyphName="U" x="0" y="0" flags="0x204"/>
      <component glyphName="dieresis" x="66" y="184" flags="0x4"/>
    </TTGlyph>
    <TTGlyph name="Ugrave" xMin="64" yMin="-10" xMax="685" yMax="931">
      <component glyphName="U" x="0" y="0" flags="0x204"/>
      <component glyphName="grave" x="70" y="184" flags="0x4"/>
    </TTGlyph>
    <TTGlyph name="Uhungarumlaut" xMin="64" yMin="-10" xMax="685" yMax="930">
      <component glyphName="U" x="0" y="0" flags="0x204"/>
      <component glyphName="hungarumlaut" x="117" y="184" flags="0x4"/>
    </TTGlyph>
    <TTGlyph name="Umacron" xMin="64" yMin="-10" xMax="685" yMax="910">
      <component glyphName="U" x="0" y="0" flags="0x204"/>
      <component glyphName="macron" x="110" y="184" flags="0x4"/>
    </TTGlyph>
    <TTGlyph name="Uogonek" xMin="64" yMin="-231" xMax="685" yMax="700">
      <contour>
        <pt x="685" y="304" on="1"/>
        <pt x="685" y="180" on="0"/>
        <pt x="554" y="15" on="0"/>
        <pt x="442" y="-4" on="1"/>
        <pt x="402" y="-29" on="0"/>
        <pt x="364" y="-77" on="0"/>
        <pt x="364" y="-103" on="1"/>
        <pt x="364" y="-125" on="0"/>
        <pt x="391" y="-149" on="0"/>
        <pt x="413" y="-149" on="1"/>
        <pt x="426" y="-149" on="0"/>
        <pt x="451" y="-143" on="0"/>
        <pt x="458" y="-138" on="1"/>
        <pt x="478" y="-208" on="1"/>
        <pt x="462" y="-218" on="0"/>
        <pt x="412" y="-231" on="0"/>
        <pt x="385" y="-231" on="1"/>
        <pt x="336" y="-231" on="0"/>
        <pt x="277" y="-176" on="0"/>
        <pt x="277" y="-132" on="1"/>
        <pt x="277" y="-98" on="0"/>
        <pt x="313" y="-37" on="0"/>
        <pt x="352" y="-9" on="1"/>
        <pt x="221" y="-2" on="0"/>
        <pt x="64" y="167" on="0"/>
        <pt x="64" y="304" on="1"/>
        <pt x="64" y="700" on="1"/>
        <pt x="236" y="700" on="1"/>
        <pt x="236" y="304" on="1"/>
        <pt x="236" y="232" on="0"/>
        <pt x="312" y="144" on="0"/>
        <pt x="375" y="144" on="1"/>
        <pt x="438" y="144" on="0"/>
        <pt x="513" y="232" on="0"/>
        <pt x="513" y="304" on="1"/>
        <pt x="513" y="700" on="1"/>
        <pt x="685" y="700" on="1"/>
      </contour>
    </TTGlyph>
    <TTGlyph name="Uring" xMin="64" yMin="-10" xMax="685" yMax="1018">
      <component glyphName="U" x="0" y="0" flags="0x204"/>
      <component glyphName="ring" x="110" y="184" flags="0x4"/>
    </TTGlyph>
    <TTGlyph name="Utilde" xMin="64" yMin="-10" xMax="685" yMax="944">
      <component glyphName="U" x="0" y="0" flags="0x204"/>
      <component glyphName="tilde" x="110" y="184" flags="0x4"/>
    </TTGlyph>
    <TTGlyph name="V" xMin="2" yMin="0" xMax="740" yMax="700">
      <contour>
        <pt x="271" y="0" on="1"/>
        <pt x="2" y="700" on="1"/>
        <pt x="188" y="700" on="1"/>
        <pt x="373" y="179" on="1"/>
        <pt x="561" y="700" on="1"/>
        <pt x="740" y="700" on="1"/>
        <pt x="467" y="0" on="1"/>
      </contour>
    </TTGlyph>
    <TTGlyph name="W" xMin="30" yMin="0" xMax="953" yMax="700">
      <contour>
        <pt x="368" y="0" on="1"/>
        <pt x="186" y="0" on="1"/>
        <pt x="30" y="700" on="1"/>
        <pt x="207" y="700" on="1"/>
        <pt x="292" y="266" on="1"/>
        <pt x="414" y="700" on="1"/>
        <pt x="575" y="700" on="1"/>
        <pt x="697" y="266" on="1"/>
        <pt x="782" y="700" on="1"/>
        <pt x="953" y="700" on="1"/>
        <pt x="797" y="0" on="1"/>
        <pt x="615" y="0" on="1"/>
        <pt x="492" y="451" on="1"/>
      </contour>
    </TTGlyph>
    <TTGlyph name="Wacute" xMin="30" yMin="0" xMax="953" yMax="931">
      <component glyphName="W" x="0" y="0" flags="0x204"/>
      <component glyphName="acute" x="261" y="184" flags="0x4"/>
    </TTGlyph>
    <TTGlyph name="Wcircumflex" xMin="30" yMin="0" xMax="953" yMax="934">
      <component glyphName="W" x="0" y="0" flags="0x204"/>
      <component glyphName="circumflex" x="230" y="184" flags="0x4"/>
    </TTGlyph>
    <TTGlyph name="Wdieresis" xMin="30" yMin="0" xMax="953" yMax="950">
      <component glyphName="W" x="0" y="0" flags="0x204"/>
      <component glyphName="dieresis" x="186" y="184" flags="0x4"/>
    </TTGlyph>
    <TTGlyph name="Wgrave" xMin="30" yMin="0" xMax="953" yMax="931">
      <component glyphName="W" x="0" y="0" flags="0x204"/>
      <component glyphName="grave" x="190" y="184" flags="0x4"/>
    </TTGlyph>
    <TTGlyph name="X" xMin="10" yMin="0" xMax="745" yMax="700">
      <contour>
        <pt x="207" y="0" on="1"/>
        <pt x="10" y="0" on="1"/>
        <pt x="277" y="361" on="1"/>
        <pt x="22" y="700" on="1"/>
        <pt x="227" y="700" on="1"/>
        <pt x="377" y="488" on="1"/>
        <pt x="527" y="700" on="1"/>
        <pt x="724" y="700" on="1"/>
        <pt x="474" y="361" on="1"/>
        <pt x="745" y="0" on="1"/>
        <pt x="540" y="0" on="1"/>
        <pt x="374" y="236" on="1"/>
      </contour>
    </TTGlyph>
    <TTGlyph name="Y" xMin="-1" yMin="0" xMax="740" yMax="700">
      <contour>
        <pt x="283" y="0" on="1"/>
        <pt x="283" y="265" on="1"/>
        <pt x="-1" y="700" on="1"/>
        <pt x="197" y="700" on="1"/>
        <pt x="374" y="413" on="1"/>
        <pt x="553" y="700" on="1"/>
        <pt x="740" y="700" on="1"/>
        <pt x="455" y="266" on="1"/>
        <pt x="455" y="0" on="1"/>
      </contour>
    </TTGlyph>
    <TTGlyph name="Yacute" xMin="-1" yMin="0" xMax="740" yMax="931">
      <component glyphName="Y" x="0" y="0" flags="0x204"/>
      <component glyphName="acute" x="133" y="184" flags="0x4"/>
    </TTGlyph>
    <TTGlyph name="Ycircumflex" xMin="-1" yMin="0" xMax="740" yMax="934">
      <component glyphName="Y" x="0" y="0" flags="0x204"/>
      <component glyphName="circumflex" x="102" y="184" flags="0x4"/>
    </TTGlyph>
    <TTGlyph name="Ydieresis" xMin="-1" yMin="0" xMax="740" yMax="950">
      <component glyphName="Y" x="0" y="0" flags="0x204"/>
      <component glyphName="dieresis" x="58" y="184" flags="0x4"/>
    </TTGlyph>
    <TTGlyph name="Ygrave" xMin="-1" yMin="0" xMax="740" yMax="931">
      <component glyphName="Y" x="0" y="0" flags="0x204"/>
      <component glyphName="grave" x="62" y="184" flags="0x4"/>
    </TTGlyph>
    <TTGlyph name="Z" xMin="29" yMin="0" xMax="599" yMax="700">
      <contour>
        <pt x="29" y="0" on="1"/>
        <pt x="29" y="112" on="1"/>
        <pt x="376" y="559" on="1"/>
        <pt x="31" y="556" on="1"/>
        <pt x="31" y="700" on="1"/>
        <pt x="596" y="700" on="1"/>
        <pt x="596" y="588" on="1"/>
        <pt x="251" y="141" on="1"/>
        <pt x="599" y="144" on="1"/>
        <pt x="599" y="0" on="1"/>
      </contour>
    </TTGlyph>
    <TTGlyph name="Zacute" xMin="29" yMin="0" xMax="599" yMax="931">
      <component glyphName="Z" x="0" y="0" flags="0x204"/>
      <component glyphName="acute" x="86" y="184" flags="0x4"/>
    </TTGlyph>
    <TTGlyph name="Zcaron" xMin="29" yMin="0" xMax="599" yMax="939">
      <component glyphName="Z" x="0" y="0" flags="0x204"/>
      <component glyphName="caron" x="55" y="184" flags="0x4"/>
    </TTGlyph>
    <TTGlyph name="Zdotaccent" xMin="29" yMin="0" xMax="599" yMax="950">
      <component glyphName="Z" x="0" y="0" flags="0x204"/>
      <component glyphName="dotaccent" x="158" y="184" flags="0x4"/>
    </TTGlyph>
    <TTGlyph name="a" xMin="39" yMin="-8" xMax="520" yMax="524">
      <contour>
        <pt x="217" y="-8" on="1"/>
        <pt x="139" y="-8" on="0"/>
        <pt x="39" y="79" on="0"/>
        <pt x="39" y="148" on="1"/>
        <pt x="39" y="219" on="0"/>
        <pt x="145" y="298" on="0"/>
        <pt x="240" y="298" on="1"/>
        <pt x="268" y="298" on="0"/>
        <pt x="326" y="287" on="0"/>
        <pt x="360" y="274" on="1"/>
        <pt x="360" y="316" on="1"/>
        <pt x="360" y="353" on="0"/>
        <pt x="309" y="391" on="0"/>
        <pt x="258" y="391" on="1"/>
        <pt x="229" y="391" on="0"/>
        <pt x="158" y="374" on="0"/>
        <pt x="113" y="355" on="1"/>
        <pt x="57" y="468" on="1"/>
        <pt x="120" y="496" on="0"/>
        <pt x="237" y="524" on="0"/>
        <pt x="294" y="524" on="1"/>
        <pt x="401" y="524" on="0"/>
        <pt x="520" y="422" on="0"/>
        <pt x="520" y="330" on="1"/>
        <pt x="520" y="0" on="1"/>
        <pt x="360" y="0" on="1"/>
        <pt x="360" y="45" on="1"/>
        <pt x="326" y="17" on="0"/>
        <pt x="258" y="-8" on="0"/>
      </contour>
      <contour>
        <pt x="188" y="151" on="1"/>
        <pt x="188" y="126" on="0"/>
        <pt x="230" y="99" on="0"/>
        <pt x="267" y="99" on="1"/>
        <pt x="292" y="99" on="0"/>
        <pt x="339" y="112" on="0"/>
        <pt x="360" y="125" on="1"/>
        <pt x="360" y="191" on="1"/>
        <pt x="338" y="196" on="0"/>
        <pt x="293" y="202" on="0"/>
        <pt x="271" y="202" on="1"/>
        <pt x="231" y="202" on="0"/>
        <pt x="188" y="176" on="0"/>
      </contour>
    </TTGlyph>
    <TTGlyph name="a.school" xMin="40" yMin="-3" xMax="580" yMax="519">
      <contour>
        <pt x="420" y="0" on="1"/>
        <pt x="420" y="67" on="1"/>
        <pt x="395" y="35" on="0"/>
        <pt x="314" y="-3" on="0"/>
        <pt x="268" y="-3" on="1"/>
        <pt x="221" y="-3" on="0"/>
        <pt x="137" y="38" on="0"/>
        <pt x="76" y="109" on="0"/>
        <pt x="40" y="205" on="0"/>
        <pt x="40" y="259" on="1"/>
        <pt x="40" y="313" on="0"/>
        <pt x="77" y="408" on="0"/>
        <pt x="142" y="478" on="0"/>
        <pt x="230" y="519" on="0"/>
        <pt x="280" y="519" on="1"/>
        <pt x="320" y="519" on="0"/>
        <pt x="392" y="487" on="0"/>
        <pt x="418" y="457" on="1"/>
        <pt x="418" y="516" on="1"/>
        <pt x="580" y="516" on="1"/>
        <pt x="580" y="0" on="1"/>
      </contour>
      <contour>
        <pt x="199" y="258" on="1"/>
        <pt x="199" y="204" on="0"/>
        <pt x="270" y="131" on="0"/>
        <pt x="322" y="131" on="1"/>
        <pt x="351" y="131" on="0"/>
        <pt x="399" y="152" on="0"/>
        <pt x="418" y="172" on="1"/>
        <pt x="418" y="346" on="1"/>
        <pt x="399" y="365" on="0"/>
        <pt x="350" y="386" on="0"/>
        <pt x="322" y="386" on="1"/>
        <pt x="269" y="386" on="0"/>
        <pt x="199" y="313" on="0"/>
      </contour>
    </TTGlyph>
    <TTGlyph name="aacute" xMin="39" yMin="-8" xMax="520" yMax="747">
      <component glyphName="a" x="0" y="0" flags="0x204"/>
      <component glyphName="acute" x="49" y="0" flags="0x4"/>
    </TTGlyph>
    <TTGlyph name="aacute.school" xMin="40" yMin="-3" xMax="580" yMax="747">
      <component glyphName="a.school" x="0" y="0" flags="0x204"/>
      <component glyphName="acute" x="94" y="0" flags="0x4"/>
    </TTGlyph>
    <TTGlyph name="abreve" xMin="39" yMin="-8" xMax="520" yMax="768">
      <component glyphName="a" x="0" y="0" flags="0x204"/>
      <component glyphName="breve" x="18" y="0" flags="0x4"/>
    </TTGlyph>
    <TTGlyph name="abreve.school" xMin="40" yMin="-3" xMax="580" yMax="768">
      <component glyphName="a.school" x="0" y="0" flags="0x204"/>
      <component glyphName="breve" x="63" y="0" flags="0x4"/>
    </TTGlyph>
    <TTGlyph name="acircumflex" xMin="39" yMin="-8" xMax="520" yMax="750">
      <component glyphName="a" x="0" y="0" flags="0x204"/>
      <component glyphName="circumflex" x="18" y="0" flags="0x4"/>
    </TTGlyph>
    <TTGlyph name="acircumflex.school" xMin="40" yMin="-3" xMax="580" yMax="750">
      <component glyphName="a.school" x="0" y="0" flags="0x204"/>
      <component glyphName="circumflex" x="63" y="0" flags="0x4"/>
    </TTGlyph>
    <TTGlyph name="acute" xMin="139" yMin="601" xMax="470" yMax="747">
      <contour>
        <pt x="277" y="747" on="1"/>
        <pt x="470" y="747" on="1"/>
        <pt x="278" y="601" on="1"/>
        <pt x="139" y="601" on="1"/>
      </contour>
    </TTGlyph>
    <TTGlyph name="adieresis" xMin="39" yMin="-8" xMax="520" yMax="766">
      <component glyphName="a" x="0" y="0" flags="0x204"/>
      <component glyphName="dieresis" x="-26" y="0" flags="0x4"/>
    </TTGlyph>
    <TTGlyph name="adieresis.school" xMin="40" yMin="-3" xMax="580" yMax="766">
      <component glyphName="a.school" x="0" y="0" flags="0x204"/>
      <component glyphName="dieresis" x="19" y="0" flags="0x4"/>
    </TTGlyph>
    <TTGlyph name="ae" xMin="41" yMin="-10" xMax="874" yMax="525">
      <contour>
        <pt x="223" y="-8" on="1"/>
        <pt x="142" y="-8" on="0"/>
        <pt x="41" y="81" on="0"/>
        <pt x="41" y="151" on="1"/>
        <pt x="41" y="220" on="0"/>
        <pt x="146" y="298" on="0"/>
        <pt x="240" y="298" on="1"/>
        <pt x="268" y="298" on="0"/>
        <pt x="326" y="287" on="0"/>
        <pt x="360" y="275" on="1"/>
        <pt x="360" y="316" on="1"/>
        <pt x="360" y="353" on="0"/>
        <pt x="309" y="391" on="0"/>
        <pt x="258" y="391" on="1"/>
        <pt x="229" y="391" on="0"/>
        <pt x="158" y="374" on="0"/>
        <pt x="113" y="355" on="1"/>
        <pt x="57" y="468" on="1"/>
        <pt x="120" y="496" on="0"/>
        <pt x="237" y="524" on="0"/>
        <pt x="294" y="524" on="1"/>
        <pt x="347" y="524" on="0"/>
        <pt x="429" y="493" on="0"/>
        <pt x="455" y="464" on="1"/>
        <pt x="488" y="492" on="0"/>
        <pt x="572" y="525" on="0"/>
        <pt x="620" y="525" on="1"/>
        <pt x="676" y="525" on="0"/>
        <pt x="769" y="484" on="0"/>
        <pt x="836" y="412" on="0"/>
        <pt x="874" y="311" on="0"/>
        <pt x="874" y="251" on="1"/>
        <pt x="874" y="216" on="1"/>
        <pt x="519" y="216" on="1"/>
        <pt x="530" y="173" on="0"/>
        <pt x="596" y="119" on="0"/>
        <pt x="640" y="119" on="1"/>
        <pt x="672" y="119" on="0"/>
        <pt x="725" y="141" on="0"/>
        <pt x="742" y="162" on="1"/>
        <pt x="849" y="73" on="1"/>
        <pt x="799" y="29" on="0"/>
        <pt x="697" y="-10" on="0"/>
        <pt x="632" y="-10" on="1"/>
        <pt x="572" y="-10" on="0"/>
        <pt x="467" y="36" on="0"/>
        <pt x="430" y="76" on="1"/>
        <pt x="384" y="32" on="0"/>
        <pt x="286" y="-8" on="0"/>
      </contour>
      <contour>
        <pt x="619" y="399" on="1"/>
        <pt x="581" y="399" on="0"/>
        <pt x="529" y="351" on="0"/>
        <pt x="519" y="308" on="1"/>
        <pt x="724" y="308" on="1"/>
        <pt x="714" y="350" on="0"/>
        <pt x="658" y="399" on="0"/>
      </contour>
      <contour>
        <pt x="188" y="154" on="1"/>
        <pt x="188" y="129" on="0"/>
        <pt x="229" y="101" on="0"/>
        <pt x="266" y="101" on="1"/>
        <pt x="299" y="101" on="0"/>
        <pt x="361" y="126" on="0"/>
        <pt x="383" y="148" on="1"/>
        <pt x="379" y="158" on="0"/>
        <pt x="371" y="180" on="0"/>
        <pt x="368" y="191" on="1"/>
        <pt x="344" y="198" on="0"/>
        <pt x="295" y="205" on="0"/>
        <pt x="271" y="205" on="1"/>
        <pt x="231" y="205" on="0"/>
        <pt x="188" y="179" on="0"/>
      </contour>
    </TTGlyph>
    <TTGlyph name="agrave" xMin="24" yMin="-8" xMax="520" yMax="747">
      <component glyphName="a" x="0" y="0" flags="0x204"/>
      <component glyphName="grave" x="-22" y="0" flags="0x4"/>
    </TTGlyph>
    <TTGlyph name="agrave.school" xMin="40" yMin="-3" xMax="580" yMax="747">
      <component glyphName="a.school" x="0" y="0" flags="0x204"/>
      <component glyphName="grave" x="23" y="0" flags="0x4"/>
    </TTGlyph>
    <TTGlyph name="amacron" xMin="39" yMin="-8" xMax="520" yMax="726">
      <component glyphName="a" x="0" y="0" flags="0x204"/>
      <component glyphName="macron" x="18" y="0" flags="0x4"/>
    </TTGlyph>
    <TTGlyph name="amacron.school" xMin="40" yMin="-3" xMax="580" yMax="726">
      <component glyphName="a.school" x="0" y="0" flags="0x204"/>
      <component glyphName="macron" x="63" y="0" flags="0x4"/>
    </TTGlyph>
    <TTGlyph name="ampersand" xMin="24" yMin="-23" xMax="664" yMax="712">
      <contour>
        <pt x="664" y="91" on="1"/>
        <pt x="568" y="-23" on="1"/>
        <pt x="546" y="-7" on="0"/>
        <pt x="499" y="29" on="0"/>
        <pt x="477" y="48" on="1"/>
        <pt x="435" y="20" on="0"/>
        <pt x="334" y="-10" on="0"/>
        <pt x="277" y="-10" on="1"/>
        <pt x="164" y="-10" on="0"/>
        <pt x="24" y="101" on="0"/>
        <pt x="24" y="190" on="1"/>
        <pt x="24" y="254" on="0"/>
        <pt x="82" y="340" on="0"/>
        <pt x="152" y="380" on="1"/>
        <pt x="121" y="420" on="0"/>
        <pt x="96" y="490" on="0"/>
        <pt x="96" y="531" on="1"/>
        <pt x="96" y="609" on="0"/>
        <pt x="213" y="712" on="0"/>
        <pt x="302" y="712" on="1"/>
        <pt x="389" y="712" on="0"/>
        <pt x="504" y="613" on="0"/>
        <pt x="504" y="539" on="1"/>
        <pt x="504" y="494" on="0"/>
        <pt x="457" y="419" on="0"/>
        <pt x="410" y="391" on="1"/>
        <pt x="359" y="359" on="1"/>
        <pt x="384" y="334" on="0"/>
        <pt x="440" y="279" on="0"/>
        <pt x="470" y="252" on="1"/>
        <pt x="486" y="282" on="0"/>
        <pt x="511" y="355" on="0"/>
        <pt x="520" y="398" on="1"/>
        <pt x="658" y="375" on="1"/>
        <pt x="642" y="309" on="0"/>
        <pt x="601" y="202" on="0"/>
        <pt x="574" y="161" on="1"/>
        <pt x="597" y="142" on="0"/>
        <pt x="643" y="107" on="0"/>
      </contour>
      <contour>
        <pt x="240" y="534" on="1"/>
        <pt x="240" y="516" on="0"/>
        <pt x="258" y="478" on="0"/>
        <pt x="282" y="450" on="1"/>
        <pt x="317" y="471" on="1"/>
        <pt x="339" y="485" on="0"/>
        <pt x="359" y="515" on="0"/>
        <pt x="359" y="534" on="1"/>
        <pt x="359" y="559" on="0"/>
        <pt x="323" y="594" on="0"/>
        <pt x="298" y="594" on="1"/>
        <pt x="273" y="594" on="0"/>
        <pt x="240" y="560" on="0"/>
      </contour>
      <contour>
        <pt x="173" y="203" on="1"/>
        <pt x="173" y="163" on="0"/>
        <pt x="235" y="116" on="0"/>
        <pt x="289" y="116" on="1"/>
        <pt x="313" y="116" on="0"/>
        <pt x="356" y="126" on="0"/>
        <pt x="375" y="137" on="1"/>
        <pt x="336" y="173" on="0"/>
        <pt x="262" y="248" on="0"/>
        <pt x="229" y="285" on="1"/>
        <pt x="198" y="266" on="0"/>
        <pt x="173" y="228" on="0"/>
      </contour>
    </TTGlyph>
    <TTGlyph name="aogonek" xMin="39" yMin="-231" xMax="549" yMax="524">
      <contour>
        <pt x="217" y="-8" on="1"/>
        <pt x="139" y="-8" on="0"/>
        <pt x="39" y="79" on="0"/>
        <pt x="39" y="148" on="1"/>
        <pt x="39" y="219" on="0"/>
        <pt x="145" y="298" on="0"/>
        <pt x="240" y="298" on="1"/>
        <pt x="268" y="298" on="0"/>
        <pt x="326" y="287" on="0"/>
        <pt x="360" y="274" on="1"/>
        <pt x="360" y="316" on="1"/>
        <pt x="360" y="353" on="0"/>
        <pt x="309" y="391" on="0"/>
        <pt x="258" y="391" on="1"/>
        <pt x="229" y="391" on="0"/>
        <pt x="158" y="374" on="0"/>
        <pt x="113" y="355" on="1"/>
        <pt x="57" y="468" on="1"/>
        <pt x="120" y="496" on="0"/>
        <pt x="237" y="524" on="0"/>
        <pt x="294" y="524" on="1"/>
        <pt x="401" y="524" on="0"/>
        <pt x="520" y="422" on="0"/>
        <pt x="520" y="330" on="1"/>
        <pt x="520" y="0" on="1"/>
        <pt x="477" y="-26" on="0"/>
        <pt x="435" y="-76" on="0"/>
        <pt x="435" y="-103" on="1"/>
        <pt x="435" y="-125" on="0"/>
        <pt x="462" y="-149" on="0"/>
        <pt x="484" y="-149" on="1"/>
        <pt x="497" y="-149" on="0"/>
        <pt x="522" y="-143" on="0"/>
        <pt x="529" y="-138" on="1"/>
        <pt x="549" y="-208" on="1"/>
        <pt x="533" y="-218" on="0"/>
        <pt x="483" y="-231" on="0"/>
        <pt x="456" y="-231" on="1"/>
        <pt x="407" y="-231" on="0"/>
        <pt x="348" y="-176" on="0"/>
        <pt x="348" y="-132" on="1"/>
        <pt x="348" y="-95" on="0"/>
        <pt x="390" y="-31" on="0"/>
        <pt x="436" y="0" on="1"/>
        <pt x="360" y="0" on="1"/>
        <pt x="360" y="45" on="1"/>
        <pt x="326" y="17" on="0"/>
        <pt x="258" y="-8" on="0"/>
      </contour>
      <contour>
        <pt x="188" y="151" on="1"/>
        <pt x="188" y="126" on="0"/>
        <pt x="230" y="99" on="0"/>
        <pt x="267" y="99" on="1"/>
        <pt x="292" y="99" on="0"/>
        <pt x="339" y="112" on="0"/>
        <pt x="360" y="125" on="1"/>
        <pt x="360" y="191" on="1"/>
        <pt x="338" y="196" on="0"/>
        <pt x="293" y="202" on="0"/>
        <pt x="271" y="202" on="1"/>
        <pt x="231" y="202" on="0"/>
        <pt x="188" y="176" on="0"/>
      </contour>
    </TTGlyph>
    <TTGlyph name="aogonek.school" xMin="40" yMin="-231" xMax="609" yMax="519">
      <contour>
        <pt x="420" y="0" on="1"/>
        <pt x="420" y="67" on="1"/>
        <pt x="395" y="35" on="0"/>
        <pt x="314" y="-3" on="0"/>
        <pt x="268" y="-3" on="1"/>
        <pt x="221" y="-3" on="0"/>
        <pt x="137" y="38" on="0"/>
        <pt x="76" y="109" on="0"/>
        <pt x="40" y="205" on="0"/>
        <pt x="40" y="259" on="1"/>
        <pt x="40" y="313" on="0"/>
        <pt x="77" y="408" on="0"/>
        <pt x="142" y="478" on="0"/>
        <pt x="230" y="519" on="0"/>
        <pt x="280" y="519" on="1"/>
        <pt x="320" y="519" on="0"/>
        <pt x="392" y="487" on="0"/>
        <pt x="418" y="457" on="1"/>
        <pt x="418" y="516" on="1"/>
        <pt x="580" y="516" on="1"/>
        <pt x="580" y="0" on="1"/>
        <pt x="537" y="-26" on="0"/>
        <pt x="495" y="-76" on="0"/>
        <pt x="495" y="-103" on="1"/>
        <pt x="495" y="-125" on="0"/>
        <pt x="522" y="-149" on="0"/>
        <pt x="544" y="-149" on="1"/>
        <pt x="557" y="-149" on="0"/>
        <pt x="582" y="-143" on="0"/>
        <pt x="589" y="-138" on="1"/>
        <pt x="609" y="-208" on="1"/>
        <pt x="593" y="-218" on="0"/>
        <pt x="543" y="-231" on="0"/>
        <pt x="516" y="-231" on="1"/>
        <pt x="467" y="-231" on="0"/>
        <pt x="408" y="-176" on="0"/>
        <pt x="408" y="-132" on="1"/>
        <pt x="408" y="-95" on="0"/>
        <pt x="450" y="-31" on="0"/>
        <pt x="496" y="0" on="1"/>
      </contour>
      <contour>
        <pt x="199" y="258" on="1"/>
        <pt x="199" y="204" on="0"/>
        <pt x="270" y="131" on="0"/>
        <pt x="322" y="131" on="1"/>
        <pt x="351" y="131" on="0"/>
        <pt x="399" y="152" on="0"/>
        <pt x="418" y="172" on="1"/>
        <pt x="418" y="346" on="1"/>
        <pt x="399" y="365" on="0"/>
        <pt x="350" y="386" on="0"/>
        <pt x="322" y="386" on="1"/>
        <pt x="269" y="386" on="0"/>
        <pt x="199" y="313" on="0"/>
      </contour>
    </TTGlyph>
    <TTGlyph name="aring" xMin="39" yMin="-8" xMax="520" yMax="834">
      <component glyphName="a" x="0" y="0" flags="0x204"/>
      <component glyphName="ring" x="18" y="0" flags="0x4"/>
    </TTGlyph>
    <TTGlyph name="aring.school" xMin="40" yMin="-3" xMax="580" yMax="834">
      <component glyphName="a.school" x="0" y="0" flags="0x204"/>
      <component glyphName="ring" x="63" y="0" flags="0x4"/>
    </TTGlyph>
    <TTGlyph name="asciicircum" xMin="41" yMin="350" xMax="521" yMax="700">
      <contour>
        <pt x="41" y="350" on="1"/>
        <pt x="215" y="700" on="1"/>
        <pt x="347" y="700" on="1"/>
        <pt x="521" y="350" on="1"/>
        <pt x="396" y="350" on="1"/>
        <pt x="281" y="584" on="1"/>
        <pt x="166" y="350" on="1"/>
      </contour>
    </TTGlyph>
    <TTGlyph name="asciitilde" xMin="36" yMin="269" xMax="582" yMax="471">
      <contour>
        <pt x="274" y="448" on="1"/>
        <pt x="362" y="405" on="1"/>
        <pt x="382" y="395" on="0"/>
        <pt x="408" y="387" on="0"/>
        <pt x="418" y="387" on="1"/>
        <pt x="443" y="387" on="0"/>
        <pt x="472" y="424" on="0"/>
        <pt x="476" y="461" on="1"/>
        <pt x="582" y="449" on="1"/>
        <pt x="572" y="362" on="0"/>
        <pt x="495" y="269" on="0"/>
        <pt x="435" y="269" on="1"/>
        <pt x="413" y="269" on="0"/>
        <pt x="364" y="281" on="0"/>
        <pt x="343" y="292" on="1"/>
        <pt x="255" y="335" on="1"/>
        <pt x="234" y="345" on="0"/>
        <pt x="209" y="353" on="0"/>
        <pt x="199" y="353" on="1"/>
        <pt x="174" y="353" on="0"/>
        <pt x="146" y="316" on="0"/>
        <pt x="142" y="279" on="1"/>
        <pt x="36" y="291" on="1"/>
        <pt x="46" y="378" on="0"/>
        <pt x="122" y="471" on="0"/>
        <pt x="182" y="471" on="1"/>
        <pt x="205" y="471" on="0"/>
        <pt x="252" y="459" on="0"/>
      </contour>
    </TTGlyph>
    <TTGlyph name="asterisk" xMin="51" yMin="306" xMax="444" yMax="700">
      <contour>
        <pt x="387" y="351" on="1"/>
        <pt x="294" y="412" on="1"/>
        <pt x="296" y="306" on="1"/>
        <pt x="198" y="306" on="1"/>
        <pt x="200" y="412" on="1"/>
        <pt x="106" y="351" on="1"/>
        <pt x="53" y="438" on="1"/>
        <pt x="156" y="501" on="1"/>
        <pt x="51" y="567" on="1"/>
        <pt x="105" y="652" on="1"/>
        <pt x="200" y="590" on="1"/>
        <pt x="198" y="700" on="1"/>
        <pt x="296" y="700" on="1"/>
        <pt x="294" y="589" on="1"/>
        <pt x="389" y="652" on="1"/>
        <pt x="444" y="567" on="1"/>
        <pt x="339" y="501" on="1"/>
        <pt x="442" y="438" on="1"/>
      </contour>
    </TTGlyph>
    <TTGlyph name="at" xMin="53" yMin="-144" xMax="731" yMax="583">
      <contour>
        <pt x="347" y="47" on="1"/>
        <pt x="289" y="47" on="0"/>
        <pt x="208" y="138" on="0"/>
        <pt x="208" y="203" on="1"/>
        <pt x="208" y="242" on="0"/>
        <pt x="235" y="310" on="0"/>
        <pt x="280" y="359" on="0"/>
        <pt x="343" y="388" on="0"/>
        <pt x="379" y="388" on="1"/>
        <pt x="404" y="388" on="0"/>
        <pt x="448" y="372" on="0"/>
        <pt x="465" y="358" on="1"/>
        <pt x="468" y="375" on="1"/>
        <pt x="567" y="375" on="1"/>
        <pt x="525" y="167" on="1"/>
        <pt x="520" y="144" on="0"/>
        <pt x="540" y="119" on="0"/>
        <pt x="562" y="119" on="1"/>
        <pt x="605" y="119" on="0"/>
        <pt x="658" y="204" on="0"/>
        <pt x="658" y="272" on="1"/>
        <pt x="658" y="325" on="0"/>
        <pt x="619" y="415" on="0"/>
        <pt x="552" y="481" on="0"/>
        <pt x="459" y="519" on="0"/>
        <pt x="405" y="519" on="1"/>
        <pt x="346" y="519" on="0"/>
        <pt x="242" y="472" on="0"/>
        <pt x="167" y="391" on="0"/>
        <pt x="124" y="279" on="0"/>
        <pt x="124" y="214" on="1"/>
        <pt x="124" y="151" on="0"/>
        <pt x="166" y="44" on="0"/>
        <pt x="240" y="-32" on="0"/>
        <pt x="345" y="-74" on="0"/>
        <pt x="407" y="-74" on="1"/>
        <pt x="450" y="-74" on="0"/>
        <pt x="528" y="-57" on="0"/>
        <pt x="562" y="-39" on="1"/>
        <pt x="588" y="-101" on="1"/>
        <pt x="542" y="-123" on="0"/>
        <pt x="454" y="-144" on="0"/>
        <pt x="408" y="-144" on="1"/>
        <pt x="331" y="-144" on="0"/>
        <pt x="200" y="-91" on="0"/>
        <pt x="106" y="2" on="0"/>
        <pt x="53" y="131" on="0"/>
        <pt x="53" y="207" on="1"/>
        <pt x="53" y="288" on="0"/>
        <pt x="107" y="426" on="0"/>
        <pt x="201" y="526" on="0"/>
        <pt x="332" y="583" on="0"/>
        <pt x="408" y="583" on="1"/>
        <pt x="476" y="583" on="0"/>
        <pt x="594" y="536" on="0"/>
        <pt x="681" y="454" on="0"/>
        <pt x="731" y="343" on="0"/>
        <pt x="731" y="279" on="1"/>
        <pt x="731" y="177" on="0"/>
        <pt x="628" y="46" on="0"/>
        <pt x="547" y="46" on="1"/>
        <pt x="512" y="46" on="0"/>
        <pt x="460" y="67" on="0"/>
        <pt x="446" y="86" on="1"/>
        <pt x="424" y="67" on="0"/>
        <pt x="373" y="47" on="0"/>
      </contour>
      <contour>
        <pt x="302" y="212" on="1"/>
        <pt x="302" y="177" on="0"/>
        <pt x="341" y="131" on="0"/>
        <pt x="371" y="131" on="1"/>
        <pt x="386" y="131" on="0"/>
        <pt x="415" y="142" on="0"/>
        <pt x="428" y="153" on="1"/>
        <pt x="428" y="160" on="0"/>
        <pt x="430" y="175" on="0"/>
        <pt x="431" y="182" on="1"/>
        <pt x="448" y="269" on="1"/>
        <pt x="437" y="285" on="0"/>
        <pt x="404" y="301" on="0"/>
        <pt x="383" y="301" on="1"/>
        <pt x="350" y="301" on="0"/>
        <pt x="302" y="248" on="0"/>
      </contour>
    </TTGlyph>
    <TTGlyph name="at.cap" xMin="53" yMin="-15" xMax="731" yMax="712">
      <component glyphName="at" x="0" y="129" flags="0x4"/>
    </TTGlyph>
    <TTGlyph name="atilde" xMin="39" yMin="-8" xMax="520" yMax="760">
      <component glyphName="a" x="0" y="0" flags="0x204"/>
      <component glyphName="tilde" x="18" y="0" flags="0x4"/>
    </TTGlyph>
    <TTGlyph name="atilde.school" xMin="40" yMin="-3" xMax="580" yMax="760">
      <component glyphName="a.school" x="0" y="0" flags="0x204"/>
      <component glyphName="tilde" x="63" y="0" flags="0x4"/>
    </TTGlyph>
    <TTGlyph name="b" xMin="63" yMin="-3" xMax="604" yMax="740">
      <contour>
        <pt x="604" y="257" on="1"/>
        <pt x="604" y="203" on="0"/>
        <pt x="567" y="108" on="0"/>
        <pt x="502" y="38" on="0"/>
        <pt x="414" y="-3" on="0"/>
        <pt x="364" y="-3" on="1"/>
        <pt x="322" y="-3" on="0"/>
        <pt x="249" y="32" on="0"/>
        <pt x="223" y="63" on="1"/>
        <pt x="223" y="0" on="1"/>
        <pt x="63" y="0" on="1"/>
        <pt x="63" y="715" on="1"/>
        <pt x="225" y="740" on="1"/>
        <pt x="225" y="450" on="1"/>
        <pt x="250" y="481" on="0"/>
        <pt x="330" y="519" on="0"/>
        <pt x="376" y="519" on="1"/>
        <pt x="423" y="519" on="0"/>
        <pt x="507" y="478" on="0"/>
        <pt x="568" y="407" on="0"/>
        <pt x="604" y="311" on="0"/>
      </contour>
      <contour>
        <pt x="322" y="385" on="1"/>
        <pt x="292" y="385" on="0"/>
        <pt x="244" y="364" on="0"/>
        <pt x="225" y="343" on="1"/>
        <pt x="225" y="171" on="1"/>
        <pt x="244" y="152" on="0"/>
        <pt x="294" y="130" on="0"/>
        <pt x="322" y="130" on="1"/>
        <pt x="375" y="130" on="0"/>
        <pt x="445" y="203" on="0"/>
        <pt x="445" y="258" on="1"/>
        <pt x="445" y="312" on="0"/>
        <pt x="374" y="385" on="0"/>
      </contour>
    </TTGlyph>
    <TTGlyph name="backslash" xMin="31" yMin="-211" xMax="596" yMax="700">
      <contour>
        <pt x="596" y="-211" on="1"/>
        <pt x="434" y="-211" on="1"/>
        <pt x="31" y="700" on="1"/>
        <pt x="194" y="700" on="1"/>
      </contour>
    </TTGlyph>
    <TTGlyph name="bar" xMin="107" yMin="-214" xMax="251" yMax="700">
      <contour>
        <pt x="107" y="-214" on="1"/>
        <pt x="107" y="700" on="1"/>
        <pt x="251" y="700" on="1"/>
        <pt x="251" y="-214" on="1"/>
      </contour>
    </TTGlyph>
    <TTGlyph name="braceleft" xMin="25" yMin="-224" xMax="403" yMax="710">
      <contour>
        <pt x="301" y="82" on="1"/>
        <pt x="269" y="-12" on="1"/>
        <pt x="256" y="-51" on="0"/>
        <pt x="285" y="-101" on="0"/>
        <pt x="322" y="-102" on="1"/>
        <pt x="338" y="-102" on="0"/>
        <pt x="368" y="-96" on="0"/>
        <pt x="382" y="-91" on="1"/>
        <pt x="403" y="-206" on="1"/>
        <pt x="378" y="-215" on="0"/>
        <pt x="328" y="-224" on="0"/>
        <pt x="301" y="-224" on="1"/>
        <pt x="251" y="-224" on="0"/>
        <pt x="175" y="-192" on="0"/>
        <pt x="131" y="-136" on="0"/>
        <pt x="121" y="-58" on="0"/>
        <pt x="136" y="-12" on="1"/>
        <pt x="165" y="78" on="1"/>
        <pt x="181" y="125" on="0"/>
        <pt x="144" y="184" on="0"/>
        <pt x="101" y="184" on="1"/>
        <pt x="25" y="184" on="1"/>
        <pt x="25" y="302" on="1"/>
        <pt x="101" y="302" on="1"/>
        <pt x="144" y="302" on="0"/>
        <pt x="181" y="361" on="0"/>
        <pt x="165" y="408" on="1"/>
        <pt x="136" y="498" on="1"/>
        <pt x="121" y="544" on="0"/>
        <pt x="131" y="622" on="0"/>
        <pt x="175" y="678" on="0"/>
        <pt x="251" y="710" on="0"/>
        <pt x="301" y="710" on="1"/>
        <pt x="328" y="710" on="0"/>
        <pt x="378" y="701" on="0"/>
        <pt x="403" y="692" on="1"/>
        <pt x="382" y="577" on="1"/>
        <pt x="368" y="582" on="0"/>
        <pt x="338" y="588" on="0"/>
        <pt x="322" y="588" on="1"/>
        <pt x="285" y="587" on="0"/>
        <pt x="256" y="537" on="0"/>
        <pt x="269" y="498" on="1"/>
        <pt x="301" y="404" on="1"/>
        <pt x="320" y="347" on="0"/>
        <pt x="263" y="256" on="0"/>
        <pt x="200" y="243" on="1"/>
        <pt x="263" y="230" on="0"/>
        <pt x="320" y="139" on="0"/>
      </contour>
    </TTGlyph>
    <TTGlyph name="braceright" xMin="53" yMin="-224" xMax="431" yMax="710">
      <contour>
        <pt x="155" y="404" on="1"/>
        <pt x="187" y="498" on="1"/>
        <pt x="200" y="537" on="0"/>
        <pt x="171" y="587" on="0"/>
        <pt x="134" y="588" on="1"/>
        <pt x="118" y="588" on="0"/>
        <pt x="88" y="582" on="0"/>
        <pt x="74" y="577" on="1"/>
        <pt x="53" y="692" on="1"/>
        <pt x="78" y="701" on="0"/>
        <pt x="128" y="710" on="0"/>
        <pt x="155" y="710" on="1"/>
        <pt x="205" y="710" on="0"/>
        <pt x="281" y="678" on="0"/>
        <pt x="325" y="622" on="0"/>
        <pt x="335" y="544" on="0"/>
        <pt x="320" y="498" on="1"/>
        <pt x="291" y="408" on="1"/>
        <pt x="275" y="361" on="0"/>
        <pt x="312" y="302" on="0"/>
        <pt x="355" y="302" on="1"/>
        <pt x="431" y="302" on="1"/>
        <pt x="431" y="184" on="1"/>
        <pt x="355" y="184" on="1"/>
        <pt x="312" y="184" on="0"/>
        <pt x="275" y="125" on="0"/>
        <pt x="291" y="78" on="1"/>
        <pt x="320" y="-12" on="1"/>
        <pt x="335" y="-58" on="0"/>
        <pt x="325" y="-136" on="0"/>
        <pt x="281" y="-192" on="0"/>
        <pt x="205" y="-224" on="0"/>
        <pt x="155" y="-224" on="1"/>
        <pt x="128" y="-224" on="0"/>
        <pt x="78" y="-215" on="0"/>
        <pt x="53" y="-206" on="1"/>
        <pt x="74" y="-91" on="1"/>
        <pt x="88" y="-96" on="0"/>
        <pt x="118" y="-102" on="0"/>
        <pt x="134" y="-102" on="1"/>
        <pt x="171" y="-101" on="0"/>
        <pt x="200" y="-51" on="0"/>
        <pt x="187" y="-12" on="1"/>
        <pt x="155" y="82" on="1"/>
        <pt x="136" y="139" on="0"/>
        <pt x="193" y="230" on="0"/>
        <pt x="256" y="243" on="1"/>
        <pt x="193" y="256" on="0"/>
        <pt x="136" y="347" on="0"/>
      </contour>
    </TTGlyph>
    <TTGlyph name="bracketleft" xMin="68" yMin="-215" xMax="371" yMax="700">
      <contour>
        <pt x="371" y="-215" on="1"/>
        <pt x="68" y="-215" on="1"/>
        <pt x="68" y="700" on="1"/>
        <pt x="371" y="700" on="1"/>
        <pt x="371" y="574" on="1"/>
        <pt x="214" y="574" on="1"/>
        <pt x="214" y="-89" on="1"/>
        <pt x="371" y="-89" on="1"/>
      </contour>
    </TTGlyph>
    <TTGlyph name="bracketright" xMin="51" yMin="-215" xMax="354" yMax="700">
      <contour>
        <pt x="51" y="700" on="1"/>
        <pt x="354" y="700" on="1"/>
        <pt x="354" y="-215" on="1"/>
        <pt x="51" y="-215" on="1"/>
        <pt x="51" y="-89" on="1"/>
        <pt x="208" y="-89" on="1"/>
        <pt x="208" y="574" on="1"/>
        <pt x="51" y="574" on="1"/>
      </contour>
    </TTGlyph>
    <TTGlyph name="breve" xMin="70" yMin="600" xMax="450" yMax="768">
      <contour>
        <pt x="260" y="687" on="1"/>
        <pt x="296" y="687" on="0"/>
        <pt x="345" y="728" on="0"/>
        <pt x="358" y="768" on="1"/>
        <pt x="450" y="743" on="1"/>
        <pt x="433" y="674" on="0"/>
        <pt x="334" y="600" on="0"/>
        <pt x="260" y="600" on="1"/>
        <pt x="186" y="600" on="0"/>
        <pt x="87" y="674" on="0"/>
        <pt x="70" y="743" on="1"/>
        <pt x="163" y="768" on="1"/>
        <pt x="176" y="727" on="0"/>
        <pt x="223" y="687" on="0"/>
      </contour>
    </TTGlyph>
    <TTGlyph name="bullet" xMin="71" yMin="202" xMax="307" yMax="445">
      <contour>
        <pt x="189" y="202" on="1"/>
        <pt x="140" y="202" on="0"/>
        <pt x="71" y="272" on="0"/>
        <pt x="71" y="323" on="1"/>
        <pt x="71" y="374" on="0"/>
        <pt x="140" y="445" on="0"/>
        <pt x="189" y="445" on="1"/>
        <pt x="238" y="445" on="0"/>
        <pt x="307" y="374" on="0"/>
        <pt x="307" y="323" on="1"/>
        <pt x="307" y="272" on="0"/>
        <pt x="238" y="202" on="0"/>
      </contour>
    </TTGlyph>
    <TTGlyph name="c" xMin="40" yMin="-10" xMax="522" yMax="524">
      <contour>
        <pt x="317" y="130" on="1"/>
        <pt x="349" y="130" on="0"/>
        <pt x="402" y="156" on="0"/>
        <pt x="421" y="181" on="1"/>
        <pt x="517" y="86" on="1"/>
        <pt x="480" y="41" on="0"/>
        <pt x="369" y="-10" on="0"/>
        <pt x="307" y="-10" on="1"/>
        <pt x="251" y="-10" on="0"/>
        <pt x="153" y="31" on="0"/>
        <pt x="81" y="103" on="0"/>
        <pt x="40" y="201" on="0"/>
        <pt x="40" y="257" on="1"/>
        <pt x="40" y="313" on="0"/>
        <pt x="81" y="411" on="0"/>
        <pt x="153" y="483" on="0"/>
        <pt x="251" y="524" on="0"/>
        <pt x="307" y="524" on="1"/>
        <pt x="370" y="524" on="0"/>
        <pt x="483" y="475" on="0"/>
        <pt x="522" y="429" on="1"/>
        <pt x="423" y="330" on="1"/>
        <pt x="398" y="359" on="0"/>
        <pt x="346" y="386" on="0"/>
        <pt x="313" y="386" on="1"/>
        <pt x="265" y="386" on="0"/>
        <pt x="201" y="312" on="0"/>
        <pt x="201" y="257" on="1"/>
        <pt x="201" y="203" on="0"/>
        <pt x="267" y="130" on="0"/>
      </contour>
    </TTGlyph>
    <TTGlyph name="cacute" xMin="40" yMin="-10" xMax="542" yMax="747">
      <component glyphName="c" x="0" y="0" flags="0x204"/>
      <component glyphName="acute" x="72" y="0" flags="0x4"/>
    </TTGlyph>
    <TTGlyph name="caron" xMin="55" yMin="604" xMax="467" yMax="755">
      <contour>
        <pt x="181" y="755" on="1"/>
        <pt x="263" y="672" on="1"/>
        <pt x="344" y="755" on="1"/>
        <pt x="467" y="755" on="1"/>
        <pt x="339" y="604" on="1"/>
        <pt x="183" y="604" on="1"/>
        <pt x="55" y="755" on="1"/>
      </contour>
    </TTGlyph>
    <TTGlyph name="caronSlovak" xMin="84" yMin="446" xMax="241" yMax="723">
      <contour>
        <pt x="93" y="723" on="1"/>
        <pt x="241" y="723" on="1"/>
        <pt x="189" y="446" on="1"/>
        <pt x="84" y="446" on="1"/>
      </contour>
    </TTGlyph>
    <TTGlyph name="ccaron" xMin="40" yMin="-10" xMax="522" yMax="755">
      <component glyphName="c" x="0" y="0" flags="0x204"/>
      <component glyphName="caron" x="41" y="0" flags="0x4"/>
    </TTGlyph>
    <TTGlyph name="ccedilla" xMin="40" yMin="-254" xMax="522" yMax="524">
      <contour>
        <pt x="317" y="130" on="1"/>
        <pt x="349" y="130" on="0"/>
        <pt x="402" y="156" on="0"/>
        <pt x="421" y="181" on="1"/>
        <pt x="517" y="86" on="1"/>
        <pt x="485" y="47" on="0"/>
        <pt x="391" y="-3" on="0"/>
        <pt x="338" y="-8" on="1"/>
        <pt x="326" y="-58" on="1"/>
        <pt x="373" y="-62" on="0"/>
        <pt x="428" y="-107" on="0"/>
        <pt x="428" y="-144" on="1"/>
        <pt x="428" y="-190" on="0"/>
        <pt x="352" y="-254" on="0"/>
        <pt x="296" y="-254" on="1"/>
        <pt x="252" y="-254" on="0"/>
        <pt x="185" y="-233" on="0"/>
        <pt x="161" y="-212" on="1"/>
        <pt x="210" y="-155" on="1"/>
        <pt x="227" y="-168" on="0"/>
        <pt x="268" y="-183" on="0"/>
        <pt x="287" y="-183" on="1"/>
        <pt x="313" y="-183" on="0"/>
        <pt x="341" y="-164" on="0"/>
        <pt x="341" y="-146" on="1"/>
        <pt x="341" y="-130" on="0"/>
        <pt x="311" y="-111" on="0"/>
        <pt x="285" y="-111" on="1"/>
        <pt x="240" y="-111" on="1"/>
        <pt x="265" y="-7" on="1"/>
        <pt x="216" y="0" on="0"/>
        <pt x="134" y="46" on="0"/>
        <pt x="74" y="115" on="0"/>
        <pt x="40" y="206" on="0"/>
        <pt x="40" y="257" on="1"/>
        <pt x="40" y="313" on="0"/>
        <pt x="81" y="411" on="0"/>
        <pt x="153" y="483" on="0"/>
        <pt x="251" y="524" on="0"/>
        <pt x="307" y="524" on="1"/>
        <pt x="370" y="524" on="0"/>
        <pt x="483" y="475" on="0"/>
        <pt x="522" y="429" on="1"/>
        <pt x="423" y="330" on="1"/>
        <pt x="398" y="359" on="0"/>
        <pt x="346" y="386" on="0"/>
        <pt x="313" y="386" on="1"/>
        <pt x="265" y="386" on="0"/>
        <pt x="201" y="312" on="0"/>
        <pt x="201" y="257" on="1"/>
        <pt x="201" y="203" on="0"/>
        <pt x="267" y="130" on="0"/>
      </contour>
    </TTGlyph>
    <TTGlyph name="ccircumflex" xMin="40" yMin="-10" xMax="522" yMax="750">
      <component glyphName="c" x="0" y="0" flags="0x204"/>
      <component glyphName="circumflex" x="41" y="0" flags="0x4"/>
    </TTGlyph>
    <TTGlyph name="cdotaccent" xMin="40" yMin="-10" xMax="522" yMax="766">
      <component glyphName="c" x="0" y="0" flags="0x204"/>
      <component glyphName="dotaccent" x="144" y="0" flags="0x4"/>
    </TTGlyph>
    <TTGlyph name="cedilla" xMin="145" yMin="-254" xMax="412" yMax="0">
      <contour>
        <pt x="412" y="-144" on="1"/>
        <pt x="412" y="-190" on="0"/>
        <pt x="336" y="-254" on="0"/>
        <pt x="280" y="-254" on="1"/>
        <pt x="236" y="-254" on="0"/>
        <pt x="169" y="-233" on="0"/>
        <pt x="145" y="-212" on="1"/>
        <pt x="194" y="-155" on="1"/>
        <pt x="211" y="-168" on="0"/>
        <pt x="252" y="-183" on="0"/>
        <pt x="271" y="-183" on="1"/>
        <pt x="297" y="-183" on="0"/>
        <pt x="325" y="-164" on="0"/>
        <pt x="325" y="-146" on="1"/>
        <pt x="325" y="-130" on="0"/>
        <pt x="295" y="-111" on="0"/>
        <pt x="269" y="-111" on="1"/>
        <pt x="224" y="-111" on="1"/>
        <pt x="251" y="0" on="1"/>
        <pt x="324" y="0" on="1"/>
        <pt x="310" y="-58" on="1"/>
        <pt x="357" y="-62" on="0"/>
        <pt x="412" y="-107" on="0"/>
      </contour>
    </TTGlyph>
    <TTGlyph name="cent" xMin="40" yMin="-110" xMax="522" yMax="625">
      <contour>
        <pt x="277" y="-110" on="1"/>
        <pt x="277" y="-8" on="1"/>
        <pt x="226" y="-3" on="0"/>
        <pt x="139" y="42" on="0"/>
        <pt x="76" y="112" on="0"/>
        <pt x="40" y="204" on="0"/>
        <pt x="40" y="257" on="1"/>
        <pt x="40" y="310" on="0"/>
        <pt x="76" y="402" on="0"/>
        <pt x="139" y="472" on="0"/>
        <pt x="226" y="517" on="0"/>
        <pt x="277" y="522" on="1"/>
        <pt x="277" y="625" on="1"/>
        <pt x="340" y="625" on="1"/>
        <pt x="340" y="522" on="1"/>
        <pt x="394" y="517" on="0"/>
        <pt x="488" y="469" on="0"/>
        <pt x="522" y="429" on="1"/>
        <pt x="423" y="330" on="1"/>
        <pt x="404" y="353" on="0"/>
        <pt x="363" y="380" on="0"/>
        <pt x="340" y="384" on="1"/>
        <pt x="340" y="132" on="1"/>
        <pt x="365" y="136" on="0"/>
        <pt x="405" y="160" on="0"/>
        <pt x="421" y="181" on="1"/>
        <pt x="517" y="86" on="1"/>
        <pt x="486" y="47" on="0"/>
        <pt x="392" y="-2" on="0"/>
        <pt x="340" y="-8" on="1"/>
        <pt x="340" y="-110" on="1"/>
      </contour>
      <contour>
        <pt x="201" y="257" on="1"/>
        <pt x="201" y="214" on="0"/>
        <pt x="243" y="150" on="0"/>
        <pt x="277" y="137" on="1"/>
        <pt x="277" y="380" on="1"/>
        <pt x="243" y="367" on="0"/>
        <pt x="201" y="301" on="0"/>
      </contour>
    </TTGlyph>
    <TTGlyph name="circumflex" xMin="55" yMin="599" xMax="467" yMax="750">
      <contour>
        <pt x="341" y="599" on="1"/>
        <pt x="259" y="682" on="1"/>
        <pt x="178" y="599" on="1"/>
        <pt x="55" y="599" on="1"/>
        <pt x="183" y="750" on="1"/>
        <pt x="339" y="750" on="1"/>
        <pt x="467" y="599" on="1"/>
      </contour>
    </TTGlyph>
    <TTGlyph name="colon" xMin="47" yMin="-11" xMax="228" yMax="527">
      <component glyphName="period" x="0" y="0" flags="0x204"/>
      <component glyphName="period" x="0" y="348" flags="0x4"/>
    </TTGlyph>
    <TTGlyph name="comma" xMin="0" yMin="-177" xMax="234" yMax="127">
      <contour>
        <pt x="75" y="127" on="1"/>
        <pt x="234" y="127" on="1"/>
        <pt x="116" y="-177" on="1"/>
        <pt x="0" y="-177" on="1"/>
      </contour>
    </TTGlyph>
    <TTGlyph name="commaaccent" xMin="25" yMin="-305" xMax="232" yMax="-90">
      <contour>
        <pt x="88" y="-90" on="1"/>
        <pt x="232" y="-90" on="1"/>
        <pt x="137" y="-305" on="1"/>
        <pt x="25" y="-305" on="1"/>
      </contour>
    </TTGlyph>
    <TTGlyph name="copyright" xMin="45" yMin="-11" xMax="732" yMax="711">
      <contour>
        <pt x="45" y="350" on="1"/>
        <pt x="45" y="425" on="0"/>
        <pt x="98" y="558" on="0"/>
        <pt x="191" y="655" on="0"/>
        <pt x="316" y="711" on="0"/>
        <pt x="388" y="711" on="1"/>
        <pt x="460" y="711" on="0"/>
        <pt x="586" y="655" on="0"/>
        <pt x="679" y="558" on="0"/>
        <pt x="732" y="426" on="0"/>
        <pt x="732" y="350" on="1"/>
        <pt x="732" y="274" on="0"/>
        <pt x="679" y="142" on="0"/>
        <pt x="586" y="45" on="0"/>
        <pt x="460" y="-11" on="0"/>
        <pt x="388" y="-11" on="1"/>
        <pt x="316" y="-11" on="0"/>
        <pt x="191" y="45" on="0"/>
        <pt x="98" y="142" on="0"/>
        <pt x="45" y="275" on="0"/>
      </contour>
      <contour>
        <pt x="664" y="350" on="1"/>
        <pt x="664" y="411" on="0"/>
        <pt x="621" y="518" on="0"/>
        <pt x="546" y="598" on="0"/>
        <pt x="445" y="644" on="0"/>
        <pt x="388" y="644" on="1"/>
        <pt x="331" y="644" on="0"/>
        <pt x="231" y="598" on="0"/>
        <pt x="157" y="518" on="0"/>
        <pt x="114" y="411" on="0"/>
        <pt x="114" y="350" on="1"/>
        <pt x="114" y="289" on="0"/>
        <pt x="157" y="182" on="0"/>
        <pt x="231" y="102" on="0"/>
        <pt x="331" y="56" on="0"/>
        <pt x="388" y="56" on="1"/>
        <pt x="445" y="56" on="0"/>
        <pt x="546" y="102" on="0"/>
        <pt x="621" y="182" on="0"/>
        <pt x="664" y="289" on="0"/>
      </contour>
      <contour>
        <pt x="210" y="351" on="1"/>
        <pt x="210" y="391" on="0"/>
        <pt x="239" y="461" on="0"/>
        <pt x="288" y="513" on="0"/>
        <pt x="356" y="542" on="0"/>
        <pt x="395" y="542" on="1"/>
        <pt x="438" y="542" on="0"/>
        <pt x="515" y="506" on="0"/>
        <pt x="542" y="474" on="1"/>
        <pt x="478" y="403" on="1"/>
        <pt x="459" y="425" on="0"/>
        <pt x="421" y="445" on="0"/>
        <pt x="398" y="445" on="1"/>
        <pt x="363" y="445" on="0"/>
        <pt x="316" y="391" on="0"/>
        <pt x="316" y="351" on="1"/>
        <pt x="316" y="311" on="0"/>
        <pt x="364" y="258" on="0"/>
        <pt x="400" y="258" on="1"/>
        <pt x="422" y="258" on="0"/>
        <pt x="459" y="278" on="0"/>
        <pt x="476" y="298" on="1"/>
        <pt x="540" y="228" on="1"/>
        <pt x="512" y="196" on="0"/>
        <pt x="436" y="161" on="0"/>
        <pt x="395" y="161" on="1"/>
        <pt x="356" y="161" on="0"/>
        <pt x="288" y="190" on="0"/>
        <pt x="239" y="241" on="0"/>
        <pt x="210" y="311" on="0"/>
      </contour>
    </TTGlyph>
    <TTGlyph name="cordinal" xMin="26" yMin="294" xMax="407" yMax="708">
      <contour>
        <pt x="244" y="403" on="1"/>
        <pt x="268" y="403" on="0"/>
        <pt x="309" y="424" on="0"/>
        <pt x="328" y="446" on="1"/>
        <pt x="403" y="368" on="1"/>
        <pt x="373" y="334" on="0"/>
        <pt x="286" y="294" on="0"/>
        <pt x="238" y="294" on="1"/>
        <pt x="193" y="294" on="0"/>
        <pt x="115" y="326" on="0"/>
        <pt x="59" y="381" on="0"/>
        <pt x="26" y="457" on="0"/>
        <pt x="26" y="500" on="1"/>
        <pt x="26" y="544" on="0"/>
        <pt x="59" y="620" on="0"/>
        <pt x="115" y="676" on="0"/>
        <pt x="193" y="708" on="0"/>
        <pt x="238" y="708" on="1"/>
        <pt x="287" y="708" on="0"/>
        <pt x="376" y="668" on="0"/>
        <pt x="407" y="633" on="1"/>
        <pt x="330" y="553" on="1"/>
        <pt x="309" y="577" on="0"/>
        <pt x="266" y="598" on="0"/>
        <pt x="241" y="598" on="1"/>
        <pt x="203" y="598" on="0"/>
        <pt x="152" y="542" on="0"/>
        <pt x="152" y="500" on="1"/>
        <pt x="152" y="459" on="0"/>
        <pt x="204" y="403" on="0"/>
      </contour>
    </TTGlyph>
    <TTGlyph name="d" xMin="40" yMin="-3" xMax="580" yMax="740">
      <contour>
        <pt x="420" y="0" on="1"/>
        <pt x="420" y="67" on="1"/>
        <pt x="395" y="35" on="0"/>
        <pt x="314" y="-3" on="0"/>
        <pt x="268" y="-3" on="1"/>
        <pt x="221" y="-3" on="0"/>
        <pt x="137" y="38" on="0"/>
        <pt x="76" y="109" on="0"/>
        <pt x="40" y="205" on="0"/>
        <pt x="40" y="259" on="1"/>
        <pt x="40" y="313" on="0"/>
        <pt x="77" y="408" on="0"/>
        <pt x="142" y="478" on="0"/>
        <pt x="230" y="519" on="0"/>
        <pt x="280" y="519" on="1"/>
        <pt x="320" y="519" on="0"/>
        <pt x="392" y="487" on="0"/>
        <pt x="418" y="457" on="1"/>
        <pt x="418" y="715" on="1"/>
        <pt x="580" y="740" on="1"/>
        <pt x="580" y="0" on="1"/>
      </contour>
      <contour>
        <pt x="199" y="258" on="1"/>
        <pt x="199" y="204" on="0"/>
        <pt x="270" y="131" on="0"/>
        <pt x="322" y="131" on="1"/>
        <pt x="351" y="131" on="0"/>
        <pt x="399" y="152" on="0"/>
        <pt x="418" y="172" on="1"/>
        <pt x="418" y="346" on="1"/>
        <pt x="399" y="365" on="0"/>
        <pt x="350" y="386" on="0"/>
        <pt x="322" y="386" on="1"/>
        <pt x="269" y="386" on="0"/>
        <pt x="199" y="313" on="0"/>
      </contour>
    </TTGlyph>
    <TTGlyph name="dagger" xMin="45" yMin="0" xMax="423" yMax="700">
      <contour>
        <pt x="173" y="0" on="1"/>
        <pt x="173" y="407" on="1"/>
        <pt x="45" y="407" on="1"/>
        <pt x="45" y="516" on="1"/>
        <pt x="173" y="516" on="1"/>
        <pt x="173" y="700" on="1"/>
        <pt x="296" y="700" on="1"/>
        <pt x="296" y="516" on="1"/>
        <pt x="423" y="516" on="1"/>
        <pt x="423" y="407" on="1"/>
        <pt x="296" y="407" on="1"/>
        <pt x="296" y="0" on="1"/>
      </contour>
    </TTGlyph>
    <TTGlyph name="daggerdbl" xMin="45" yMin="0" xMax="423" yMax="700">
      <contour>
        <pt x="173" y="0" on="1"/>
        <pt x="173" y="184" on="1"/>
        <pt x="45" y="184" on="1"/>
        <pt x="45" y="293" on="1"/>
        <pt x="173" y="293" on="1"/>
        <pt x="173" y="407" on="1"/>
        <pt x="45" y="407" on="1"/>
        <pt x="45" y="516" on="1"/>
        <pt x="173" y="516" on="1"/>
        <pt x="173" y="700" on="1"/>
        <pt x="296" y="700" on="1"/>
        <pt x="296" y="516" on="1"/>
        <pt x="423" y="516" on="1"/>
        <pt x="423" y="407" on="1"/>
        <pt x="296" y="407" on="1"/>
        <pt x="296" y="293" on="1"/>
        <pt x="423" y="293" on="1"/>
        <pt x="423" y="184" on="1"/>
        <pt x="296" y="184" on="1"/>
        <pt x="296" y="0" on="1"/>
      </contour>
    </TTGlyph>
    <TTGlyph name="dcaron" xMin="55" yMin="-3" xMax="842" yMax="740">
      <component glyphName="d" x="15" y="0" flags="0x4"/>
      <component glyphName="caronSlovak" x="601" y="0" flags="0x4"/>
    </TTGlyph>
    <TTGlyph name="dcroat" xMin="40" yMin="-3" xMax="637" yMax="740">
      <contour>
        <pt x="420" y="0" on="1"/>
        <pt x="420" y="67" on="1"/>
        <pt x="395" y="35" on="0"/>
        <pt x="314" y="-3" on="0"/>
        <pt x="268" y="-3" on="1"/>
        <pt x="221" y="-3" on="0"/>
        <pt x="137" y="38" on="0"/>
        <pt x="76" y="109" on="0"/>
        <pt x="40" y="205" on="0"/>
        <pt x="40" y="259" on="1"/>
        <pt x="40" y="313" on="0"/>
        <pt x="77" y="408" on="0"/>
        <pt x="142" y="478" on="0"/>
        <pt x="230" y="519" on="0"/>
        <pt x="280" y="519" on="1"/>
        <pt x="320" y="519" on="0"/>
        <pt x="392" y="487" on="0"/>
        <pt x="418" y="457" on="1"/>
        <pt x="418" y="560" on="1"/>
        <pt x="313" y="560" on="1"/>
        <pt x="313" y="648" on="1"/>
        <pt x="418" y="648" on="1"/>
        <pt x="418" y="715" on="1"/>
        <pt x="580" y="740" on="1"/>
        <pt x="580" y="648" on="1"/>
        <pt x="637" y="648" on="1"/>
        <pt x="637" y="560" on="1"/>
        <pt x="580" y="560" on="1"/>
        <pt x="580" y="0" on="1"/>
      </contour>
      <contour>
        <pt x="199" y="258" on="1"/>
        <pt x="199" y="204" on="0"/>
        <pt x="270" y="131" on="0"/>
        <pt x="322" y="131" on="1"/>
        <pt x="351" y="131" on="0"/>
        <pt x="399" y="152" on="0"/>
        <pt x="418" y="172" on="1"/>
        <pt x="418" y="346" on="1"/>
        <pt x="399" y="365" on="0"/>
        <pt x="350" y="386" on="0"/>
        <pt x="322" y="386" on="1"/>
        <pt x="269" y="386" on="0"/>
        <pt x="199" y="313" on="0"/>
      </contour>
    </TTGlyph>
    <TTGlyph name="degree" xMin="46" yMin="416" xMax="345" yMax="710">
      <contour>
        <pt x="196" y="416" on="1"/>
        <pt x="133" y="416" on="0"/>
        <pt x="46" y="504" on="0"/>
        <pt x="46" y="565" on="1"/>
        <pt x="46" y="623" on="0"/>
        <pt x="132" y="710" on="0"/>
        <pt x="196" y="710" on="1"/>
        <pt x="259" y="710" on="0"/>
        <pt x="345" y="623" on="0"/>
        <pt x="345" y="565" on="1"/>
        <pt x="345" y="504" on="0"/>
        <pt x="258" y="416" on="0"/>
      </contour>
      <contour>
        <pt x="196" y="496" on="1"/>
        <pt x="224" y="496" on="0"/>
        <pt x="262" y="537" on="0"/>
        <pt x="262" y="565" on="1"/>
        <pt x="262" y="591" on="0"/>
        <pt x="224" y="629" on="0"/>
        <pt x="196" y="629" on="1"/>
        <pt x="168" y="629" on="0"/>
        <pt x="129" y="591" on="0"/>
        <pt x="129" y="565" on="1"/>
        <pt x="129" y="537" on="0"/>
        <pt x="168" y="496" on="0"/>
      </contour>
    </TTGlyph>
    <TTGlyph name="dieresis" xMin="107" yMin="602" xMax="501" yMax="766">
      <contour>
        <pt x="188" y="602" on="1"/>
        <pt x="154" y="602" on="0"/>
        <pt x="107" y="650" on="0"/>
        <pt x="107" y="684" on="1"/>
        <pt x="107" y="720" on="0"/>
        <pt x="154" y="766" on="0"/>
        <pt x="188" y="766" on="1"/>
        <pt x="222" y="766" on="0"/>
        <pt x="269" y="720" on="0"/>
        <pt x="269" y="684" on="1"/>
        <pt x="269" y="650" on="0"/>
        <pt x="222" y="602" on="0"/>
      </contour>
      <contour>
        <pt x="420" y="602" on="1"/>
        <pt x="386" y="602" on="0"/>
        <pt x="339" y="650" on="0"/>
        <pt x="339" y="684" on="1"/>
        <pt x="339" y="720" on="0"/>
        <pt x="386" y="766" on="0"/>
        <pt x="420" y="766" on="1"/>
        <pt x="454" y="766" on="0"/>
        <pt x="501" y="720" on="0"/>
        <pt x="501" y="684" on="1"/>
        <pt x="501" y="650" on="0"/>
        <pt x="454" y="602" on="0"/>
      </contour>
    </TTGlyph>
    <TTGlyph name="divide" xMin="56" yMin="36" xMax="506" yMax="682">
      <contour>
        <pt x="282" y="498" on="1"/>
        <pt x="245" y="498" on="0"/>
        <pt x="191" y="553" on="0"/>
        <pt x="191" y="590" on="1"/>
        <pt x="191" y="627" on="0"/>
        <pt x="245" y="682" on="0"/>
        <pt x="282" y="682" on="1"/>
        <pt x="319" y="682" on="0"/>
        <pt x="372" y="627" on="0"/>
        <pt x="372" y="590" on="1"/>
        <pt x="372" y="553" on="0"/>
        <pt x="319" y="498" on="0"/>
      </contour>
      <contour>
        <pt x="56" y="297" on="1"/>
        <pt x="56" y="421" on="1"/>
        <pt x="506" y="421" on="1"/>
        <pt x="506" y="297" on="1"/>
      </contour>
      <contour>
        <pt x="282" y="36" on="1"/>
        <pt x="245" y="36" on="0"/>
        <pt x="191" y="91" on="0"/>
        <pt x="191" y="128" on="1"/>
        <pt x="191" y="165" on="0"/>
        <pt x="245" y="220" on="0"/>
        <pt x="282" y="220" on="1"/>
        <pt x="319" y="220" on="0"/>
        <pt x="372" y="165" on="0"/>
        <pt x="372" y="128" on="1"/>
        <pt x="372" y="91" on="0"/>
        <pt x="319" y="36" on="0"/>
      </contour>
    </TTGlyph>
    <TTGlyph name="dollar" xMin="21" yMin="-75" xMax="554" yMax="759">
      <contour>
        <pt x="255" y="-75" on="1"/>
        <pt x="255" y="20" on="1"/>
        <pt x="193" y="24" on="0"/>
        <pt x="71" y="61" on="0"/>
        <pt x="21" y="93" on="1"/>
        <pt x="89" y="214" on="1"/>
        <pt x="129" y="190" on="0"/>
        <pt x="213" y="159" on="0"/>
        <pt x="255" y="154" on="1"/>
        <pt x="255" y="284" on="1"/>
        <pt x="178" y="303" on="1"/>
        <pt x="106" y="321" on="0"/>
        <pt x="31" y="409" on="0"/>
        <pt x="31" y="478" on="1"/>
        <pt x="31" y="569" on="0"/>
        <pt x="149" y="676" on="0"/>
        <pt x="255" y="682" on="1"/>
        <pt x="255" y="759" on="1"/>
        <pt x="324" y="759" on="1"/>
        <pt x="324" y="681" on="1"/>
        <pt x="381" y="676" on="0"/>
        <pt x="492" y="639" on="0"/>
        <pt x="537" y="609" on="1"/>
        <pt x="475" y="489" on="1"/>
        <pt x="438" y="511" on="0"/>
        <pt x="362" y="541" on="0"/>
        <pt x="324" y="547" on="1"/>
        <pt x="324" y="416" on="1"/>
        <pt x="400" y="398" on="1"/>
        <pt x="477" y="379" on="0"/>
        <pt x="554" y="295" on="0"/>
        <pt x="554" y="230" on="1"/>
        <pt x="554" y="139" on="0"/>
        <pt x="432" y="28" on="0"/>
        <pt x="324" y="20" on="1"/>
        <pt x="324" y="-75" on="1"/>
      </contour>
      <contour>
        <pt x="242" y="432" on="1"/>
        <pt x="255" y="429" on="1"/>
        <pt x="255" y="550" on="1"/>
        <pt x="218" y="548" on="0"/>
        <pt x="174" y="515" on="0"/>
        <pt x="174" y="490" on="1"/>
        <pt x="174" y="467" on="0"/>
        <pt x="204" y="441" on="0"/>
      </contour>
      <contour>
        <pt x="336" y="269" on="1"/>
        <pt x="324" y="272" on="1"/>
        <pt x="324" y="152" on="1"/>
        <pt x="364" y="156" on="0"/>
        <pt x="406" y="186" on="0"/>
        <pt x="406" y="211" on="1"/>
        <pt x="406" y="233" on="0"/>
        <pt x="377" y="257" on="0"/>
      </contour>
    </TTGlyph>
    <TTGlyph name="dotaccent" xMin="76" yMin="602" xMax="240" yMax="766">
      <contour>
        <pt x="158" y="602" on="1"/>
        <pt x="123" y="602" on="0"/>
        <pt x="76" y="650" on="0"/>
        <pt x="76" y="684" on="1"/>
        <pt x="76" y="720" on="0"/>
        <pt x="123" y="766" on="0"/>
        <pt x="158" y="766" on="1"/>
        <pt x="192" y="766" on="0"/>
        <pt x="240" y="720" on="0"/>
        <pt x="240" y="684" on="1"/>
        <pt x="240" y="650" on="0"/>
        <pt x="192" y="602" on="0"/>
      </contour>
    </TTGlyph>
    <TTGlyph name="dotlessi" xMin="63" yMin="0" xMax="225" yMax="516">
      <contour>
        <pt x="225" y="516" on="1"/>
        <pt x="225" y="0" on="1"/>
        <pt x="63" y="0" on="1"/>
        <pt x="63" y="516" on="1"/>
      </contour>
    </TTGlyph>
    <TTGlyph name="dotlessj" xMin="-34" yMin="-223" xMax="225" yMax="516">
      <contour>
        <pt x="-34" y="-213" on="1"/>
        <pt x="-34" y="-90" on="1"/>
        <pt x="-23" y="-92" on="0"/>
        <pt x="-2" y="-94" on="0"/>
        <pt x="11" y="-94" on="1"/>
        <pt x="38" y="-94" on="0"/>
        <pt x="63" y="-72" on="0"/>
        <pt x="63" y="-50" on="1"/>
        <pt x="63" y="516" on="1"/>
        <pt x="225" y="516" on="1"/>
        <pt x="225" y="-57" on="1"/>
        <pt x="225" y="-136" on="0"/>
        <pt x="130" y="-223" on="0"/>
        <pt x="46" y="-223" on="1"/>
        <pt x="27" y="-223" on="0"/>
        <pt x="-21" y="-217" on="0"/>
      </contour>
    </TTGlyph>
    <TTGlyph name="e" xMin="40" yMin="-10" xMax="554" yMax="525">
      <contour>
        <pt x="529" y="73" on="1"/>
        <pt x="479" y="29" on="0"/>
        <pt x="377" y="-10" on="0"/>
        <pt x="312" y="-10" on="1"/>
        <pt x="255" y="-10" on="0"/>
        <pt x="156" y="31" on="0"/>
        <pt x="82" y="103" on="0"/>
        <pt x="40" y="201" on="0"/>
        <pt x="40" y="257" on="1"/>
        <pt x="40" y="314" on="0"/>
        <pt x="80" y="412" on="0"/>
        <pt x="149" y="484" on="0"/>
        <pt x="245" y="525" on="0"/>
        <pt x="300" y="525" on="1"/>
        <pt x="356" y="525" on="0"/>
        <pt x="449" y="484" on="0"/>
        <pt x="516" y="412" on="0"/>
        <pt x="554" y="311" on="0"/>
        <pt x="554" y="251" on="1"/>
        <pt x="554" y="216" on="1"/>
        <pt x="199" y="216" on="1"/>
        <pt x="210" y="173" on="0"/>
        <pt x="276" y="119" on="0"/>
        <pt x="320" y="119" on="1"/>
        <pt x="352" y="119" on="0"/>
        <pt x="405" y="141" on="0"/>
        <pt x="422" y="162" on="1"/>
      </contour>
      <contour>
        <pt x="299" y="399" on="1"/>
        <pt x="261" y="399" on="0"/>
        <pt x="209" y="351" on="0"/>
        <pt x="199" y="308" on="1"/>
        <pt x="404" y="308" on="1"/>
        <pt x="394" y="350" on="0"/>
        <pt x="338" y="399" on="0"/>
      </contour>
    </TTGlyph>
    <TTGlyph name="eacute" xMin="40" yMin="-10" xMax="554" yMax="747">
      <component glyphName="e" x="0" y="0" flags="0x204"/>
      <component glyphName="acute" x="71" y="0" flags="0x4"/>
    </TTGlyph>
    <TTGlyph name="ebreve" xMin="40" yMin="-10" xMax="554" yMax="768">
      <component glyphName="e" x="0" y="0" flags="0x204"/>
      <component glyphName="breve" x="40" y="0" flags="0x4"/>
    </TTGlyph>
    <TTGlyph name="ecaron" xMin="40" yMin="-10" xMax="554" yMax="755">
      <component glyphName="e" x="0" y="0" flags="0x204"/>
      <component glyphName="caron" x="40" y="0" flags="0x4"/>
    </TTGlyph>
    <TTGlyph name="ecircumflex" xMin="40" yMin="-10" xMax="554" yMax="750">
      <component glyphName="e" x="0" y="0" flags="0x204"/>
      <component glyphName="circumflex" x="40" y="0" flags="0x4"/>
    </TTGlyph>
    <TTGlyph name="edieresis" xMin="40" yMin="-10" xMax="554" yMax="766">
      <component glyphName="e" x="0" y="0" flags="0x204"/>
      <component glyphName="dieresis" x="-4" y="0" flags="0x4"/>
    </TTGlyph>
    <TTGlyph name="edotaccent" xMin="40" yMin="-10" xMax="554" yMax="766">
      <component glyphName="e" x="0" y="0" flags="0x204"/>
      <component glyphName="dotaccent" x="143" y="0" flags="0x4"/>
    </TTGlyph>
    <TTGlyph name="egrave" xMin="40" yMin="-10" xMax="554" yMax="747">
      <component glyphName="e" x="0" y="0" flags="0x204"/>
      <component glyphName="grave" x="0" y="0" flags="0x4"/>
    </TTGlyph>
    <TTGlyph name="eight" xMin="46" yMin="-11" xMax="592" yMax="711">
      <contour>
        <pt x="319" y="-11" on="1"/>
        <pt x="259" y="-11" on="0"/>
        <pt x="158" y="20" on="0"/>
        <pt x="86" y="74" on="0"/>
        <pt x="46" y="152" on="0"/>
        <pt x="46" y="198" on="1"/>
        <pt x="46" y="253" on="0"/>
        <pt x="120" y="340" on="0"/>
        <pt x="178" y="359" on="1"/>
        <pt x="128" y="379" on="0"/>
        <pt x="66" y="459" on="0"/>
        <pt x="66" y="508" on="1"/>
        <pt x="66" y="551" on="0"/>
        <pt x="104" y="626" on="0"/>
        <pt x="172" y="680" on="0"/>
        <pt x="264" y="711" on="0"/>
        <pt x="318" y="711" on="1"/>
        <pt x="372" y="711" on="0"/>
        <pt x="466" y="680" on="0"/>
        <pt x="533" y="626" on="0"/>
        <pt x="572" y="551" on="0"/>
        <pt x="572" y="508" on="1"/>
        <pt x="572" y="459" on="0"/>
        <pt x="510" y="379" on="0"/>
        <pt x="461" y="359" on="1"/>
        <pt x="519" y="340" on="0"/>
        <pt x="592" y="253" on="0"/>
        <pt x="592" y="198" on="1"/>
        <pt x="592" y="152" on="0"/>
        <pt x="552" y="74" on="0"/>
        <pt x="480" y="20" on="0"/>
        <pt x="379" y="-11" on="0"/>
      </contour>
      <contour>
        <pt x="319" y="411" on="1"/>
        <pt x="362" y="411" on="0"/>
        <pt x="420" y="460" on="0"/>
        <pt x="420" y="497" on="1"/>
        <pt x="420" y="534" on="0"/>
        <pt x="362" y="583" on="0"/>
        <pt x="319" y="583" on="1"/>
        <pt x="276" y="583" on="0"/>
        <pt x="218" y="534" on="0"/>
        <pt x="218" y="497" on="1"/>
        <pt x="218" y="460" on="0"/>
        <pt x="276" y="411" on="0"/>
      </contour>
      <contour>
        <pt x="319" y="118" on="1"/>
        <pt x="370" y="118" on="0"/>
        <pt x="436" y="169" on="0"/>
        <pt x="436" y="209" on="1"/>
        <pt x="436" y="249" on="0"/>
        <pt x="370" y="300" on="0"/>
        <pt x="319" y="300" on="1"/>
        <pt x="268" y="300" on="0"/>
        <pt x="202" y="249" on="0"/>
        <pt x="202" y="209" on="1"/>
        <pt x="202" y="169" on="0"/>
        <pt x="268" y="118" on="0"/>
      </contour>
    </TTGlyph>
    <TTGlyph name="ellipsis" xMin="47" yMin="-11" xMax="778" yMax="179">
      <component glyphName="period" x="0" y="0" flags="0x4"/>
      <component glyphName="period" x="275" y="0" flags="0x4"/>
      <component glyphName="period" x="550" y="0" flags="0x4"/>
    </TTGlyph>
    <TTGlyph name="emacron" xMin="40" yMin="-10" xMax="554" yMax="726">
      <component glyphName="e" x="0" y="0" flags="0x204"/>
      <component glyphName="macron" x="40" y="0" flags="0x4"/>
    </TTGlyph>
    <TTGlyph name="emdash" xMin="51" yMin="219" xMax="656" yMax="354">
      <contour>
        <pt x="51" y="354" on="1"/>
        <pt x="656" y="354" on="1"/>
        <pt x="656" y="219" on="1"/>
        <pt x="51" y="219" on="1"/>
      </contour>
    </TTGlyph>
    <TTGlyph name="emdash.cap" xMin="51" yMin="284" xMax="656" yMax="419">
      <component glyphName="emdash" x="0" y="65" flags="0x4"/>
    </TTGlyph>
    <TTGlyph name="endash" xMin="51" yMin="219" xMax="514" yMax="354">
      <contour>
        <pt x="51" y="354" on="1"/>
        <pt x="514" y="354" on="1"/>
        <pt x="514" y="219" on="1"/>
        <pt x="51" y="219" on="1"/>
      </contour>
    </TTGlyph>
    <TTGlyph name="endash.cap" xMin="51" yMin="284" xMax="514" yMax="419">
      <component glyphName="endash" x="0" y="65" flags="0x4"/>
    </TTGlyph>
    <TTGlyph name="eng" xMin="63" yMin="-222" xMax="559" yMax="524">
      <contour>
        <pt x="63" y="0" on="1"/>
        <pt x="63" y="516" on="1"/>
        <pt x="225" y="516" on="1"/>
        <pt x="225" y="432" on="1"/>
        <pt x="255" y="477" on="0"/>
        <pt x="338" y="524" on="0"/>
        <pt x="388" y="524" on="1"/>
        <pt x="463" y="524" on="0"/>
        <pt x="559" y="425" on="0"/>
        <pt x="559" y="348" on="1"/>
        <pt x="559" y="-55" on="1"/>
        <pt x="559" y="-135" on="0"/>
        <pt x="466" y="-222" on="0"/>
        <pt x="381" y="-222" on="1"/>
        <pt x="361" y="-222" on="0"/>
        <pt x="314" y="-216" on="0"/>
        <pt x="301" y="-212" on="1"/>
        <pt x="301" y="-85" on="1"/>
        <pt x="311" y="-87" on="0"/>
        <pt x="333" y="-89" on="0"/>
        <pt x="347" y="-89" on="1"/>
        <pt x="372" y="-89" on="0"/>
        <pt x="397" y="-67" on="0"/>
        <pt x="397" y="-45" on="1"/>
        <pt x="397" y="301" on="1"/>
        <pt x="397" y="344" on="0"/>
        <pt x="350" y="397" on="0"/>
        <pt x="311" y="397" on="1"/>
        <pt x="285" y="397" on="0"/>
        <pt x="242" y="376" on="0"/>
        <pt x="225" y="354" on="1"/>
        <pt x="225" y="0" on="1"/>
      </contour>
    </TTGlyph>
    <TTGlyph name="eogonek" xMin="40" yMin="-231" xMax="554" yMax="525">
      <contour>
        <pt x="529" y="73" on="1"/>
        <pt x="496" y="44" on="0"/>
        <pt x="431" y="8" on="0"/>
        <pt x="394" y="-1" on="1"/>
        <pt x="351" y="-27" on="0"/>
        <pt x="311" y="-76" on="0"/>
        <pt x="311" y="-103" on="1"/>
        <pt x="311" y="-125" on="0"/>
        <pt x="338" y="-149" on="0"/>
        <pt x="360" y="-149" on="1"/>
        <pt x="373" y="-149" on="0"/>
        <pt x="398" y="-143" on="0"/>
        <pt x="405" y="-138" on="1"/>
        <pt x="425" y="-208" on="1"/>
        <pt x="409" y="-218" on="0"/>
        <pt x="359" y="-231" on="0"/>
        <pt x="332" y="-231" on="1"/>
        <pt x="283" y="-231" on="0"/>
        <pt x="224" y="-176" on="0"/>
        <pt x="224" y="-132" on="1"/>
        <pt x="224" y="-98" on="0"/>
        <pt x="260" y="-38" on="0"/>
        <pt x="299" y="-10" on="1"/>
        <pt x="245" y="-7" on="0"/>
        <pt x="149" y="36" on="0"/>
        <pt x="80" y="107" on="0"/>
        <pt x="40" y="203" on="0"/>
        <pt x="40" y="257" on="1"/>
        <pt x="40" y="314" on="0"/>
        <pt x="80" y="412" on="0"/>
        <pt x="149" y="484" on="0"/>
        <pt x="245" y="525" on="0"/>
        <pt x="300" y="525" on="1"/>
        <pt x="356" y="525" on="0"/>
        <pt x="449" y="484" on="0"/>
        <pt x="516" y="412" on="0"/>
        <pt x="554" y="311" on="0"/>
        <pt x="554" y="251" on="1"/>
        <pt x="554" y="216" on="1"/>
        <pt x="199" y="216" on="1"/>
        <pt x="210" y="173" on="0"/>
        <pt x="276" y="119" on="0"/>
        <pt x="320" y="119" on="1"/>
        <pt x="352" y="119" on="0"/>
        <pt x="405" y="141" on="0"/>
        <pt x="422" y="162" on="1"/>
      </contour>
      <contour>
        <pt x="299" y="399" on="1"/>
        <pt x="261" y="399" on="0"/>
        <pt x="209" y="351" on="0"/>
        <pt x="199" y="308" on="1"/>
        <pt x="404" y="308" on="1"/>
        <pt x="394" y="350" on="0"/>
        <pt x="338" y="399" on="0"/>
      </contour>
    </TTGlyph>
    <TTGlyph name="equal" xMin="56" yMin="189" xMax="506" yMax="515">
      <component glyphName="minus" x="0" y="-108" flags="0x4"/>
      <component glyphName="minus" x="0" y="94" flags="0x4"/>
    </TTGlyph>
    <TTGlyph name="eth" xMin="40" yMin="-9" xMax="555" yMax="771">
      <contour>
        <pt x="237" y="508" on="1"/>
        <pt x="184" y="584" on="1"/>
        <pt x="243" y="624" on="1"/>
        <pt x="227" y="635" on="0"/>
        <pt x="191" y="656" on="0"/>
        <pt x="172" y="665" on="1"/>
        <pt x="254" y="771" on="1"/>
        <pt x="283" y="757" on="0"/>
        <pt x="337" y="723" on="0"/>
        <pt x="361" y="704" on="1"/>
        <pt x="447" y="763" on="1"/>
        <pt x="500" y="687" on="1"/>
        <pt x="430" y="640" on="1"/>
        <pt x="490" y="574" on="0"/>
        <pt x="555" y="410" on="0"/>
        <pt x="555" y="320" on="1"/>
        <pt x="555" y="169" on="0"/>
        <pt x="411" y="-9" on="0"/>
        <pt x="288" y="-9" on="1"/>
        <pt x="236" y="-9" on="0"/>
        <pt x="145" y="29" on="0"/>
        <pt x="78" y="95" on="0"/>
        <pt x="40" y="185" on="0"/>
        <pt x="40" y="236" on="1"/>
        <pt x="40" y="283" on="0"/>
        <pt x="74" y="366" on="0"/>
        <pt x="133" y="427" on="0"/>
        <pt x="212" y="463" on="0"/>
        <pt x="256" y="463" on="1"/>
        <pt x="303" y="463" on="0"/>
        <pt x="382" y="428" on="0"/>
        <pt x="401" y="400" on="1"/>
        <pt x="394" y="442" on="0"/>
        <pt x="350" y="525" on="0"/>
        <pt x="316" y="562" on="1"/>
      </contour>
      <contour>
        <pt x="296" y="127" on="1"/>
        <pt x="336" y="127" on="0"/>
        <pt x="395" y="191" on="0"/>
        <pt x="395" y="236" on="1"/>
        <pt x="395" y="279" on="0"/>
        <pt x="335" y="343" on="0"/>
        <pt x="293" y="343" on="1"/>
        <pt x="250" y="343" on="0"/>
        <pt x="188" y="280" on="0"/>
        <pt x="188" y="236" on="1"/>
        <pt x="188" y="191" on="0"/>
        <pt x="250" y="127" on="0"/>
      </contour>
    </TTGlyph>
    <TTGlyph name="exclam" xMin="49" yMin="-11" xMax="226" yMax="745">
      <contour>
        <pt x="79" y="227" on="1"/>
        <pt x="60" y="745" on="1"/>
        <pt x="216" y="745" on="1"/>
        <pt x="197" y="227" on="1"/>
      </contour>
      <contour>
        <pt x="138" y="-11" on="1"/>
        <pt x="101" y="-11" on="0"/>
        <pt x="49" y="43" on="0"/>
        <pt x="49" y="80" on="1"/>
        <pt x="49" y="117" on="0"/>
        <pt x="101" y="171" on="0"/>
        <pt x="138" y="171" on="1"/>
        <pt x="174" y="171" on="0"/>
        <pt x="226" y="117" on="0"/>
        <pt x="226" y="80" on="1"/>
        <pt x="226" y="43" on="0"/>
        <pt x="174" y="-11" on="0"/>
      </contour>
    </TTGlyph>
    <TTGlyph name="exclamdown" xMin="49" yMin="-44" xMax="226" yMax="712">
      <contour>
        <pt x="196" y="474" on="1"/>
        <pt x="215" y="-44" on="1"/>
        <pt x="59" y="-44" on="1"/>
        <pt x="78" y="474" on="1"/>
      </contour>
      <contour>
        <pt x="137" y="712" on="1"/>
        <pt x="174" y="712" on="0"/>
        <pt x="226" y="658" on="0"/>
        <pt x="226" y="621" on="1"/>
        <pt x="226" y="584" on="0"/>
        <pt x="174" y="530" on="0"/>
        <pt x="137" y="530" on="1"/>
        <pt x="101" y="530" on="0"/>
        <pt x="49" y="584" on="0"/>
        <pt x="49" y="621" on="1"/>
        <pt x="49" y="658" on="0"/>
        <pt x="101" y="712" on="0"/>
      </contour>
    </TTGlyph>
    <TTGlyph name="f" xMin="32" yMin="0" xMax="431" yMax="774">
      <contour>
        <pt x="32" y="516" on="1"/>
        <pt x="139" y="516" on="1"/>
        <pt x="139" y="584" on="1"/>
        <pt x="139" y="676" on="0"/>
        <pt x="246" y="774" on="0"/>
        <pt x="345" y="774" on="1"/>
        <pt x="366" y="774" on="0"/>
        <pt x="415" y="768" on="0"/>
        <pt x="431" y="764" on="1"/>
        <pt x="431" y="631" on="1"/>
        <pt x="409" y="635" on="0"/>
        <pt x="382" y="637" on="0"/>
        <pt x="369" y="637" on="1"/>
        <pt x="335" y="637" on="0"/>
        <pt x="301" y="609" on="0"/>
        <pt x="301" y="581" on="1"/>
        <pt x="301" y="516" on="1"/>
        <pt x="431" y="516" on="1"/>
        <pt x="431" y="391" on="1"/>
        <pt x="301" y="391" on="1"/>
        <pt x="301" y="0" on="1"/>
        <pt x="139" y="0" on="1"/>
        <pt x="139" y="391" on="1"/>
        <pt x="32" y="391" on="1"/>
      </contour>
    </TTGlyph>
    <TTGlyph name="fi" xMin="32" yMin="0" xMax="696" yMax="777">
      <component glyphName="f" x="0" y="0" flags="0x4"/>
      <component glyphName="i" x="460" y="0" flags="0x4"/>
    </TTGlyph>
    <TTGlyph name="five" xMin="30" yMin="-11" xMax="574" yMax="700">
      <contour>
        <pt x="62" y="324" on="1"/>
        <pt x="79" y="700" on="1"/>
        <pt x="537" y="700" on="1"/>
        <pt x="537" y="569" on="1"/>
        <pt x="208" y="569" on="1"/>
        <pt x="201" y="412" on="1"/>
        <pt x="232" y="428" on="0"/>
        <pt x="301" y="444" on="0"/>
        <pt x="338" y="444" on="1"/>
        <pt x="444" y="444" on="0"/>
        <pt x="574" y="327" on="0"/>
        <pt x="574" y="231" on="1"/>
        <pt x="574" y="177" on="0"/>
        <pt x="532" y="87" on="0"/>
        <pt x="457" y="24" on="0"/>
        <pt x="350" y="-11" on="0"/>
        <pt x="286" y="-11" on="1"/>
        <pt x="214" y="-11" on="0"/>
        <pt x="84" y="37" on="0"/>
        <pt x="30" y="83" on="1"/>
        <pt x="122" y="190" on="1"/>
        <pt x="166" y="154" on="0"/>
        <pt x="248" y="122" on="0"/>
        <pt x="294" y="122" on="1"/>
        <pt x="348" y="122" on="0"/>
        <pt x="416" y="177" on="0"/>
        <pt x="416" y="223" on="1"/>
        <pt x="416" y="267" on="0"/>
        <pt x="342" y="325" on="0"/>
        <pt x="287" y="325" on="1"/>
        <pt x="258" y="325" on="0"/>
        <pt x="200" y="308" on="0"/>
        <pt x="170" y="292" on="1"/>
      </contour>
    </TTGlyph>
    <TTGlyph name="fl" xMin="32" yMin="0" xMax="685" yMax="774">
      <component glyphName="f" x="0" y="0" flags="0x4"/>
      <component glyphName="l" x="460" y="0" flags="0x4"/>
    </TTGlyph>
    <TTGlyph name="four" xMin="41" yMin="0" xMax="652" yMax="700">
      <contour>
        <pt x="569" y="700" on="1"/>
        <pt x="569" y="288" on="1"/>
        <pt x="652" y="288" on="1"/>
        <pt x="652" y="157" on="1"/>
        <pt x="569" y="157" on="1"/>
        <pt x="569" y="0" on="1"/>
        <pt x="415" y="0" on="1"/>
        <pt x="415" y="157" on="1"/>
        <pt x="41" y="157" on="1"/>
        <pt x="41" y="284" on="1"/>
        <pt x="389" y="700" on="1"/>
      </contour>
      <contour>
        <pt x="201" y="288" on="1"/>
        <pt x="415" y="288" on="1"/>
        <pt x="415" y="546" on="1"/>
      </contour>
    </TTGlyph>
    <TTGlyph name="fraction" xMin="15" yMin="0" xMax="527" yMax="700">
      <contour>
        <pt x="129" y="0" on="1"/>
        <pt x="15" y="0" on="1"/>
        <pt x="412" y="700" on="1"/>
        <pt x="527" y="700" on="1"/>
      </contour>
    </TTGlyph>
    <TTGlyph name="g" xMin="40" yMin="-223" xMax="579" yMax="519">
      <contour>
        <pt x="268" y="1" on="1"/>
        <pt x="221" y="1" on="0"/>
        <pt x="137" y="42" on="0"/>
        <pt x="76" y="112" on="0"/>
        <pt x="40" y="207" on="0"/>
        <pt x="40" y="261" on="1"/>
        <pt x="40" y="315" on="0"/>
        <pt x="77" y="409" on="0"/>
        <pt x="142" y="479" on="0"/>
        <pt x="230" y="519" on="0"/>
        <pt x="280" y="519" on="1"/>
        <pt x="321" y="519" on="0"/>
        <pt x="394" y="485" on="0"/>
        <pt x="420" y="454" on="1"/>
        <pt x="420" y="516" on="1"/>
        <pt x="579" y="516" on="1"/>
        <pt x="579" y="-7" on="1"/>
        <pt x="579" y="-111" on="0"/>
        <pt x="438" y="-223" on="0"/>
        <pt x="307" y="-223" on="1"/>
        <pt x="249" y="-223" on="0"/>
        <pt x="139" y="-199" on="0"/>
        <pt x="93" y="-177" on="1"/>
        <pt x="143" y="-60" on="1"/>
        <pt x="186" y="-80" on="0"/>
        <pt x="264" y="-100" on="0"/>
        <pt x="301" y="-100" on="1"/>
        <pt x="358" y="-100" on="0"/>
        <pt x="418" y="-52" on="0"/>
        <pt x="418" y="-5" on="1"/>
        <pt x="418" y="69" on="1"/>
        <pt x="393" y="38" on="0"/>
        <pt x="313" y="1" on="0"/>
      </contour>
      <contour>
        <pt x="199" y="260" on="1"/>
        <pt x="199" y="206" on="0"/>
        <pt x="270" y="133" on="0"/>
        <pt x="322" y="133" on="1"/>
        <pt x="351" y="133" on="0"/>
        <pt x="399" y="154" on="0"/>
        <pt x="418" y="174" on="1"/>
        <pt x="418" y="346" on="1"/>
        <pt x="399" y="365" on="0"/>
        <pt x="350" y="386" on="0"/>
        <pt x="322" y="386" on="1"/>
        <pt x="269" y="386" on="0"/>
        <pt x="199" y="314" on="0"/>
      </contour>
    </TTGlyph>
    <TTGlyph name="g.alt" xMin="23" yMin="-221" xMax="628" yMax="563">
      <contour>
        <pt x="56" y="331" on="1"/>
        <pt x="56" y="371" on="0"/>
        <pt x="94" y="442" on="0"/>
        <pt x="160" y="494" on="0"/>
        <pt x="250" y="524" on="0"/>
        <pt x="301" y="524" on="1"/>
        <pt x="355" y="524" on="0"/>
        <pt x="448" y="492" on="0"/>
        <pt x="482" y="464" on="1"/>
        <pt x="503" y="515" on="0"/>
        <pt x="559" y="563" on="0"/>
        <pt x="597" y="563" on="1"/>
        <pt x="606" y="563" on="0"/>
        <pt x="619" y="561" on="0"/>
        <pt x="628" y="558" on="1"/>
        <pt x="628" y="432" on="1"/>
        <pt x="615" y="436" on="0"/>
        <pt x="588" y="441" on="0"/>
        <pt x="577" y="441" on="1"/>
        <pt x="561" y="441" on="0"/>
        <pt x="530" y="433" on="0"/>
        <pt x="517" y="426" on="1"/>
        <pt x="532" y="405" on="0"/>
        <pt x="548" y="357" on="0"/>
        <pt x="548" y="331" on="1"/>
        <pt x="548" y="290" on="0"/>
        <pt x="511" y="220" on="0"/>
        <pt x="445" y="170" on="0"/>
        <pt x="354" y="141" on="0"/>
        <pt x="301" y="141" on="1"/>
        <pt x="282" y="141" on="0"/>
        <pt x="245" y="145" on="0"/>
        <pt x="229" y="149" on="1"/>
        <pt x="219" y="144" on="0"/>
        <pt x="207" y="129" on="0"/>
        <pt x="207" y="120" on="1"/>
        <pt x="207" y="106" on="0"/>
        <pt x="232" y="92" on="0"/>
        <pt x="258" y="91" on="1"/>
        <pt x="445" y="85" on="1"/>
        <pt x="527" y="82" on="0"/>
        <pt x="621" y="15" on="0"/>
        <pt x="621" y="-42" on="1"/>
        <pt x="621" y="-124" on="0"/>
        <pt x="444" y="-221" on="0"/>
        <pt x="293" y="-221" on="1"/>
        <pt x="162" y="-221" on="0"/>
        <pt x="23" y="-162" on="0"/>
        <pt x="23" y="-106" on="1"/>
        <pt x="23" y="-77" on="0"/>
        <pt x="87" y="-35" on="0"/>
        <pt x="141" y="-27" on="1"/>
        <pt x="110" y="-14" on="0"/>
        <pt x="77" y="30" on="0"/>
        <pt x="77" y="59" on="1"/>
        <pt x="77" y="97" on="0"/>
        <pt x="136" y="151" on="0"/>
        <pt x="187" y="161" on="1"/>
        <pt x="128" y="184" on="0"/>
        <pt x="56" y="274" on="0"/>
      </contour>
      <contour>
        <pt x="395" y="331" on="1"/>
        <pt x="395" y="366" on="0"/>
        <pt x="341" y="413" on="0"/>
        <pt x="301" y="413" on="1"/>
        <pt x="261" y="413" on="0"/>
        <pt x="208" y="366" on="0"/>
        <pt x="208" y="331" on="1"/>
        <pt x="208" y="294" on="0"/>
        <pt x="261" y="247" on="0"/>
        <pt x="301" y="247" on="1"/>
        <pt x="341" y="247" on="0"/>
        <pt x="395" y="294" on="0"/>
      </contour>
      <contour>
        <pt x="168" y="-74" on="1"/>
        <pt x="168" y="-99" on="0"/>
        <pt x="229" y="-123" on="0"/>
        <pt x="293" y="-123" on="1"/>
        <pt x="370" y="-123" on="0"/>
        <pt x="459" y="-98" on="0"/>
        <pt x="459" y="-76" on="1"/>
        <pt x="459" y="-65" on="0"/>
        <pt x="439" y="-53" on="0"/>
        <pt x="419" y="-52" on="1"/>
        <pt x="259" y="-48" on="1"/>
        <pt x="240" y="-47" on="0"/>
        <pt x="206" y="-44" on="0"/>
        <pt x="191" y="-41" on="1"/>
        <pt x="180" y="-47" on="0"/>
        <pt x="168" y="-64" on="0"/>
      </contour>
    </TTGlyph>
    <TTGlyph name="gbreve" xMin="40" yMin="-223" xMax="579" yMax="768">
      <component glyphName="g" x="0" y="0" flags="0x204"/>
      <component glyphName="breve" x="61" y="0" flags="0x4"/>
    </TTGlyph>
    <TTGlyph name="gbreve.alt" xMin="23" yMin="-221" xMax="628" yMax="768">
      <component glyphName="g.alt" x="0" y="0" flags="0x204"/>
      <component glyphName="breve" x="41" y="0" flags="0x4"/>
    </TTGlyph>
    <TTGlyph name="gcircumflex" xMin="40" yMin="-223" xMax="579" yMax="750">
      <component glyphName="g" x="0" y="0" flags="0x204"/>
      <component glyphName="circumflex" x="61" y="0" flags="0x4"/>
    </TTGlyph>
    <TTGlyph name="gcircumflex.alt" xMin="23" yMin="-221" xMax="628" yMax="750">
      <component glyphName="g.alt" x="0" y="0" flags="0x204"/>
      <component glyphName="circumflex" x="41" y="0" flags="0x4"/>
    </TTGlyph>
    <TTGlyph name="gcommaaccent" xMin="40" yMin="-223" xMax="579" yMax="842">
      <contour>
        <pt x="368" y="627" on="1"/>
        <pt x="224" y="627" on="1"/>
        <pt x="319" y="842" on="1"/>
        <pt x="431" y="842" on="1"/>
      </contour>
      <contour>
        <pt x="268" y="1" on="1"/>
        <pt x="221" y="1" on="0"/>
        <pt x="137" y="42" on="0"/>
        <pt x="76" y="112" on="0"/>
        <pt x="40" y="207" on="0"/>
        <pt x="40" y="261" on="1"/>
        <pt x="40" y="315" on="0"/>
        <pt x="77" y="409" on="0"/>
        <pt x="142" y="479" on="0"/>
        <pt x="230" y="519" on="0"/>
        <pt x="280" y="519" on="1"/>
        <pt x="321" y="519" on="0"/>
        <pt x="394" y="485" on="0"/>
        <pt x="420" y="454" on="1"/>
        <pt x="420" y="516" on="1"/>
        <pt x="579" y="516" on="1"/>
        <pt x="579" y="-7" on="1"/>
        <pt x="579" y="-111" on="0"/>
        <pt x="438" y="-223" on="0"/>
        <pt x="307" y="-223" on="1"/>
        <pt x="249" y="-223" on="0"/>
        <pt x="139" y="-199" on="0"/>
        <pt x="93" y="-177" on="1"/>
        <pt x="143" y="-60" on="1"/>
        <pt x="186" y="-80" on="0"/>
        <pt x="264" y="-100" on="0"/>
        <pt x="301" y="-100" on="1"/>
        <pt x="358" y="-100" on="0"/>
        <pt x="418" y="-52" on="0"/>
        <pt x="418" y="-5" on="1"/>
        <pt x="418" y="69" on="1"/>
        <pt x="393" y="38" on="0"/>
        <pt x="313" y="1" on="0"/>
      </contour>
      <contour>
        <pt x="199" y="260" on="1"/>
        <pt x="199" y="206" on="0"/>
        <pt x="270" y="133" on="0"/>
        <pt x="322" y="133" on="1"/>
        <pt x="351" y="133" on="0"/>
        <pt x="399" y="154" on="0"/>
        <pt x="418" y="174" on="1"/>
        <pt x="418" y="346" on="1"/>
        <pt x="399" y="365" on="0"/>
        <pt x="350" y="386" on="0"/>
        <pt x="322" y="386" on="1"/>
        <pt x="269" y="386" on="0"/>
        <pt x="199" y="314" on="0"/>
      </contour>
    </TTGlyph>
    <TTGlyph name="gcommaaccent.alt" xMin="23" yMin="-221" xMax="628" yMax="842">
      <contour>
        <pt x="377" y="627" on="1"/>
        <pt x="233" y="627" on="1"/>
        <pt x="328" y="842" on="1"/>
        <pt x="440" y="842" on="1"/>
      </contour>
      <contour>
        <pt x="56" y="331" on="1"/>
        <pt x="56" y="371" on="0"/>
        <pt x="94" y="442" on="0"/>
        <pt x="160" y="494" on="0"/>
        <pt x="250" y="524" on="0"/>
        <pt x="301" y="524" on="1"/>
        <pt x="355" y="524" on="0"/>
        <pt x="448" y="492" on="0"/>
        <pt x="482" y="464" on="1"/>
        <pt x="503" y="515" on="0"/>
        <pt x="559" y="563" on="0"/>
        <pt x="597" y="563" on="1"/>
        <pt x="606" y="563" on="0"/>
        <pt x="619" y="561" on="0"/>
        <pt x="628" y="558" on="1"/>
        <pt x="628" y="432" on="1"/>
        <pt x="615" y="436" on="0"/>
        <pt x="588" y="441" on="0"/>
        <pt x="577" y="441" on="1"/>
        <pt x="561" y="441" on="0"/>
        <pt x="530" y="433" on="0"/>
        <pt x="517" y="426" on="1"/>
        <pt x="532" y="405" on="0"/>
        <pt x="548" y="357" on="0"/>
        <pt x="548" y="331" on="1"/>
        <pt x="548" y="290" on="0"/>
        <pt x="511" y="220" on="0"/>
        <pt x="445" y="170" on="0"/>
        <pt x="354" y="141" on="0"/>
        <pt x="301" y="141" on="1"/>
        <pt x="282" y="141" on="0"/>
        <pt x="245" y="145" on="0"/>
        <pt x="229" y="149" on="1"/>
        <pt x="219" y="144" on="0"/>
        <pt x="207" y="129" on="0"/>
        <pt x="207" y="120" on="1"/>
        <pt x="207" y="106" on="0"/>
        <pt x="232" y="92" on="0"/>
        <pt x="258" y="91" on="1"/>
        <pt x="445" y="85" on="1"/>
        <pt x="527" y="82" on="0"/>
        <pt x="621" y="15" on="0"/>
        <pt x="621" y="-42" on="1"/>
        <pt x="621" y="-124" on="0"/>
        <pt x="444" y="-221" on="0"/>
        <pt x="293" y="-221" on="1"/>
        <pt x="162" y="-221" on="0"/>
        <pt x="23" y="-162" on="0"/>
        <pt x="23" y="-106" on="1"/>
        <pt x="23" y="-77" on="0"/>
        <pt x="87" y="-35" on="0"/>
        <pt x="141" y="-27" on="1"/>
        <pt x="110" y="-14" on="0"/>
        <pt x="77" y="30" on="0"/>
        <pt x="77" y="59" on="1"/>
        <pt x="77" y="97" on="0"/>
        <pt x="136" y="151" on="0"/>
        <pt x="187" y="161" on="1"/>
        <pt x="128" y="184" on="0"/>
        <pt x="56" y="274" on="0"/>
      </contour>
      <contour>
        <pt x="395" y="331" on="1"/>
        <pt x="395" y="366" on="0"/>
        <pt x="341" y="413" on="0"/>
        <pt x="301" y="413" on="1"/>
        <pt x="261" y="413" on="0"/>
        <pt x="208" y="366" on="0"/>
        <pt x="208" y="331" on="1"/>
        <pt x="208" y="294" on="0"/>
        <pt x="261" y="247" on="0"/>
        <pt x="301" y="247" on="1"/>
        <pt x="341" y="247" on="0"/>
        <pt x="395" y="294" on="0"/>
      </contour>
      <contour>
        <pt x="168" y="-74" on="1"/>
        <pt x="168" y="-99" on="0"/>
        <pt x="229" y="-123" on="0"/>
        <pt x="293" y="-123" on="1"/>
        <pt x="370" y="-123" on="0"/>
        <pt x="459" y="-98" on="0"/>
        <pt x="459" y="-76" on="1"/>
        <pt x="459" y="-65" on="0"/>
        <pt x="439" y="-53" on="0"/>
        <pt x="419" y="-52" on="1"/>
        <pt x="259" y="-48" on="1"/>
        <pt x="240" y="-47" on="0"/>
        <pt x="206" y="-44" on="0"/>
        <pt x="191" y="-41" on="1"/>
        <pt x="180" y="-47" on="0"/>
        <pt x="168" y="-64" on="0"/>
      </contour>
    </TTGlyph>
    <TTGlyph name="gdotaccent" xMin="40" yMin="-223" xMax="579" yMax="766">
      <component glyphName="g" x="0" y="0" flags="0x204"/>
      <component glyphName="dotaccent" x="164" y="0" flags="0x4"/>
    </TTGlyph>
    <TTGlyph name="gdotaccent.alt" xMin="23" yMin="-221" xMax="628" yMax="766">
      <component glyphName="g.alt" x="0" y="0" flags="0x204"/>
      <component glyphName="dotaccent" x="144" y="0" flags="0x4"/>
    </TTGlyph>
    <TTGlyph name="germandbls" xMin="61" yMin="-11" xMax="696" yMax="761">
      <contour>
        <pt x="463" y="376" on="1"/>
        <pt x="463" y="363" on="0"/>
        <pt x="478" y="348" on="0"/>
        <pt x="496" y="341" on="1"/>
        <pt x="569" y="314" on="1"/>
        <pt x="635" y="289" on="0"/>
        <pt x="696" y="217" on="0"/>
        <pt x="696" y="163" on="1"/>
        <pt x="696" y="83" on="0"/>
        <pt x="582" y="-11" on="0"/>
        <pt x="486" y="-11" on="1"/>
        <pt x="423" y="-11" on="0"/>
        <pt x="324" y="20" on="0"/>
        <pt x="282" y="54" on="1"/>
        <pt x="350" y="154" on="1"/>
        <pt x="382" y="129" on="0"/>
        <pt x="449" y="103" on="0"/>
        <pt x="480" y="103" on="1"/>
        <pt x="511" y="103" on="0"/>
        <pt x="549" y="131" on="0"/>
        <pt x="549" y="155" on="1"/>
        <pt x="549" y="175" on="0"/>
        <pt x="524" y="200" on="0"/>
        <pt x="491" y="210" on="1"/>
        <pt x="409" y="237" on="1"/>
        <pt x="359" y="253" on="0"/>
        <pt x="310" y="310" on="0"/>
        <pt x="310" y="352" on="1"/>
        <pt x="310" y="399" on="0"/>
        <pt x="354" y="453" on="0"/>
        <pt x="405" y="492" on="0"/>
        <pt x="449" y="527" on="0"/>
        <pt x="449" y="555" on="1"/>
        <pt x="449" y="585" on="0"/>
        <pt x="388" y="627" on="0"/>
        <pt x="345" y="627" on="1"/>
        <pt x="285" y="627" on="0"/>
        <pt x="222" y="555" on="0"/>
        <pt x="222" y="487" on="1"/>
        <pt x="222" y="0" on="1"/>
        <pt x="61" y="0" on="1"/>
        <pt x="61" y="493" on="1"/>
        <pt x="61" y="618" on="0"/>
        <pt x="210" y="761" on="0"/>
        <pt x="340" y="761" on="1"/>
        <pt x="462" y="761" on="0"/>
        <pt x="608" y="657" on="0"/>
        <pt x="608" y="571" on="1"/>
        <pt x="608" y="523" on="0"/>
        <pt x="563" y="463" on="0"/>
        <pt x="508" y="422" on="0"/>
        <pt x="463" y="393" on="0"/>
      </contour>
    </TTGlyph>
    <TTGlyph name="grave" xMin="46" yMin="601" xMax="386" yMax="747">
      <contour>
        <pt x="248" y="747" on="1"/>
        <pt x="386" y="601" on="1"/>
        <pt x="238" y="601" on="1"/>
        <pt x="46" y="747" on="1"/>
      </contour>
    </TTGlyph>
    <TTGlyph name="greater" xMin="88" yMin="43" xMax="529" yMax="652">
      <contour>
        <pt x="173" y="652" on="1"/>
        <pt x="529" y="348" on="1"/>
        <pt x="172" y="43" on="1"/>
        <pt x="90" y="136" on="1"/>
        <pt x="345" y="346" on="1"/>
        <pt x="88" y="557" on="1"/>
      </contour>
    </TTGlyph>
    <TTGlyph name="guillemotleft" xMin="28" yMin="0" xMax="711" yMax="516">
      <component glyphName="guilsinglleft" x="0" y="0" flags="0x4"/>
      <component glyphName="guilsinglleft" x="290" y="0" flags="0x4"/>
    </TTGlyph>
    <TTGlyph name="guillemotright" xMin="35" yMin="0" xMax="718" yMax="516">
      <contour>
        <pt x="328" y="0" on="1"/>
        <pt x="555" y="256" on="1"/>
        <pt x="325" y="516" on="1"/>
        <pt x="484" y="516" on="1"/>
        <pt x="718" y="257" on="1"/>
        <pt x="484" y="0" on="1"/>
      </contour>
      <contour>
        <pt x="38" y="0" on="1"/>
        <pt x="265" y="256" on="1"/>
        <pt x="35" y="516" on="1"/>
        <pt x="194" y="516" on="1"/>
        <pt x="428" y="257" on="1"/>
        <pt x="194" y="0" on="1"/>
      </contour>
    </TTGlyph>
    <TTGlyph name="guilsinglleft" xMin="28" yMin="0" xMax="421" yMax="516">
      <contour>
        <pt x="418" y="516" on="1"/>
        <pt x="191" y="260" on="1"/>
        <pt x="421" y="0" on="1"/>
        <pt x="262" y="0" on="1"/>
        <pt x="28" y="259" on="1"/>
        <pt x="262" y="516" on="1"/>
      </contour>
    </TTGlyph>
    <TTGlyph name="guilsinglright" xMin="35" yMin="0" xMax="428" yMax="516">
      <contour>
        <pt x="38" y="0" on="1"/>
        <pt x="265" y="256" on="1"/>
        <pt x="35" y="516" on="1"/>
        <pt x="194" y="516" on="1"/>
        <pt x="428" y="257" on="1"/>
        <pt x="194" y="0" on="1"/>
      </contour>
    </TTGlyph>
    <TTGlyph name="h" xMin="63" yMin="0" xMax="559" yMax="740">
      <contour>
        <pt x="63" y="0" on="1"/>
        <pt x="63" y="715" on="1"/>
        <pt x="225" y="740" on="1"/>
        <pt x="225" y="432" on="1"/>
        <pt x="255" y="477" on="0"/>
        <pt x="338" y="524" on="0"/>
        <pt x="388" y="524" on="1"/>
        <pt x="463" y="524" on="0"/>
        <pt x="559" y="425" on="0"/>
        <pt x="559" y="348" on="1"/>
        <pt x="559" y="0" on="1"/>
        <pt x="397" y="0" on="1"/>
        <pt x="397" y="301" on="1"/>
        <pt x="397" y="344" on="0"/>
        <pt x="350" y="397" on="0"/>
        <pt x="311" y="397" on="1"/>
        <pt x="285" y="397" on="0"/>
        <pt x="242" y="376" on="0"/>
        <pt x="225" y="354" on="1"/>
        <pt x="225" y="0" on="1"/>
      </contour>
    </TTGlyph>
    <TTGlyph name="hbar" xMin="14" yMin="0" xMax="569" yMax="740">
      <contour>
        <pt x="73" y="0" on="1"/>
        <pt x="73" y="560" on="1"/>
        <pt x="14" y="560" on="1"/>
        <pt x="14" y="648" on="1"/>
        <pt x="73" y="648" on="1"/>
        <pt x="73" y="715" on="1"/>
        <pt x="235" y="740" on="1"/>
        <pt x="235" y="648" on="1"/>
        <pt x="338" y="648" on="1"/>
        <pt x="338" y="560" on="1"/>
        <pt x="235" y="560" on="1"/>
        <pt x="235" y="432" on="1"/>
        <pt x="265" y="477" on="0"/>
        <pt x="348" y="524" on="0"/>
        <pt x="398" y="524" on="1"/>
        <pt x="473" y="524" on="0"/>
        <pt x="569" y="425" on="0"/>
        <pt x="569" y="348" on="1"/>
        <pt x="569" y="0" on="1"/>
        <pt x="407" y="0" on="1"/>
        <pt x="407" y="301" on="1"/>
        <pt x="407" y="344" on="0"/>
        <pt x="360" y="397" on="0"/>
        <pt x="321" y="397" on="1"/>
        <pt x="295" y="397" on="0"/>
        <pt x="252" y="376" on="0"/>
        <pt x="235" y="354" on="1"/>
        <pt x="235" y="0" on="1"/>
      </contour>
    </TTGlyph>
    <TTGlyph name="hcircumflex" xMin="-66" yMin="0" xMax="559" yMax="933">
      <contour>
        <pt x="220" y="782" on="1"/>
        <pt x="138" y="865" on="1"/>
        <pt x="57" y="782" on="1"/>
        <pt x="-66" y="782" on="1"/>
        <pt x="62" y="933" on="1"/>
        <pt x="218" y="933" on="1"/>
        <pt x="346" y="782" on="1"/>
      </contour>
      <contour>
        <pt x="63" y="0" on="1"/>
        <pt x="63" y="710" on="1"/>
        <pt x="225" y="710" on="1"/>
        <pt x="225" y="433" on="1"/>
        <pt x="254" y="476" on="0"/>
        <pt x="337" y="524" on="0"/>
        <pt x="388" y="524" on="1"/>
        <pt x="463" y="524" on="0"/>
        <pt x="559" y="424" on="0"/>
        <pt x="559" y="348" on="1"/>
        <pt x="559" y="0" on="1"/>
        <pt x="397" y="0" on="1"/>
        <pt x="397" y="301" on="1"/>
        <pt x="397" y="343" on="0"/>
        <pt x="351" y="397" on="0"/>
        <pt x="311" y="397" on="1"/>
        <pt x="284" y="397" on="0"/>
        <pt x="241" y="375" on="0"/>
        <pt x="225" y="354" on="1"/>
        <pt x="225" y="0" on="1"/>
      </contour>
    </TTGlyph>
    <TTGlyph name="hungarumlaut" xMin="57" yMin="603" xMax="565" yMax="746">
      <contour>
        <pt x="192" y="746" on="1"/>
        <pt x="336" y="746" on="1"/>
        <pt x="178" y="603" on="1"/>
        <pt x="57" y="603" on="1"/>
      </contour>
      <contour>
        <pt x="419" y="746" on="1"/>
        <pt x="565" y="746" on="1"/>
        <pt x="396" y="603" on="1"/>
        <pt x="284" y="603" on="1"/>
      </contour>
    </TTGlyph>
    <TTGlyph name="hyphen" xMin="51" yMin="219" xMax="419" yMax="354">
      <contour>
        <pt x="51" y="354" on="1"/>
        <pt x="419" y="354" on="1"/>
        <pt x="419" y="219" on="1"/>
        <pt x="51" y="219" on="1"/>
      </contour>
    </TTGlyph>
    <TTGlyph name="hyphen.cap" xMin="51" yMin="284" xMax="419" yMax="419">
      <component glyphName="hyphen" x="0" y="65" flags="0x4"/>
    </TTGlyph>
    <TTGlyph name="i" xMin="53" yMin="0" xMax="236" yMax="777">
      <contour>
        <pt x="144" y="596" on="1"/>
        <pt x="106" y="596" on="0"/>
        <pt x="53" y="649" on="0"/>
        <pt x="53" y="686" on="1"/>
        <pt x="53" y="723" on="0"/>
        <pt x="107" y="777" on="0"/>
        <pt x="144" y="777" on="1"/>
        <pt x="181" y="777" on="0"/>
        <pt x="236" y="723" on="0"/>
        <pt x="236" y="686" on="1"/>
        <pt x="236" y="649" on="0"/>
        <pt x="183" y="596" on="0"/>
      </contour>
      <contour>
        <pt x="225" y="516" on="1"/>
        <pt x="225" y="0" on="1"/>
        <pt x="63" y="0" on="1"/>
        <pt x="63" y="516" on="1"/>
      </contour>
    </TTGlyph>
    <TTGlyph name="iacute" xMin="54" yMin="0" xMax="385" yMax="747">
      <component glyphName="dotlessi" x="0" y="0" flags="0x204"/>
      <component glyphName="acute" x="-85" y="0" flags="0x4"/>
    </TTGlyph>
    <TTGlyph name="ibreve" xMin="-46" yMin="0" xMax="334" yMax="768">
      <component glyphName="dotlessi" x="0" y="0" flags="0x204"/>
      <component glyphName="breve" x="-116" y="0" flags="0x4"/>
    </TTGlyph>
    <TTGlyph name="icircumflex" xMin="-61" yMin="0" xMax="351" yMax="750">
      <component glyphName="dotlessi" x="0" y="0" flags="0x204"/>
      <component glyphName="circumflex" x="-116" y="0" flags="0x4"/>
    </TTGlyph>
    <TTGlyph name="idieresis" xMin="-53" yMin="0" xMax="341" yMax="766">
      <component glyphName="dotlessi" x="0" y="0" flags="0x204"/>
      <component glyphName="dieresis" x="-160" y="0" flags="0x4"/>
    </TTGlyph>
    <TTGlyph name="idotaccent" xMin="53" yMin="0" xMax="236" yMax="777">
      <component glyphName="i" x="0" y="0" flags="0x4"/>
    </TTGlyph>
    <TTGlyph name="igrave" xMin="-110" yMin="0" xMax="230" yMax="747">
      <component glyphName="dotlessi" x="0" y="0" flags="0x204"/>
      <component glyphName="grave" x="-156" y="0" flags="0x4"/>
    </TTGlyph>
    <TTGlyph name="ij" xMin="53" yMin="-223" xMax="524" yMax="777">
      <component glyphName="i" x="0" y="0" flags="0x4"/>
      <component glyphName="j" x="288" y="0" flags="0x4"/>
    </TTGlyph>
    <TTGlyph name="imacron" xMin="-17" yMin="0" xMax="312" yMax="726">
      <component glyphName="dotlessi" x="0" y="0" flags="0x204"/>
      <component glyphName="macron" x="-116" y="0" flags="0x4"/>
    </TTGlyph>
    <TTGlyph name="iogonek" xMin="53" yMin="-231" xMax="254" yMax="777">
      <contour>
        <pt x="144" y="596" on="1"/>
        <pt x="106" y="596" on="0"/>
        <pt x="53" y="649" on="0"/>
        <pt x="53" y="686" on="1"/>
        <pt x="53" y="723" on="0"/>
        <pt x="107" y="777" on="0"/>
        <pt x="144" y="777" on="1"/>
        <pt x="181" y="777" on="0"/>
        <pt x="236" y="723" on="0"/>
        <pt x="236" y="686" on="1"/>
        <pt x="236" y="649" on="0"/>
        <pt x="183" y="596" on="0"/>
      </contour>
      <contour>
        <pt x="225" y="0" on="1"/>
        <pt x="182" y="-26" on="0"/>
        <pt x="140" y="-76" on="0"/>
        <pt x="140" y="-103" on="1"/>
        <pt x="140" y="-125" on="0"/>
        <pt x="167" y="-149" on="0"/>
        <pt x="189" y="-149" on="1"/>
        <pt x="202" y="-149" on="0"/>
        <pt x="227" y="-143" on="0"/>
        <pt x="234" y="-138" on="1"/>
        <pt x="254" y="-208" on="1"/>
        <pt x="238" y="-218" on="0"/>
        <pt x="188" y="-231" on="0"/>
        <pt x="161" y="-231" on="1"/>
        <pt x="112" y="-231" on="0"/>
        <pt x="53" y="-176" on="0"/>
        <pt x="53" y="-132" on="1"/>
        <pt x="53" y="-95" on="0"/>
        <pt x="95" y="-31" on="0"/>
        <pt x="141" y="0" on="1"/>
        <pt x="63" y="0" on="1"/>
        <pt x="63" y="516" on="1"/>
        <pt x="225" y="516" on="1"/>
      </contour>
    </TTGlyph>
    <TTGlyph name="itilde" xMin="-65" yMin="0" xMax="351" yMax="760">
      <component glyphName="dotlessi" x="0" y="0" flags="0x204"/>
      <component glyphName="tilde" x="-116" y="0" flags="0x4"/>
    </TTGlyph>
    <TTGlyph name="j" xMin="-34" yMin="-223" xMax="236" yMax="777">
      <contour>
        <pt x="144" y="596" on="1"/>
        <pt x="106" y="596" on="0"/>
        <pt x="53" y="649" on="0"/>
        <pt x="53" y="686" on="1"/>
        <pt x="53" y="723" on="0"/>
        <pt x="107" y="777" on="0"/>
        <pt x="144" y="777" on="1"/>
        <pt x="181" y="777" on="0"/>
        <pt x="236" y="723" on="0"/>
        <pt x="236" y="686" on="1"/>
        <pt x="236" y="649" on="0"/>
        <pt x="183" y="596" on="0"/>
      </contour>
      <contour>
        <pt x="46" y="-223" on="1"/>
        <pt x="25" y="-223" on="0"/>
        <pt x="-21" y="-217" on="0"/>
        <pt x="-34" y="-213" on="1"/>
        <pt x="-34" y="-90" on="1"/>
        <pt x="-24" y="-92" on="0"/>
        <pt x="-2" y="-94" on="0"/>
        <pt x="11" y="-94" on="1"/>
        <pt x="38" y="-94" on="0"/>
        <pt x="63" y="-72" on="0"/>
        <pt x="63" y="-50" on="1"/>
        <pt x="63" y="516" on="1"/>
        <pt x="225" y="516" on="1"/>
        <pt x="225" y="-57" on="1"/>
        <pt x="225" y="-135" on="0"/>
        <pt x="131" y="-223" on="0"/>
      </contour>
    </TTGlyph>
    <TTGlyph name="jcircumflex" xMin="-61" yMin="-223" xMax="351" yMax="750">
      <component glyphName="dotlessj" x="0" y="0" flags="0x204"/>
      <component glyphName="circumflex" x="-116" y="0" flags="0x4"/>
    </TTGlyph>
    <TTGlyph name="k" xMin="63" yMin="0" xMax="599" yMax="740">
      <contour>
        <pt x="63" y="0" on="1"/>
        <pt x="63" y="715" on="1"/>
        <pt x="225" y="740" on="1"/>
        <pt x="225" y="311" on="1"/>
        <pt x="405" y="516" on="1"/>
        <pt x="584" y="516" on="1"/>
        <pt x="374" y="285" on="1"/>
        <pt x="599" y="0" on="1"/>
        <pt x="397" y="0" on="1"/>
        <pt x="225" y="228" on="1"/>
        <pt x="225" y="0" on="1"/>
      </contour>
    </TTGlyph>
    <TTGlyph name="kcommaaccent" xMin="63" yMin="-305" xMax="599" yMax="740">
      <component glyphName="k" x="0" y="0" flags="0x204"/>
      <component glyphName="commaaccent" x="164" y="0" flags="0x4"/>
    </TTGlyph>
    <TTGlyph name="kgreenlandic" xMin="63" yMin="0" xMax="599" yMax="516">
      <contour>
        <pt x="63" y="0" on="1"/>
        <pt x="63" y="516" on="1"/>
        <pt x="225" y="516" on="1"/>
        <pt x="225" y="311" on="1"/>
        <pt x="405" y="516" on="1"/>
        <pt x="584" y="516" on="1"/>
        <pt x="374" y="285" on="1"/>
        <pt x="599" y="0" on="1"/>
        <pt x="397" y="0" on="1"/>
        <pt x="225" y="228" on="1"/>
        <pt x="225" y="0" on="1"/>
      </contour>
    </TTGlyph>
    <TTGlyph name="l" xMin="63" yMin="0" xMax="225" yMax="740">
      <contour>
        <pt x="225" y="740" on="1"/>
        <pt x="225" y="0" on="1"/>
        <pt x="63" y="0" on="1"/>
        <pt x="63" y="715" on="1"/>
      </contour>
    </TTGlyph>
    <TTGlyph name="lacute" xMin="54" yMin="0" xMax="385" yMax="926">
      <contour>
        <pt x="192" y="926" on="1"/>
        <pt x="385" y="926" on="1"/>
        <pt x="193" y="780" on="1"/>
        <pt x="54" y="780" on="1"/>
      </contour>
      <contour>
        <pt x="63" y="0" on="1"/>
        <pt x="63" y="710" on="1"/>
        <pt x="225" y="710" on="1"/>
        <pt x="225" y="0" on="1"/>
      </contour>
    </TTGlyph>
    <TTGlyph name="lcaron" xMin="78" yMin="0" xMax="474" yMax="740">
      <component glyphName="l" x="15" y="0" flags="0x4"/>
      <component glyphName="caronSlovak" x="233" y="0" flags="0x4"/>
    </TTGlyph>
    <TTGlyph name="lcommaaccent" xMin="22" yMin="-305" xMax="229" yMax="740">
      <component glyphName="l" x="0" y="0" flags="0x204"/>
      <component glyphName="commaaccent" x="-3" y="0" flags="0x4"/>
    </TTGlyph>
    <TTGlyph name="ldot" xMin="78" yMin="0" xMax="446" yMax="740">
      <component glyphName="l" x="15" y="0" flags="0x4"/>
      <component glyphName="dotaccent" x="206" y="-324" flags="0x4"/>
    </TTGlyph>
    <TTGlyph name="less" xMin="24" yMin="43" xMax="465" yMax="652">
      <contour>
        <pt x="380" y="43" on="1"/>
        <pt x="24" y="347" on="1"/>
        <pt x="381" y="652" on="1"/>
        <pt x="463" y="559" on="1"/>
        <pt x="208" y="349" on="1"/>
        <pt x="465" y="138" on="1"/>
      </contour>
    </TTGlyph>
    <TTGlyph name="lslash" xMin="-9" yMin="0" xMax="331" yMax="740">
      <contour>
        <pt x="-9" y="311" on="1"/>
        <pt x="81" y="373" on="1"/>
        <pt x="81" y="715" on="1"/>
        <pt x="243" y="740" on="1"/>
        <pt x="243" y="484" on="1"/>
        <pt x="331" y="545" on="1"/>
        <pt x="331" y="393" on="1"/>
        <pt x="243" y="333" on="1"/>
        <pt x="243" y="0" on="1"/>
        <pt x="81" y="0" on="1"/>
        <pt x="81" y="222" on="1"/>
        <pt x="-9" y="160" on="1"/>
      </contour>
    </TTGlyph>
    <TTGlyph name="m" xMin="63" yMin="0" xMax="854" yMax="524">
      <contour>
        <pt x="63" y="0" on="1"/>
        <pt x="63" y="516" on="1"/>
        <pt x="225" y="516" on="1"/>
        <pt x="225" y="434" on="1"/>
        <pt x="253" y="478" on="0"/>
        <pt x="331" y="524" on="0"/>
        <pt x="378" y="524" on="1"/>
        <pt x="428" y="524" on="0"/>
        <pt x="504" y="472" on="0"/>
        <pt x="523" y="428" on="1"/>
        <pt x="553" y="474" on="0"/>
        <pt x="639" y="524" on="0"/>
        <pt x="692" y="524" on="1"/>
        <pt x="763" y="524" on="0"/>
        <pt x="854" y="422" on="0"/>
        <pt x="854" y="343" on="1"/>
        <pt x="854" y="0" on="1"/>
        <pt x="692" y="0" on="1"/>
        <pt x="692" y="311" on="1"/>
        <pt x="692" y="350" on="0"/>
        <pt x="649" y="397" on="0"/>
        <pt x="615" y="397" on="1"/>
        <pt x="593" y="397" on="0"/>
        <pt x="556" y="378" on="0"/>
        <pt x="540" y="357" on="1"/>
        <pt x="540" y="0" on="1"/>
        <pt x="378" y="0" on="1"/>
        <pt x="378" y="311" on="1"/>
        <pt x="378" y="350" on="0"/>
        <pt x="335" y="397" on="0"/>
        <pt x="301" y="397" on="1"/>
        <pt x="279" y="397" on="0"/>
        <pt x="241" y="377" on="0"/>
        <pt x="225" y="357" on="1"/>
        <pt x="225" y="0" on="1"/>
      </contour>
    </TTGlyph>
    <TTGlyph name="macron" xMin="99" yMin="626" xMax="428" yMax="726">
      <contour>
        <pt x="428" y="726" on="1"/>
        <pt x="428" y="626" on="1"/>
        <pt x="99" y="626" on="1"/>
        <pt x="99" y="726" on="1"/>
      </contour>
    </TTGlyph>
    <TTGlyph name="minus" xMin="56" yMin="297" xMax="506" yMax="421">
      <contour>
        <pt x="506" y="421" on="1"/>
        <pt x="506" y="297" on="1"/>
        <pt x="56" y="297" on="1"/>
        <pt x="56" y="421" on="1"/>
      </contour>
    </TTGlyph>
    <TTGlyph name="multiply" xMin="59" yMin="132" xMax="485" yMax="586">
      <contour>
        <pt x="131" y="133" on="1"/>
        <pt x="59" y="208" on="1"/>
        <pt x="200" y="358" on="1"/>
        <pt x="59" y="509" on="1"/>
        <pt x="132" y="586" on="1"/>
        <pt x="273" y="436" on="1"/>
        <pt x="413" y="585" on="1"/>
        <pt x="484" y="510" on="1"/>
        <pt x="344" y="360" on="1"/>
        <pt x="485" y="209" on="1"/>
        <pt x="412" y="132" on="1"/>
        <pt x="271" y="283" on="1"/>
      </contour>
    </TTGlyph>
    <TTGlyph name="n" xMin="63" yMin="0" xMax="559" yMax="524">
      <contour>
        <pt x="63" y="0" on="1"/>
        <pt x="63" y="516" on="1"/>
        <pt x="225" y="516" on="1"/>
        <pt x="225" y="432" on="1"/>
        <pt x="255" y="477" on="0"/>
        <pt x="338" y="524" on="0"/>
        <pt x="388" y="524" on="1"/>
        <pt x="463" y="524" on="0"/>
        <pt x="559" y="425" on="0"/>
        <pt x="559" y="348" on="1"/>
        <pt x="559" y="0" on="1"/>
        <pt x="397" y="0" on="1"/>
        <pt x="397" y="301" on="1"/>
        <pt x="397" y="344" on="0"/>
        <pt x="350" y="397" on="0"/>
        <pt x="311" y="397" on="1"/>
        <pt x="285" y="397" on="0"/>
        <pt x="242" y="376" on="0"/>
        <pt x="225" y="354" on="1"/>
        <pt x="225" y="0" on="1"/>
      </contour>
    </TTGlyph>
    <TTGlyph name="nacute" xMin="63" yMin="0" xMax="559" yMax="747">
      <component glyphName="n" x="0" y="0" flags="0x204"/>
      <component glyphName="acute" x="79" y="0" flags="0x4"/>
    </TTGlyph>
    <TTGlyph name="ncaron" xMin="63" yMin="0" xMax="559" yMax="755">
      <component glyphName="n" x="0" y="0" flags="0x204"/>
      <component glyphName="caron" x="48" y="0" flags="0x4"/>
    </TTGlyph>
    <TTGlyph name="ncommaaccent" xMin="63" yMin="-305" xMax="559" yMax="524">
      <component glyphName="n" x="0" y="0" flags="0x204"/>
      <component glyphName="commaaccent" x="161" y="0" flags="0x4"/>
    </TTGlyph>
    <TTGlyph name="nine" xMin="38" yMin="-11" xMax="605" yMax="712">
      <contour>
        <pt x="297" y="712" on="1"/>
        <pt x="366" y="712" on="0"/>
        <pt x="480" y="661" on="0"/>
        <pt x="560" y="570" on="0"/>
        <pt x="605" y="440" on="0"/>
        <pt x="605" y="362" on="1"/>
        <pt x="605" y="278" on="0"/>
        <pt x="556" y="140" on="0"/>
        <pt x="467" y="43" on="0"/>
        <pt x="341" y="-11" on="0"/>
        <pt x="265" y="-11" on="1"/>
        <pt x="207" y="-11" on="0"/>
        <pt x="89" y="31" on="0"/>
        <pt x="52" y="65" on="1"/>
        <pt x="141" y="175" on="1"/>
        <pt x="170" y="150" on="0"/>
        <pt x="235" y="127" on="0"/>
        <pt x="277" y="127" on="1"/>
        <pt x="362" y="127" on="0"/>
        <pt x="452" y="252" on="0"/>
        <pt x="452" y="367" on="1"/>
        <pt x="419" y="320" on="0"/>
        <pt x="325" y="268" on="0"/>
        <pt x="273" y="268" on="1"/>
        <pt x="222" y="268" on="0"/>
        <pt x="135" y="300" on="0"/>
        <pt x="73" y="355" on="0"/>
        <pt x="38" y="434" on="0"/>
        <pt x="38" y="480" on="1"/>
        <pt x="38" y="530" on="0"/>
        <pt x="77" y="615" on="0"/>
        <pt x="146" y="677" on="0"/>
        <pt x="241" y="712" on="0"/>
      </contour>
      <contour>
        <pt x="299" y="388" on="1"/>
        <pt x="342" y="388" on="0"/>
        <pt x="415" y="420" on="0"/>
        <pt x="443" y="449" on="1"/>
        <pt x="428" y="509" on="0"/>
        <pt x="355" y="580" on="0"/>
        <pt x="305" y="580" on="1"/>
        <pt x="256" y="580" on="0"/>
        <pt x="189" y="525" on="0"/>
        <pt x="189" y="483" on="1"/>
        <pt x="189" y="441" on="0"/>
        <pt x="250" y="388" on="0"/>
      </contour>
    </TTGlyph>
    <TTGlyph name="notequal" xMin="56" yMin="81" xMax="506" yMax="621">
      <contour>
        <pt x="58" y="81" on="1"/>
        <pt x="123" y="189" on="1"/>
        <pt x="56" y="189" on="1"/>
        <pt x="56" y="313" on="1"/>
        <pt x="197" y="313" on="1"/>
        <pt x="243" y="391" on="1"/>
        <pt x="56" y="391" on="1"/>
        <pt x="56" y="515" on="1"/>
        <pt x="318" y="515" on="1"/>
        <pt x="381" y="621" on="1"/>
        <pt x="499" y="621" on="1"/>
        <pt x="436" y="515" on="1"/>
        <pt x="506" y="515" on="1"/>
        <pt x="506" y="391" on="1"/>
        <pt x="362" y="391" on="1"/>
        <pt x="316" y="313" on="1"/>
        <pt x="506" y="313" on="1"/>
        <pt x="506" y="189" on="1"/>
        <pt x="242" y="189" on="1"/>
        <pt x="178" y="81" on="1"/>
      </contour>
    </TTGlyph>
    <TTGlyph name="ntilde" xMin="63" yMin="0" xMax="559" yMax="760">
      <component glyphName="n" x="0" y="0" flags="0x204"/>
      <component glyphName="tilde" x="48" y="0" flags="0x4"/>
    </TTGlyph>
    <TTGlyph name="numbersign" xMin="43" yMin="0" xMax="707" yMax="700">
      <contour>
        <pt x="54" y="0" on="1"/>
        <pt x="117" y="184" on="1"/>
        <pt x="43" y="184" on="1"/>
        <pt x="43" y="298" on="1"/>
        <pt x="156" y="298" on="1"/>
        <pt x="192" y="402" on="1"/>
        <pt x="90" y="402" on="1"/>
        <pt x="90" y="516" on="1"/>
        <pt x="231" y="516" on="1"/>
        <pt x="294" y="700" on="1"/>
        <pt x="432" y="700" on="1"/>
        <pt x="369" y="516" on="1"/>
        <pt x="495" y="516" on="1"/>
        <pt x="558" y="700" on="1"/>
        <pt x="695" y="700" on="1"/>
        <pt x="632" y="516" on="1"/>
        <pt x="707" y="516" on="1"/>
        <pt x="707" y="402" on="1"/>
        <pt x="593" y="402" on="1"/>
        <pt x="557" y="298" on="1"/>
        <pt x="659" y="298" on="1"/>
        <pt x="659" y="184" on="1"/>
        <pt x="518" y="184" on="1"/>
        <pt x="455" y="0" on="1"/>
        <pt x="318" y="0" on="1"/>
        <pt x="381" y="184" on="1"/>
        <pt x="255" y="184" on="1"/>
        <pt x="192" y="0" on="1"/>
      </contour>
      <contour>
        <pt x="294" y="298" on="1"/>
        <pt x="420" y="298" on="1"/>
        <pt x="456" y="402" on="1"/>
        <pt x="330" y="402" on="1"/>
      </contour>
    </TTGlyph>
    <TTGlyph name="o" xMin="40" yMin="-10" xMax="579" yMax="524">
      <contour>
        <pt x="40" y="257" on="1"/>
        <pt x="40" y="314" on="0"/>
        <pt x="81" y="412" on="0"/>
        <pt x="153" y="483" on="0"/>
        <pt x="252" y="524" on="0"/>
        <pt x="309" y="524" on="1"/>
        <pt x="366" y="524" on="0"/>
        <pt x="466" y="483" on="0"/>
        <pt x="538" y="412" on="0"/>
        <pt x="579" y="314" on="0"/>
        <pt x="579" y="257" on="1"/>
        <pt x="579" y="200" on="0"/>
        <pt x="537" y="102" on="0"/>
        <pt x="465" y="31" on="0"/>
        <pt x="366" y="-10" on="0"/>
        <pt x="309" y="-10" on="1"/>
        <pt x="252" y="-10" on="0"/>
        <pt x="153" y="31" on="0"/>
        <pt x="81" y="103" on="0"/>
        <pt x="40" y="201" on="0"/>
      </contour>
      <contour>
        <pt x="309" y="127" on="1"/>
        <pt x="358" y="127" on="0"/>
        <pt x="421" y="200" on="0"/>
        <pt x="421" y="257" on="1"/>
        <pt x="421" y="314" on="0"/>
        <pt x="358" y="389" on="0"/>
        <pt x="309" y="389" on="1"/>
        <pt x="260" y="389" on="0"/>
        <pt x="198" y="314" on="0"/>
        <pt x="198" y="257" on="1"/>
        <pt x="198" y="200" on="0"/>
        <pt x="260" y="127" on="0"/>
      </contour>
    </TTGlyph>
    <TTGlyph name="oacute" xMin="40" yMin="-10" xMax="579" yMax="747">
      <component glyphName="o" x="0" y="0" flags="0x204"/>
      <component glyphName="acute" x="80" y="0" flags="0x4"/>
    </TTGlyph>
    <TTGlyph name="obreve" xMin="40" yMin="-10" xMax="579" yMax="768">
      <component glyphName="o" x="0" y="0" flags="0x204"/>
      <component glyphName="breve" x="49" y="0" flags="0x4"/>
    </TTGlyph>
    <TTGlyph name="ocircumflex" xMin="40" yMin="-10" xMax="579" yMax="750">
      <component glyphName="o" x="0" y="0" flags="0x204"/>
      <component glyphName="circumflex" x="49" y="0" flags="0x4"/>
    </TTGlyph>
    <TTGlyph name="odieresis" xMin="40" yMin="-10" xMax="579" yMax="766">
      <component glyphName="o" x="0" y="0" flags="0x204"/>
      <component glyphName="dieresis" x="5" y="0" flags="0x4"/>
    </TTGlyph>
    <TTGlyph name="oe" xMin="40" yMin="-10" xMax="937" yMax="525">
      <contour>
        <pt x="40" y="257" on="1"/>
        <pt x="40" y="314" on="0"/>
        <pt x="81" y="412" on="0"/>
        <pt x="153" y="483" on="0"/>
        <pt x="252" y="524" on="0"/>
        <pt x="309" y="524" on="1"/>
        <pt x="366" y="524" on="0"/>
        <pt x="463" y="481" on="0"/>
        <pt x="498" y="444" on="1"/>
        <pt x="532" y="481" on="0"/>
        <pt x="628" y="525" on="0"/>
        <pt x="683" y="525" on="1"/>
        <pt x="739" y="525" on="0"/>
        <pt x="832" y="484" on="0"/>
        <pt x="899" y="412" on="0"/>
        <pt x="937" y="311" on="0"/>
        <pt x="937" y="251" on="1"/>
        <pt x="937" y="216" on="1"/>
        <pt x="582" y="216" on="1"/>
        <pt x="593" y="173" on="0"/>
        <pt x="659" y="119" on="0"/>
        <pt x="703" y="119" on="1"/>
        <pt x="735" y="119" on="0"/>
        <pt x="788" y="141" on="0"/>
        <pt x="805" y="162" on="1"/>
        <pt x="912" y="73" on="1"/>
        <pt x="862" y="29" on="0"/>
        <pt x="760" y="-10" on="0"/>
        <pt x="695" y="-10" on="1"/>
        <pt x="637" y="-10" on="0"/>
        <pt x="536" y="35" on="0"/>
        <pt x="500" y="73" on="1"/>
        <pt x="465" y="34" on="0"/>
        <pt x="366" y="-10" on="0"/>
        <pt x="309" y="-10" on="1"/>
        <pt x="252" y="-10" on="0"/>
        <pt x="153" y="31" on="0"/>
        <pt x="81" y="103" on="0"/>
        <pt x="40" y="201" on="0"/>
      </contour>
      <contour>
        <pt x="682" y="399" on="1"/>
        <pt x="644" y="399" on="0"/>
        <pt x="592" y="351" on="0"/>
        <pt x="582" y="308" on="1"/>
        <pt x="787" y="308" on="1"/>
        <pt x="777" y="350" on="0"/>
        <pt x="721" y="399" on="0"/>
      </contour>
      <contour>
        <pt x="309" y="127" on="1"/>
        <pt x="358" y="127" on="0"/>
        <pt x="421" y="200" on="0"/>
        <pt x="421" y="257" on="1"/>
        <pt x="421" y="314" on="0"/>
        <pt x="358" y="389" on="0"/>
        <pt x="309" y="389" on="1"/>
        <pt x="260" y="389" on="0"/>
        <pt x="198" y="314" on="0"/>
        <pt x="198" y="257" on="1"/>
        <pt x="198" y="200" on="0"/>
        <pt x="260" y="127" on="0"/>
      </contour>
    </TTGlyph>
    <TTGlyph name="ogonek" xMin="158" yMin="-231" xMax="359" yMax="22">
      <contour>
        <pt x="330" y="0" on="1"/>
        <pt x="287" y="-26" on="0"/>
        <pt x="245" y="-76" on="0"/>
        <pt x="245" y="-103" on="1"/>
        <pt x="245" y="-125" on="0"/>
        <pt x="272" y="-149" on="0"/>
        <pt x="294" y="-149" on="1"/>
        <pt x="307" y="-149" on="0"/>
        <pt x="332" y="-143" on="0"/>
        <pt x="339" y="-138" on="1"/>
        <pt x="359" y="-208" on="1"/>
        <pt x="343" y="-218" on="0"/>
        <pt x="293" y="-231" on="0"/>
        <pt x="266" y="-231" on="1"/>
        <pt x="217" y="-231" on="0"/>
        <pt x="158" y="-176" on="0"/>
        <pt x="158" y="-132" on="1"/>
        <pt x="158" y="-88" on="0"/>
        <pt x="218" y="-14" on="0"/>
        <pt x="283" y="22" on="1"/>
      </contour>
    </TTGlyph>
    <TTGlyph name="ograve" xMin="40" yMin="-10" xMax="579" yMax="747">
      <component glyphName="o" x="0" y="0" flags="0x204"/>
      <component glyphName="grave" x="9" y="0" flags="0x4"/>
    </TTGlyph>
    <TTGlyph name="ohungarumlaut" xMin="40" yMin="-10" xMax="621" yMax="746">
      <component glyphName="o" x="0" y="0" flags="0x204"/>
      <component glyphName="hungarumlaut" x="56" y="0" flags="0x4"/>
    </TTGlyph>
    <TTGlyph name="omacron" xMin="40" yMin="-10" xMax="579" yMax="726">
      <component glyphName="o" x="0" y="0" flags="0x204"/>
      <component glyphName="macron" x="49" y="0" flags="0x4"/>
    </TTGlyph>
    <TTGlyph name="one" xMin="32" yMin="0" xMax="324" yMax="700">
      <contour>
        <pt x="324" y="700" on="1"/>
        <pt x="324" y="0" on="1"/>
        <pt x="170" y="0" on="1"/>
        <pt x="170" y="540" on="1"/>
        <pt x="32" y="483" on="1"/>
        <pt x="32" y="619" on="1"/>
        <pt x="227" y="700" on="1"/>
      </contour>
    </TTGlyph>
    <TTGlyph name="onehalf" xMin="22" yMin="0" xMax="696" yMax="700">
      <component glyphName="onesuperior" x="0" y="0" flags="0x4"/>
      <component glyphName="fraction" x="46" y="0" flags="0x4"/>
      <component glyphName="uni2082" x="402" y="0" flags="0x4"/>
    </TTGlyph>
    <TTGlyph name="onequarter" xMin="22" yMin="0" xMax="673" yMax="700">
      <component glyphName="onesuperior" x="0" y="0" flags="0x4"/>
      <component glyphName="fraction" x="46" y="0" flags="0x4"/>
      <component glyphName="uni2084" x="323" y="0" flags="0x4"/>
    </TTGlyph>
    <TTGlyph name="onesuperior" xMin="22" yMin="350" xMax="190" yMax="700">
      <component glyphName="uni2081" x="0" y="350" flags="0x4"/>
    </TTGlyph>
    <TTGlyph name="ordfeminine" xMin="27" yMin="295" xMax="405" yMax="708">
      <contour>
        <pt x="172" y="295" on="1"/>
        <pt x="109" y="295" on="0"/>
        <pt x="27" y="365" on="0"/>
        <pt x="27" y="419" on="1"/>
        <pt x="27" y="476" on="0"/>
        <pt x="114" y="538" on="0"/>
        <pt x="192" y="538" on="1"/>
        <pt x="214" y="538" on="0"/>
        <pt x="258" y="532" on="0"/>
        <pt x="280" y="526" on="1"/>
        <pt x="280" y="545" on="1"/>
        <pt x="280" y="573" on="0"/>
        <pt x="243" y="602" on="0"/>
        <pt x="206" y="602" on="1"/>
        <pt x="184" y="602" on="0"/>
        <pt x="126" y="587" on="0"/>
        <pt x="86" y="571" on="1"/>
        <pt x="41" y="664" on="1"/>
        <pt x="92" y="686" on="0"/>
        <pt x="185" y="708" on="0"/>
        <pt x="229" y="708" on="1"/>
        <pt x="313" y="708" on="0"/>
        <pt x="405" y="628" on="0"/>
        <pt x="405" y="556" on="1"/>
        <pt x="405" y="302" on="1"/>
        <pt x="280" y="302" on="1"/>
        <pt x="280" y="332" on="1"/>
        <pt x="254" y="313" on="0"/>
        <pt x="203" y="295" on="0"/>
      </contour>
      <contour>
        <pt x="148" y="421" on="1"/>
        <pt x="148" y="404" on="0"/>
        <pt x="179" y="384" on="0"/>
        <pt x="207" y="384" on="1"/>
        <pt x="229" y="384" on="0"/>
        <pt x="265" y="393" on="0"/>
        <pt x="280" y="400" on="1"/>
        <pt x="280" y="450" on="1"/>
        <pt x="264" y="454" on="0"/>
        <pt x="229" y="457" on="0"/>
        <pt x="211" y="457" on="1"/>
        <pt x="180" y="457" on="0"/>
        <pt x="148" y="438" on="0"/>
      </contour>
    </TTGlyph>
    <TTGlyph name="ordmasculine" xMin="26" yMin="294" xMax="460" yMax="708">
      <contour>
        <pt x="26" y="500" on="1"/>
        <pt x="26" y="543" on="0"/>
        <pt x="60" y="620" on="0"/>
        <pt x="118" y="675" on="0"/>
        <pt x="197" y="708" on="0"/>
        <pt x="243" y="708" on="1"/>
        <pt x="289" y="708" on="0"/>
        <pt x="368" y="675" on="0"/>
        <pt x="426" y="620" on="0"/>
        <pt x="460" y="543" on="0"/>
        <pt x="460" y="500" on="1"/>
        <pt x="460" y="457" on="0"/>
        <pt x="426" y="381" on="0"/>
        <pt x="368" y="326" on="0"/>
        <pt x="289" y="294" on="0"/>
        <pt x="243" y="294" on="1"/>
        <pt x="197" y="294" on="0"/>
        <pt x="118" y="326" on="0"/>
        <pt x="60" y="381" on="0"/>
        <pt x="26" y="457" on="0"/>
      </contour>
      <contour>
        <pt x="337" y="500" on="1"/>
        <pt x="337" y="541" on="0"/>
        <pt x="282" y="598" on="0"/>
        <pt x="243" y="598" on="1"/>
        <pt x="204" y="598" on="0"/>
        <pt x="150" y="541" on="0"/>
        <pt x="150" y="500" on="1"/>
        <pt x="150" y="460" on="0"/>
        <pt x="203" y="404" on="0"/>
        <pt x="243" y="404" on="1"/>
        <pt x="283" y="404" on="0"/>
        <pt x="337" y="460" on="0"/>
      </contour>
    </TTGlyph>
    <TTGlyph name="oslash" xMin="38" yMin="-10" xMax="582" yMax="524">
      <contour>
        <pt x="38" y="-5" on="1"/>
        <pt x="107" y="77" on="1"/>
        <pt x="76" y="112" on="0"/>
        <pt x="40" y="205" on="0"/>
        <pt x="40" y="257" on="1"/>
        <pt x="40" y="314" on="0"/>
        <pt x="81" y="412" on="0"/>
        <pt x="153" y="483" on="0"/>
        <pt x="252" y="524" on="0"/>
        <pt x="309" y="524" on="1"/>
        <pt x="349" y="524" on="0"/>
        <pt x="420" y="505" on="0"/>
        <pt x="450" y="487" on="1"/>
        <pt x="479" y="521" on="1"/>
        <pt x="582" y="521" on="1"/>
        <pt x="512" y="437" on="1"/>
        <pt x="543" y="402" on="0"/>
        <pt x="579" y="310" on="0"/>
        <pt x="579" y="257" on="1"/>
        <pt x="579" y="200" on="0"/>
        <pt x="537" y="102" on="0"/>
        <pt x="465" y="31" on="0"/>
        <pt x="366" y="-10" on="0"/>
        <pt x="309" y="-10" on="1"/>
        <pt x="269" y="-10" on="0"/>
        <pt x="198" y="10" on="0"/>
        <pt x="167" y="28" on="1"/>
        <pt x="139" y="-5" on="1"/>
      </contour>
      <contour>
        <pt x="198" y="257" on="1"/>
        <pt x="198" y="241" on="0"/>
        <pt x="204" y="211" on="0"/>
        <pt x="209" y="198" on="1"/>
        <pt x="358" y="377" on="1"/>
        <pt x="348" y="383" on="0"/>
        <pt x="322" y="389" on="0"/>
        <pt x="309" y="389" on="1"/>
        <pt x="260" y="389" on="0"/>
        <pt x="198" y="314" on="0"/>
      </contour>
      <contour>
        <pt x="309" y="127" on="1"/>
        <pt x="358" y="127" on="0"/>
        <pt x="421" y="200" on="0"/>
        <pt x="421" y="257" on="1"/>
        <pt x="421" y="273" on="0"/>
        <pt x="415" y="304" on="0"/>
        <pt x="410" y="317" on="1"/>
        <pt x="260" y="139" on="1"/>
        <pt x="271" y="133" on="0"/>
        <pt x="296" y="127" on="0"/>
      </contour>
    </TTGlyph>
    <TTGlyph name="otilde" xMin="40" yMin="-10" xMax="579" yMax="760">
      <component glyphName="o" x="0" y="0" flags="0x204"/>
      <component glyphName="tilde" x="49" y="0" flags="0x4"/>
    </TTGlyph>
    <TTGlyph name="p" xMin="63" yMin="-215" xMax="604" yMax="519">
      <contour>
        <pt x="63" y="-215" on="1"/>
        <pt x="63" y="516" on="1"/>
        <pt x="223" y="516" on="1"/>
        <pt x="223" y="444" on="1"/>
        <pt x="248" y="478" on="0"/>
        <pt x="330" y="519" on="0"/>
        <pt x="376" y="519" on="1"/>
        <pt x="423" y="519" on="0"/>
        <pt x="507" y="478" on="0"/>
        <pt x="568" y="407" on="0"/>
        <pt x="604" y="311" on="0"/>
        <pt x="604" y="257" on="1"/>
        <pt x="604" y="203" on="0"/>
        <pt x="567" y="108" on="0"/>
        <pt x="502" y="38" on="0"/>
        <pt x="414" y="-3" on="0"/>
        <pt x="364" y="-3" on="1"/>
        <pt x="322" y="-3" on="0"/>
        <pt x="250" y="28" on="0"/>
        <pt x="225" y="57" on="1"/>
        <pt x="225" y="-215" on="1"/>
      </contour>
      <contour>
        <pt x="322" y="385" on="1"/>
        <pt x="292" y="385" on="0"/>
        <pt x="244" y="364" on="0"/>
        <pt x="225" y="343" on="1"/>
        <pt x="225" y="171" on="1"/>
        <pt x="244" y="152" on="0"/>
        <pt x="294" y="130" on="0"/>
        <pt x="322" y="130" on="1"/>
        <pt x="375" y="130" on="0"/>
        <pt x="445" y="203" on="0"/>
        <pt x="445" y="258" on="1"/>
        <pt x="445" y="312" on="0"/>
        <pt x="374" y="385" on="0"/>
      </contour>
    </TTGlyph>
    <TTGlyph name="paragraph" xMin="36" yMin="0" xMax="641" yMax="700">
      <contour>
        <pt x="310" y="0" on="1"/>
        <pt x="310" y="238" on="1"/>
        <pt x="283" y="238" on="1"/>
        <pt x="229" y="238" on="0"/>
        <pt x="138" y="271" on="0"/>
        <pt x="73" y="331" on="0"/>
        <pt x="36" y="414" on="0"/>
        <pt x="36" y="464" on="1"/>
        <pt x="36" y="571" on="0"/>
        <pt x="172" y="700" on="0"/>
        <pt x="283" y="700" on="1"/>
        <pt x="641" y="700" on="1"/>
        <pt x="641" y="0" on="1"/>
        <pt x="517" y="0" on="1"/>
        <pt x="517" y="238" on="1"/>
        <pt x="434" y="238" on="1"/>
        <pt x="434" y="0" on="1"/>
      </contour>
      <contour>
        <pt x="517" y="365" on="1"/>
        <pt x="517" y="570" on="1"/>
        <pt x="434" y="570" on="1"/>
        <pt x="434" y="365" on="1"/>
      </contour>
      <contour>
        <pt x="276" y="365" on="1"/>
        <pt x="310" y="365" on="1"/>
        <pt x="310" y="570" on="1"/>
        <pt x="276" y="570" on="1"/>
        <pt x="229" y="570" on="0"/>
        <pt x="171" y="514" on="0"/>
        <pt x="171" y="468" on="1"/>
        <pt x="171" y="422" on="0"/>
        <pt x="229" y="365" on="0"/>
      </contour>
    </TTGlyph>
    <TTGlyph name="parenleft" xMin="61" yMin="-225" xMax="397" yMax="711">
      <contour>
        <pt x="61" y="243" on="1"/>
        <pt x="61" y="395" on="0"/>
        <pt x="190" y="638" on="0"/>
        <pt x="311" y="711" on="1"/>
        <pt x="397" y="612" on="1"/>
        <pt x="302" y="549" on="0"/>
        <pt x="203" y="361" on="0"/>
        <pt x="203" y="243" on="1"/>
        <pt x="203" y="125" on="0"/>
        <pt x="302" y="-63" on="0"/>
        <pt x="397" y="-126" on="1"/>
        <pt x="311" y="-225" on="1"/>
        <pt x="190" y="-152" on="0"/>
        <pt x="61" y="91" on="0"/>
      </contour>
    </TTGlyph>
    <TTGlyph name="parenright" xMin="33" yMin="-225" xMax="369" yMax="711">
      <contour>
        <pt x="369" y="243" on="1"/>
        <pt x="369" y="91" on="0"/>
        <pt x="240" y="-152" on="0"/>
        <pt x="119" y="-225" on="1"/>
        <pt x="33" y="-126" on="1"/>
        <pt x="128" y="-63" on="0"/>
        <pt x="227" y="125" on="0"/>
        <pt x="227" y="243" on="1"/>
        <pt x="227" y="361" on="0"/>
        <pt x="128" y="549" on="0"/>
        <pt x="33" y="612" on="1"/>
        <pt x="119" y="711" on="1"/>
        <pt x="240" y="638" on="0"/>
        <pt x="369" y="395" on="0"/>
      </contour>
    </TTGlyph>
    <TTGlyph name="percent" xMin="27" yMin="-5" xMax="786" yMax="706">
      <component glyphName="uni2070" x="0" y="0" flags="0x4"/>
      <component glyphName="fraction" x="130" y="0" flags="0x4"/>
      <component glyphName="uni2080" x="446" y="0" flags="0x4"/>
    </TTGlyph>
    <TTGlyph name="period" xMin="47" yMin="-11" xMax="228" yMax="179">
      <contour>
        <pt x="138" y="179" on="1"/>
        <pt x="175" y="179" on="0"/>
        <pt x="228" y="123" on="0"/>
        <pt x="228" y="84" on="1"/>
        <pt x="228" y="45" on="0"/>
        <pt x="175" y="-11" on="0"/>
        <pt x="138" y="-11" on="1"/>
        <pt x="101" y="-11" on="0"/>
        <pt x="47" y="45" on="0"/>
        <pt x="47" y="84" on="1"/>
        <pt x="47" y="123" on="0"/>
        <pt x="101" y="179" on="0"/>
      </contour>
    </TTGlyph>
    <TTGlyph name="periodcentered" xMin="62" yMin="194" xMax="243" yMax="384">
      <component glyphName="period" x="15" y="205" flags="0x4"/>
    </TTGlyph>
    <TTGlyph name="periodcentered.cap" xMin="62" yMin="259" xMax="243" yMax="449">
      <component glyphName="periodcentered" x="0" y="65" flags="0x4"/>
    </TTGlyph>
    <TTGlyph name="perthousand" xMin="27" yMin="-5" xMax="1145" yMax="706">
      <component glyphName="uni2070" x="0" y="0" flags="0x4"/>
      <component glyphName="fraction" x="130" y="0" flags="0x4"/>
      <component glyphName="uni2080" x="446" y="0" flags="0x4"/>
      <component glyphName="uni2080" x="805" y="0" flags="0x4"/>
    </TTGlyph>
    <TTGlyph name="plus" xMin="56" yMin="123" xMax="506" yMax="591">
      <contour>
        <pt x="341" y="123" on="1"/>
        <pt x="222" y="123" on="1"/>
        <pt x="222" y="297" on="1"/>
        <pt x="56" y="297" on="1"/>
        <pt x="56" y="421" on="1"/>
        <pt x="222" y="421" on="1"/>
        <pt x="222" y="591" on="1"/>
        <pt x="341" y="591" on="1"/>
        <pt x="341" y="421" on="1"/>
        <pt x="506" y="421" on="1"/>
        <pt x="506" y="297" on="1"/>
        <pt x="341" y="297" on="1"/>
      </contour>
    </TTGlyph>
    <TTGlyph name="plusminus" xMin="56" yMin="-1" xMax="506" yMax="629">
      <contour>
        <pt x="341" y="209" on="1"/>
        <pt x="222" y="209" on="1"/>
        <pt x="222" y="359" on="1"/>
        <pt x="56" y="359" on="1"/>
        <pt x="56" y="482" on="1"/>
        <pt x="222" y="482" on="1"/>
        <pt x="222" y="629" on="1"/>
        <pt x="341" y="629" on="1"/>
        <pt x="341" y="482" on="1"/>
        <pt x="506" y="482" on="1"/>
        <pt x="506" y="359" on="1"/>
        <pt x="341" y="359" on="1"/>
      </contour>
      <contour>
        <pt x="506" y="123" on="1"/>
        <pt x="506" y="-1" on="1"/>
        <pt x="56" y="-1" on="1"/>
        <pt x="56" y="123" on="1"/>
      </contour>
    </TTGlyph>
    <TTGlyph name="q" xMin="40" yMin="-215" xMax="580" yMax="519">
      <contour>
        <pt x="268" y="-3" on="1"/>
        <pt x="221" y="-3" on="0"/>
        <pt x="137" y="38" on="0"/>
        <pt x="76" y="109" on="0"/>
        <pt x="40" y="205" on="0"/>
        <pt x="40" y="259" on="1"/>
        <pt x="40" y="313" on="0"/>
        <pt x="77" y="408" on="0"/>
        <pt x="142" y="478" on="0"/>
        <pt x="230" y="519" on="0"/>
        <pt x="280" y="519" on="1"/>
        <pt x="321" y="519" on="0"/>
        <pt x="394" y="485" on="0"/>
        <pt x="420" y="454" on="1"/>
        <pt x="420" y="516" on="1"/>
        <pt x="580" y="516" on="1"/>
        <pt x="580" y="-215" on="1"/>
        <pt x="418" y="-215" on="1"/>
        <pt x="418" y="65" on="1"/>
        <pt x="393" y="34" on="0"/>
        <pt x="313" y="-3" on="0"/>
      </contour>
      <contour>
        <pt x="199" y="258" on="1"/>
        <pt x="199" y="204" on="0"/>
        <pt x="270" y="131" on="0"/>
        <pt x="322" y="131" on="1"/>
        <pt x="351" y="131" on="0"/>
        <pt x="399" y="152" on="0"/>
        <pt x="418" y="172" on="1"/>
        <pt x="418" y="346" on="1"/>
        <pt x="399" y="365" on="0"/>
        <pt x="350" y="386" on="0"/>
        <pt x="322" y="386" on="1"/>
        <pt x="269" y="386" on="0"/>
        <pt x="199" y="313" on="0"/>
      </contour>
    </TTGlyph>
    <TTGlyph name="question" xMin="18" yMin="-11" xMax="503" yMax="711">
      <contour>
        <pt x="383" y="336" on="1"/>
        <pt x="359" y="319" on="1"/>
        <pt x="331" y="299" on="0"/>
        <pt x="310" y="260" on="0"/>
        <pt x="311" y="229" on="1"/>
        <pt x="182" y="229" on="1"/>
        <pt x="178" y="292" on="0"/>
        <pt x="208" y="366" on="0"/>
        <pt x="253" y="400" on="1"/>
        <pt x="305" y="440" on="1"/>
        <pt x="329" y="459" on="0"/>
        <pt x="352" y="493" on="0"/>
        <pt x="352" y="509" on="1"/>
        <pt x="352" y="538" on="0"/>
        <pt x="303" y="577" on="0"/>
        <pt x="265" y="577" on="1"/>
        <pt x="223" y="577" on="0"/>
        <pt x="156" y="531" on="0"/>
        <pt x="143" y="493" on="1"/>
        <pt x="18" y="542" on="1"/>
        <pt x="45" y="619" on="0"/>
        <pt x="183" y="711" on="0"/>
        <pt x="271" y="711" on="1"/>
        <pt x="320" y="711" on="0"/>
        <pt x="406" y="682" on="0"/>
        <pt x="467" y="630" on="0"/>
        <pt x="503" y="560" on="0"/>
        <pt x="503" y="519" on="1"/>
        <pt x="503" y="465" on="0"/>
        <pt x="451" y="385" on="0"/>
      </contour>
      <contour>
        <pt x="247" y="171" on="1"/>
        <pt x="284" y="171" on="0"/>
        <pt x="336" y="117" on="0"/>
        <pt x="336" y="80" on="1"/>
        <pt x="336" y="43" on="0"/>
        <pt x="284" y="-11" on="0"/>
        <pt x="247" y="-11" on="1"/>
        <pt x="210" y="-11" on="0"/>
        <pt x="158" y="43" on="0"/>
        <pt x="158" y="80" on="1"/>
        <pt x="158" y="117" on="0"/>
        <pt x="210" y="171" on="0"/>
      </contour>
    </TTGlyph>
    <TTGlyph name="questiondown" xMin="34" yMin="-11" xMax="519" yMax="711">
      <contour>
        <pt x="154" y="364" on="1"/>
        <pt x="178" y="381" on="1"/>
        <pt x="206" y="401" on="0"/>
        <pt x="227" y="440" on="0"/>
        <pt x="226" y="471" on="1"/>
        <pt x="355" y="471" on="1"/>
        <pt x="359" y="408" on="0"/>
        <pt x="329" y="334" on="0"/>
        <pt x="284" y="300" on="1"/>
        <pt x="232" y="260" on="1"/>
        <pt x="208" y="241" on="0"/>
        <pt x="185" y="207" on="0"/>
        <pt x="185" y="191" on="1"/>
        <pt x="185" y="162" on="0"/>
        <pt x="234" y="123" on="0"/>
        <pt x="272" y="123" on="1"/>
        <pt x="314" y="123" on="0"/>
        <pt x="381" y="169" on="0"/>
        <pt x="394" y="207" on="1"/>
        <pt x="519" y="158" on="1"/>
        <pt x="492" y="81" on="0"/>
        <pt x="354" y="-11" on="0"/>
        <pt x="266" y="-11" on="1"/>
        <pt x="217" y="-11" on="0"/>
        <pt x="131" y="18" on="0"/>
        <pt x="70" y="70" on="0"/>
        <pt x="34" y="140" on="0"/>
        <pt x="34" y="181" on="1"/>
        <pt x="34" y="235" on="0"/>
        <pt x="86" y="315" on="0"/>
      </contour>
      <contour>
        <pt x="290" y="529" on="1"/>
        <pt x="253" y="529" on="0"/>
        <pt x="201" y="583" on="0"/>
        <pt x="201" y="620" on="1"/>
        <pt x="201" y="657" on="0"/>
        <pt x="253" y="711" on="0"/>
        <pt x="290" y="711" on="1"/>
        <pt x="327" y="711" on="0"/>
        <pt x="379" y="657" on="0"/>
        <pt x="379" y="620" on="1"/>
        <pt x="379" y="583" on="0"/>
        <pt x="327" y="529" on="0"/>
      </contour>
    </TTGlyph>
    <TTGlyph name="quotedbl" xMin="72" yMin="440" xMax="438" yMax="750">
      <component glyphName="quotesingle" x="0" y="0" flags="0x4"/>
      <component glyphName="quotesingle" x="217" y="0" flags="0x4"/>
    </TTGlyph>
    <TTGlyph name="quotedblbase" xMin="0" yMin="-177" xMax="463" yMax="127">
      <component glyphName="comma" x="229" y="0" flags="0x4"/>
      <component glyphName="comma" x="0" y="0" flags="0x4"/>
    </TTGlyph>
    <TTGlyph name="quotedblleft" xMin="34" yMin="446" xMax="497" yMax="750">
      <contour>
        <pt x="193" y="446" on="1"/>
        <pt x="34" y="446" on="1"/>
        <pt x="152" y="750" on="1"/>
        <pt x="268" y="750" on="1"/>
      </contour>
      <contour>
        <pt x="422" y="446" on="1"/>
        <pt x="263" y="446" on="1"/>
        <pt x="381" y="750" on="1"/>
        <pt x="497" y="750" on="1"/>
      </contour>
    </TTGlyph>
    <TTGlyph name="quotedblright" xMin="39" yMin="446" xMax="502" yMax="750">
      <component glyphName="comma" x="268" y="623" flags="0x4"/>
      <component glyphName="comma" x="39" y="623" flags="0x4"/>
    </TTGlyph>
    <TTGlyph name="quoteleft" xMin="34" yMin="446" xMax="268" yMax="750">
      <contour>
        <pt x="193" y="446" on="1"/>
        <pt x="34" y="446" on="1"/>
        <pt x="152" y="750" on="1"/>
        <pt x="268" y="750" on="1"/>
      </contour>
    </TTGlyph>
    <TTGlyph name="quoteright" xMin="39" yMin="446" xMax="273" yMax="750">
      <component glyphName="comma" x="39" y="623" flags="0x4"/>
    </TTGlyph>
    <TTGlyph name="quotesinglbase" xMin="0" yMin="-177" xMax="234" yMax="127">
      <component glyphName="comma" x="0" y="0" flags="0x4"/>
    </TTGlyph>
    <TTGlyph name="quotesingle" xMin="72" yMin="440" xMax="221" yMax="750">
      <contour>
        <pt x="90" y="440" on="1"/>
        <pt x="72" y="750" on="1"/>
        <pt x="221" y="750" on="1"/>
        <pt x="203" y="440" on="1"/>
      </contour>
    </TTGlyph>
    <TTGlyph name="r" xMin="63" yMin="0" xMax="419" yMax="526">
      <contour>
        <pt x="63" y="0" on="1"/>
        <pt x="63" y="516" on="1"/>
        <pt x="225" y="516" on="1"/>
        <pt x="225" y="399" on="1"/>
        <pt x="250" y="463" on="0"/>
        <pt x="319" y="526" on="0"/>
        <pt x="365" y="526" on="1"/>
        <pt x="382" y="525" on="0"/>
        <pt x="404" y="520" on="0"/>
        <pt x="419" y="513" on="1"/>
        <pt x="419" y="374" on="1"/>
        <pt x="404" y="381" on="0"/>
        <pt x="364" y="390" on="0"/>
        <pt x="343" y="390" on="1"/>
        <pt x="307" y="390" on="0"/>
        <pt x="244" y="355" on="0"/>
        <pt x="225" y="326" on="1"/>
        <pt x="225" y="0" on="1"/>
      </contour>
    </TTGlyph>
    <TTGlyph name="racute" xMin="63" yMin="0" xMax="507" yMax="747">
      <component glyphName="r" x="0" y="0" flags="0x204"/>
      <component glyphName="acute" x="37" y="0" flags="0x4"/>
    </TTGlyph>
</ttFont>
